{"glyphs":{"0":{"ha":694,"x_min":47,"x_max":639,"o":"m 403 978 q 581 772 522 902 q 639 494 639 643 q 627 356 639 425 q 589 218 616 287 q 522 98 562 150 q 422 13 483 45 q 288 -20 361 -20 q 211 -3 246 -20 q 152 40 176 13 q 109 104 127 66 q 78 180 90 141 q 60 264 67 220 q 50 346 53 309 q 47 421 47 384 q 94 667 47 549 q 228 873 140 786 q 403 978 283 928 m 325 889 q 223 790 266 852 q 160 657 180 728 q 140 515 140 587 q 170 277 140 376 q 209 181 184 225 q 270 104 233 137 q 350 72 308 72 q 424 86 391 72 q 478 126 456 100 q 515 183 500 152 q 538 252 530 214 q 549 325 546 290 q 553 396 553 359 q 458 749 553 579 q 434 787 450 764 q 385 844 417 811 q 325 889 353 877 z "},"1":{"ha":694,"x_min":127,"x_max":436,"o":"m 428 989 l 436 972 q 427 600 427 800 q 431 31 427 136 l 314 -7 l 297 0 q 309 582 309 328 q 310 645 309 607 q 311 703 311 682 q 310 751 311 724 q 305 793 309 779 q 294 823 301 808 q 274 844 286 838 q 243 850 261 850 l 127 850 l 127 888 l 428 989 z "},"2":{"ha":694,"x_min":17,"x_max":656,"o":"m 656 111 l 624 3 l 17 3 l 17 25 q 248 273 155 165 q 328 373 296 330 q 395 472 361 416 q 447 588 429 529 q 464 705 464 646 q 456 765 464 734 q 430 824 448 795 q 381 871 413 852 q 307 889 349 889 q 211 865 256 889 q 117 800 165 842 l 89 827 q 382 983 230 983 q 532 922 473 983 q 591 768 591 860 q 525 562 591 680 q 425 409 487 493 q 327 282 363 326 q 204 138 291 239 q 201 132 201 135 q 220 122 201 122 l 648 122 l 656 111 z "},"3":{"ha":694,"x_min":25,"x_max":619,"o":"m 335 530 l 335 519 q 619 298 619 494 q 588 168 619 229 q 505 65 556 107 q 387 0 453 24 q 252 -24 321 -24 q 35 53 132 -24 l 25 68 l 83 168 l 97 168 q 286 32 177 32 q 433 99 377 32 q 489 258 489 165 q 421 416 489 344 q 174 479 361 479 l 175 515 q 373 602 305 545 q 440 750 440 659 q 397 850 440 813 q 289 888 353 888 q 231 874 264 888 q 176 849 197 861 q 119 814 155 836 l 100 844 q 351 975 254 975 q 497 926 439 975 q 554 789 554 876 q 493 626 554 693 q 335 530 431 558 z "},"4":{"ha":694,"x_min":-1,"x_max":657,"o":"m 501 978 l 511 970 q 510 339 510 932 l 519 326 l 650 326 l 657 317 l 635 265 l 521 265 l 510 254 q 514 39 510 69 l 403 -7 l 396 1 q 403 253 403 50 l 393 265 l -1 265 l -1 326 l 396 929 l 501 978 m 403 338 l 403 812 q 396 823 403 823 q 389 821 391 823 q 260 640 339 764 q 148 457 206 557 q 89 336 90 357 l 96 326 l 395 326 l 403 338 z "},"5":{"ha":694,"x_min":17,"x_max":623,"o":"m 174 825 l 174 574 l 174 564 q 357 615 279 615 q 550 541 477 615 q 623 349 623 467 q 592 202 623 271 q 511 87 562 134 q 391 12 460 39 q 248 -16 322 -16 q 121 12 181 -16 q 18 89 60 39 l 17 106 l 78 183 l 93 183 q 120 131 106 154 q 154 85 134 108 q 201 49 174 62 q 258 36 228 36 q 387 76 333 36 q 465 176 440 115 q 489 310 489 237 q 478 396 489 355 q 446 471 468 436 q 386 528 425 507 q 296 549 347 549 q 134 475 211 549 l 115 490 l 115 945 l 125 954 l 590 954 l 553 846 q 191 839 251 839 q 179 835 184 839 q 174 825 174 831 z "},"6":{"ha":694,"x_min":62,"x_max":654,"o":"m 654 956 l 627 880 l 614 875 q 533 890 574 890 q 317 800 414 890 q 179 425 182 675 l 189 424 q 446 524 313 524 q 596 454 537 524 q 654 293 654 385 q 627 176 654 233 q 554 76 599 119 q 449 8 509 34 q 328 -18 389 -18 q 225 3 271 -18 q 149 59 179 24 q 99 140 119 94 q 71 233 79 186 q 62 330 62 281 q 110 586 62 463 q 249 800 158 709 q 406 924 321 876 q 578 972 492 972 q 654 956 610 972 m 183 368 q 188 286 183 327 q 205 200 193 245 q 237 122 218 155 q 290 66 257 88 q 366 45 323 45 q 497 100 450 45 q 545 239 545 155 q 490 377 545 318 q 355 436 436 436 q 261 414 315 436 q 183 368 208 392 z "},"7":{"ha":694,"x_min":68,"x_max":686,"o":"m 686 936 l 472 586 q 229 17 288 286 l 113 -11 l 104 0 q 330 450 144 134 q 553 825 467 688 l 545 842 l 78 842 l 68 854 l 97 964 q 218 956 113 958 q 397 953 323 953 l 686 953 l 686 936 z "},"8":{"ha":694,"x_min":56,"x_max":640,"o":"m 330 464 q 212 372 252 423 q 171 245 171 321 q 190 151 171 195 q 249 75 209 106 q 340 45 288 45 q 472 97 425 45 q 519 233 519 149 q 507 302 519 271 q 467 361 495 333 q 409 411 438 390 q 330 464 380 432 m 433 534 q 529 466 496 492 q 591 409 562 440 q 630 346 619 378 q 640 273 640 315 q 611 153 640 208 q 534 62 582 98 q 427 6 487 26 q 304 -14 367 -14 q 114 49 176 -14 q 56 218 56 107 q 65 288 56 256 q 90 343 75 319 q 136 393 106 368 q 198 439 167 419 q 279 489 229 459 l 279 504 q 123 736 123 612 q 137 809 123 775 q 171 868 151 844 q 224 915 192 892 q 285 951 256 937 q 353 981 315 966 l 366 981 q 538 927 472 981 q 604 789 604 874 q 554 657 604 720 q 433 550 505 594 l 433 534 m 387 572 q 460 652 433 604 q 488 754 488 700 q 469 827 488 791 q 408 889 450 863 q 310 916 366 916 q 248 855 264 886 q 231 781 231 824 q 387 572 231 682 z "},"9":{"ha":694,"x_min":56,"x_max":642,"o":"m 297 16 l 179 -12 l 165 -1 q 322 232 196 69 q 485 467 440 390 l 478 475 q 269 415 366 415 q 172 444 220 415 q 89 528 123 473 q 56 646 56 582 q 110 831 56 763 q 207 905 137 865 q 342 975 276 946 q 566 911 490 975 q 642 733 642 847 q 615 609 642 678 q 561 492 589 541 q 486 375 532 443 q 359 178 392 238 q 297 16 308 85 m 488 533 q 530 669 530 576 q 506 780 530 730 q 429 862 481 829 q 304 895 376 895 q 237 864 267 895 q 193 794 208 834 q 179 715 179 753 q 199 609 179 660 q 261 524 219 559 q 359 489 304 489 q 488 533 444 489 z "}," ":{"ha":203,"x_min":0,"x_max":0,"o":""},"!":{"ha":353,"x_min":36,"x_max":315,"o":"m 68 118 l 192 245 q 201 250 196 250 q 209 246 205 250 l 310 149 q 315 140 315 144 q 311 132 315 136 l 187 4 q 178 0 182 0 q 170 3 174 0 l 69 101 q 64 110 64 106 q 68 118 64 114 m 283 645 q 285 593 285 618 q 271 467 285 522 q 221 330 251 391 q 205 296 213 314 q 184 269 197 279 q 177 265 180 265 q 174 270 174 265 q 172 280 172 278 q 186 439 186 362 q 164 621 186 535 q 66 888 124 775 q 48 920 62 897 q 36 948 36 939 l 36 950 q 77 1047 54 999 q 120 1145 99 1095 q 222 919 173 1034 q 283 645 271 804 z "},"\"":{"ha":298,"x_min":12,"x_max":272,"o":"m 47 600 l 20 811 q 12 913 12 872 q 60 965 12 965 q 91 958 77 965 q 106 937 106 951 l 106 865 l 77 600 l 47 600 m 215 600 l 184 868 q 178 928 178 917 q 232 961 178 961 q 259 954 246 961 q 272 935 272 947 q 271 869 272 890 l 244 600 l 215 600 z "},"#":{"ha":1030,"x_min":28,"x_max":1003,"o":"m 504 979 l 514 965 l 442 707 l 729 707 l 804 978 l 819 982 l 850 979 l 860 965 l 788 707 l 994 707 l 1003 661 l 986 650 l 772 650 l 691 359 l 911 359 l 920 314 l 903 302 l 675 302 l 593 8 l 547 12 l 542 32 l 617 302 l 330 302 l 248 8 l 201 12 l 196 32 l 271 302 l 41 302 l 33 317 l 28 346 l 39 359 l 287 359 l 368 650 l 132 650 l 123 664 l 118 693 l 129 707 l 383 707 l 458 978 l 473 982 l 504 979 m 345 359 l 633 359 l 713 650 l 426 650 l 345 359 z "},"$":{"ha":654,"x_min":37,"x_max":616,"o":"m 612 823 l 529 750 l 511 754 q 375 900 477 886 l 375 552 q 406 538 389 545 q 565 434 513 491 q 616 300 616 377 q 561 148 616 217 q 423 41 505 78 q 375 22 399 31 l 375 -138 l 319 -149 l 319 9 q 256 4 288 4 q 123 38 182 4 q 37 139 64 71 l 114 227 l 136 225 q 311 65 185 65 q 319 65 315 65 l 319 447 q 235 490 270 469 q 160 545 192 514 q 113 614 128 576 q 98 700 98 652 q 122 808 98 760 q 185 887 145 857 q 274 934 224 918 q 319 945 296 941 l 319 1097 l 375 1108 l 375 950 q 379 950 377 950 q 449 945 419 950 q 509 928 478 941 q 566 889 540 916 q 612 823 591 863 m 375 76 q 445 121 414 90 q 500 258 500 176 q 453 359 500 311 q 375 420 418 395 l 375 76 m 319 898 q 246 856 277 889 q 204 746 204 811 q 220 677 204 709 q 267 620 237 645 q 319 581 292 598 l 319 898 z "},"%":{"ha":1046,"x_min":28,"x_max":1018,"o":"m 811 475 q 956 389 895 453 q 1018 249 1018 326 q 980 125 1018 188 q 882 23 943 63 q 761 -17 822 -17 q 660 15 703 -17 q 597 92 617 46 q 578 189 578 138 q 644 351 578 277 q 811 475 711 424 m 742 403 q 660 237 660 355 q 677 150 660 192 q 733 77 695 107 q 819 47 770 47 q 880 61 854 47 q 917 99 905 75 q 933 148 928 123 q 939 201 939 172 q 883 338 939 279 q 742 403 828 397 m 261 1104 q 406 1018 345 1082 q 468 878 468 954 q 430 754 468 817 q 332 652 393 692 q 211 612 272 612 q 110 644 153 612 q 47 721 67 675 q 28 818 28 766 q 63 935 28 878 q 148 1032 98 992 q 261 1104 197 1072 m 192 1032 q 110 867 110 985 q 127 779 110 821 q 183 706 145 736 q 269 676 220 676 q 330 690 304 676 q 367 728 355 704 q 384 777 378 752 q 389 831 389 802 q 333 967 389 908 q 192 1032 278 1026 m 949 1064 l 950 1046 l 87 -1 l 49 24 l 50 43 l 905 1079 l 921 1079 l 949 1064 z "},"&":{"ha":1025,"x_min":68,"x_max":1019,"o":"m 481 494 l 484 554 q 761 550 562 550 q 978 554 937 550 l 974 488 q 770 497 917 497 q 782 410 782 445 q 679 160 782 294 l 684 155 q 829 74 760 74 q 990 262 945 74 l 1019 256 q 1001 180 1012 216 q 971 107 990 144 q 927 44 951 71 q 866 1 903 18 q 786 -16 829 -16 q 606 66 690 -16 l 599 72 q 386 -11 496 -11 q 154 65 230 -11 q 91 160 113 106 q 68 271 68 214 q 116 418 68 361 q 288 551 164 476 q 252 722 252 638 q 314 896 252 822 q 478 970 376 970 q 576 933 532 970 q 619 842 619 897 q 554 688 619 746 q 468 625 526 662 q 386 578 410 589 q 659 182 484 360 q 711 370 711 260 q 661 479 711 429 q 635 495 651 490 q 608 500 618 500 q 576 501 598 501 q 481 494 534 501 m 578 94 q 300 522 393 300 q 204 425 232 477 q 176 302 176 372 q 205 178 176 237 q 287 81 233 119 q 407 43 340 43 q 578 94 513 43 m 375 604 q 490 699 461 658 q 519 808 519 741 q 489 883 519 846 q 427 921 459 921 q 386 911 403 921 q 359 889 368 902 q 344 854 349 876 q 338 817 339 833 q 336 777 336 800 q 375 604 336 695 z "},"'":{"ha":294,"x_min":94,"x_max":186,"o":"m 122 606 l 97 873 q 94 925 94 907 q 109 955 94 944 q 144 965 123 965 q 186 920 186 965 q 180 864 186 901 l 144 606 l 122 606 z "},"(":{"ha":540,"x_min":157,"x_max":418,"o":"m 418 -227 l 418 -260 q 340 -235 376 -256 q 278 -183 304 -214 q 233 -111 253 -152 q 201 -30 213 -69 q 182 53 189 10 q 157 389 157 195 q 184 708 157 570 q 212 811 195 764 q 256 906 229 859 q 325 984 283 953 q 418 1025 366 1016 l 418 987 q 359 958 386 979 q 314 903 332 936 q 281 831 295 869 q 257 745 267 793 q 242 653 248 697 q 234 557 237 610 q 230 465 231 504 q 229 380 229 427 q 230 288 229 328 q 233 192 231 248 q 242 94 236 136 q 256 2 248 51 q 279 -82 265 -46 q 313 -149 294 -117 q 358 -201 332 -181 q 418 -227 385 -220 z "},")":{"ha":540,"x_min":119,"x_max":383,"o":"m 119 985 l 119 1022 q 383 378 383 967 q 382 294 383 332 q 379 205 382 256 q 370 113 376 154 q 355 24 365 72 q 332 -61 345 -24 q 298 -135 319 -98 q 253 -197 278 -172 q 194 -239 228 -222 q 119 -262 160 -257 l 119 -229 q 208 -184 172 -216 q 264 -93 244 -152 q 297 59 286 -27 q 310 201 309 145 q 311 360 311 258 q 311 383 311 376 q 285 710 311 575 q 271 776 277 749 q 250 840 264 803 q 220 902 237 876 q 178 950 204 927 q 119 985 152 973 z "},"*":{"ha":386,"x_min":39,"x_max":332,"o":"m 218 623 l 163 623 q 175 777 173 689 q 68 676 111 727 l 39 725 q 160 799 94 752 q 41 871 113 833 l 79 909 q 174 828 128 863 q 163 961 174 915 l 218 961 q 203 829 208 907 q 297 916 255 871 l 332 872 q 210 800 268 842 q 332 722 283 745 l 296 682 q 203 766 260 722 q 218 623 205 684 z "},"+":{"ha":1050,"x_min":64,"x_max":985,"o":"m 550 383 l 985 383 l 978 328 l 550 328 l 550 -93 l 494 -103 l 494 328 l 64 328 l 74 383 l 494 383 l 494 806 l 550 814 l 550 383 z "},",":{"ha":386,"x_min":93,"x_max":297,"o":"m 153 -292 l 126 -272 q 218 -85 218 -151 q 200 -26 218 -50 l 103 89 q 93 125 93 102 q 120 171 93 151 q 175 192 147 192 q 239 144 209 192 q 283 43 269 96 q 297 -37 297 -9 q 263 -145 297 -87 q 153 -292 230 -202 z "},"-":{"ha":464,"x_min":64,"x_max":400,"o":"m 392 328 l 64 328 l 74 383 l 400 383 l 392 328 z "},".":{"ha":386,"x_min":107,"x_max":293,"o":"m 134 6 q 121 20 134 6 q 107 72 107 33 q 134 138 107 111 q 200 165 161 165 q 266 138 239 165 q 293 72 293 111 q 266 6 293 33 q 200 -21 239 -21 q 134 6 161 -21 z "},"/":{"ha":697,"x_min":54,"x_max":643,"o":"m 636 993 l 643 978 l 103 -267 l 58 -256 l 54 -236 l 590 997 l 606 1000 l 636 993 z "},":":{"ha":300,"x_min":69,"x_max":228,"o":"m 93 6 q 81 18 93 6 q 69 62 69 30 q 93 118 69 95 q 150 142 117 142 q 205 118 182 142 q 228 62 228 94 q 205 7 228 31 q 150 -17 182 -17 q 93 6 117 -17 m 93 497 q 81 508 93 497 q 69 553 69 520 q 93 609 69 585 q 150 632 117 632 q 205 608 182 632 q 228 553 228 585 q 205 497 228 521 q 150 473 182 473 q 93 497 117 473 z "},";":{"ha":300,"x_min":66,"x_max":249,"o":"m 90 499 q 78 511 90 499 q 66 555 66 523 q 90 611 66 588 q 147 635 114 635 q 202 611 179 635 q 225 555 225 587 q 202 500 225 524 q 147 476 179 476 q 90 499 114 476 m 123 -264 l 103 -245 q 168 -89 168 -158 q 150 -36 168 -68 l 103 35 q 90 71 90 55 q 103 119 90 106 l 106 122 q 150 138 126 138 q 216 76 184 138 q 249 -31 249 15 q 239 -90 249 -60 q 205 -156 229 -120 q 169 -208 180 -193 q 123 -264 157 -223 z "},"<":{"ha":1050,"x_min":82,"x_max":945,"o":"m 945 701 l 942 689 l 216 354 l 216 338 l 937 3 l 945 -11 l 929 -43 l 916 -50 l 82 339 l 82 355 l 917 737 l 932 733 l 945 701 z "},"=":{"ha":1050,"x_min":75,"x_max":1003,"o":"m 994 457 l 75 457 l 85 513 l 1003 513 l 994 457 m 994 183 l 75 183 l 85 239 l 1003 239 l 994 183 z "},">":{"ha":1050,"x_min":106,"x_max":970,"o":"m 109 686 l 106 700 l 119 733 l 134 737 l 970 355 l 970 339 l 136 -50 l 122 -43 l 111 -9 l 117 3 l 836 340 l 836 353 l 109 686 z "},"?":{"ha":503,"x_min":62,"x_max":497,"o":"m 170 8 q 159 20 170 8 q 147 64 147 32 q 170 119 147 96 q 225 143 193 143 q 282 120 258 143 q 306 64 306 96 q 282 8 306 31 q 225 -16 258 -16 q 170 8 193 -16 m 258 293 l 195 249 q 153 291 170 264 q 136 347 136 317 q 172 424 136 380 q 229 487 195 453 q 291 547 264 521 q 344 604 318 572 q 385 674 370 635 q 399 757 399 712 q 356 866 399 814 q 262 918 313 918 q 184 890 219 918 q 150 818 150 863 q 195 733 150 768 l 102 677 q 62 774 62 713 q 104 873 62 828 q 203 940 145 918 q 318 962 261 962 q 448 913 398 962 q 497 785 497 865 q 456 661 497 731 q 407 598 438 631 q 345 539 375 566 q 285 486 314 513 q 239 431 256 458 q 221 380 221 404 q 258 309 221 337 l 258 293 z "},"@":{"ha":961,"x_min":24,"x_max":938,"o":"m 606 192 l 606 415 q 587 484 606 467 q 514 515 553 515 q 408 478 452 515 q 367 415 385 458 q 349 306 349 372 q 380 189 346 235 q 489 149 411 149 q 606 192 540 149 m 629 515 l 688 546 l 693 541 q 688 323 688 469 q 688 267 688 305 q 689 210 689 228 q 729 146 689 146 q 785 166 760 146 q 823 218 809 186 q 845 282 837 250 q 854 346 852 314 q 848 446 859 398 q 815 533 838 494 q 762 606 793 572 q 690 662 730 640 q 605 698 650 684 q 511 714 560 713 q 412 707 463 715 q 211 610 302 686 q 125 432 149 535 q 123 225 101 328 q 212 50 146 121 q 444 -50 310 -41 l 464 -71 l 404 -129 q 216 -62 300 -121 q 82 82 131 -3 q 28 302 24 186 q 93 515 33 417 q 248 687 151 611 q 453 785 345 764 q 574 789 514 798 q 690 759 635 781 q 791 699 745 738 q 871 613 838 660 q 921 507 905 566 q 933 385 938 447 q 835 170 924 258 q 756 113 809 140 q 669 85 704 85 q 608 142 618 85 l 591 146 q 412 85 483 85 q 336 102 369 85 q 285 148 303 119 q 259 209 267 176 q 250 277 250 241 q 266 378 250 330 q 312 464 281 425 q 394 526 342 503 q 511 549 445 549 q 629 515 578 549 z "},"A":{"ha":918,"x_min":-62,"x_max":935,"o":"m 647 106 l 572 367 q 565 375 570 371 q 557 379 560 379 l 244 379 q 231 368 236 379 l 68 24 l -58 -3 l -62 11 q 408 861 210 469 q 410 871 410 865 q 406 880 410 875 q 393 886 401 884 l 268 907 l 268 945 l 538 945 q 667 440 558 832 q 701 320 687 366 q 738 211 714 273 q 785 110 762 149 q 873 68 810 68 q 933 72 874 68 l 935 36 l 790 -5 q 728 -14 758 -14 q 699 -4 711 -14 q 676 24 686 5 q 661 60 667 44 q 647 106 655 77 m 433 794 l 272 456 q 271 443 271 453 q 274 437 271 440 q 281 433 277 433 l 542 433 q 551 443 551 433 q 549 456 549 454 l 452 794 q 441 800 449 800 q 436 798 439 800 q 433 794 433 795 z "},"B":{"ha":785,"x_min":-14,"x_max":714,"o":"m 215 450 l 215 92 q 233 61 215 67 q 319 54 250 54 q 421 68 374 54 q 506 110 469 83 q 566 184 544 138 q 587 289 587 230 q 570 372 587 337 q 527 428 553 408 q 461 460 500 448 q 385 477 422 473 q 301 481 347 481 q 226 477 237 481 q 215 469 218 475 l 215 450 m 215 571 l 215 543 q 228 531 217 534 q 262 529 238 529 q 368 542 319 529 q 456 581 417 555 q 518 652 496 608 q 541 757 541 697 q 523 828 541 799 q 472 872 505 857 q 402 894 439 888 q 317 900 365 900 q 309 900 315 900 q 215 873 222 901 l 215 571 m 446 525 l 444 514 q 653 439 593 494 q 714 279 714 385 q 692 169 714 218 q 633 88 669 119 q 548 36 597 57 q 449 7 499 16 q 346 -1 399 -1 q 302 -1 327 -1 q 251 -1 277 -1 q 200 0 226 -1 q 151 0 174 0 q 110 1 127 1 q 81 1 92 1 l 71 1 l 69 16 q 85 36 77 26 q 96 51 94 46 q 100 70 98 56 q 102 113 102 83 l 102 848 q 99 867 102 859 q 87 881 96 875 q 73 892 79 888 q 53 901 67 896 q 32 908 38 906 q 8 914 26 909 q -14 920 -9 919 l -12 943 l -3 953 l 340 953 q 659 768 659 953 q 647 696 659 729 q 616 638 635 663 q 569 592 598 614 q 512 555 540 570 q 446 525 484 541 z "},"C":{"ha":851,"x_min":37,"x_max":850,"o":"m 771 733 l 751 734 q 503 914 683 914 q 370 889 429 914 q 273 822 311 863 q 209 723 235 780 q 172 605 183 665 q 161 478 161 544 q 198 299 161 390 q 273 168 234 208 q 389 79 336 106 q 522 53 441 53 q 782 146 645 53 l 806 106 q 473 -21 619 -21 q 171 82 274 -21 q 37 453 37 216 q 164 819 37 692 q 339 932 239 894 q 550 971 439 971 q 850 814 754 971 l 771 733 z "},"D":{"ha":1010,"x_min":1,"x_max":956,"o":"m 225 799 l 225 236 q 250 74 229 96 q 359 56 269 56 q 551 82 468 56 q 686 153 635 109 q 769 258 736 196 q 813 385 801 321 q 825 524 825 449 q 801 684 825 600 q 724 821 777 768 q 585 881 677 866 q 336 896 492 896 q 244 890 255 896 q 238 888 243 890 q 233 886 234 887 q 230 879 232 884 q 227 865 227 874 q 226 839 227 855 q 225 799 225 823 m 78 3 l 78 17 q 102 49 98 32 q 109 110 107 66 l 109 796 q 106 861 109 819 q 98 879 105 871 q 78 892 91 887 q 54 901 64 898 q 25 909 43 905 q 1 916 8 913 l 1 942 l 11 953 l 446 953 q 609 942 536 953 q 735 913 682 932 q 827 865 788 895 q 890 803 866 836 q 930 725 915 769 q 950 635 945 680 q 956 534 956 590 q 926 303 956 397 q 818 126 896 210 q 399 3 705 3 l 78 3 z "},"E":{"ha":729,"x_min":8,"x_max":721,"o":"m 578 467 q 414 475 469 475 q 387 475 404 475 q 358 475 370 475 q 332 475 347 475 q 306 474 316 475 q 283 473 295 474 q 263 471 271 473 q 248 467 255 469 q 238 462 241 465 q 235 454 235 458 l 235 261 q 256 106 235 143 q 298 70 271 79 q 389 61 325 61 q 714 81 486 61 l 721 74 l 703 0 l 164 0 q 127 92 127 20 l 127 775 q 115 864 127 836 q 9 908 102 895 l 8 936 l 18 946 l 224 947 q 398 951 277 947 q 559 956 519 955 q 624 954 606 956 l 621 885 l 615 875 q 325 889 364 889 l 269 889 q 236 783 236 882 l 236 553 q 237 546 236 549 q 242 541 239 543 q 248 537 245 538 q 257 535 252 536 q 268 533 263 534 q 281 533 273 533 q 295 533 290 533 q 311 533 301 533 q 328 533 321 533 q 578 543 439 533 l 586 533 l 578 467 z "},"F":{"ha":573,"x_min":-16,"x_max":579,"o":"m 104 500 l 107 724 q 107 751 107 730 q 107 782 108 771 q 106 812 107 793 q 103 843 106 831 q 95 868 100 855 q 81 888 90 881 q 61 899 73 896 l -16 917 l -16 946 l -5 956 q 579 958 477 956 l 579 885 l 568 873 q 430 888 534 876 q 268 901 325 901 q 224 869 233 901 q 219 842 220 857 q 215 754 217 827 q 214 543 214 681 q 219 531 214 537 q 232 525 224 525 q 410 533 291 525 q 558 542 529 541 l 557 473 l 550 467 q 232 473 429 473 q 220 469 226 473 q 215 458 215 465 q 222 18 215 212 l 94 -3 q 104 500 104 313 z "},"G":{"ha":935,"x_min":66,"x_max":880,"o":"m 464 411 l 847 427 q 854 46 854 79 q 481 -24 587 -24 q 325 4 399 -24 q 196 87 251 33 q 98 249 129 155 q 66 450 66 344 q 195 823 66 695 q 372 935 270 899 q 590 971 475 971 q 754 934 683 971 q 880 814 826 897 l 800 734 l 783 736 q 676 864 739 825 q 528 903 614 903 q 393 878 452 903 q 297 812 334 853 q 236 714 260 771 q 202 598 212 657 q 192 472 192 538 q 205 350 192 410 q 250 236 219 291 q 324 139 280 180 q 434 74 368 98 q 578 49 499 49 q 708 62 647 49 q 725 73 718 64 q 733 98 731 81 q 736 125 736 115 q 736 159 737 136 q 736 186 736 182 q 736 208 736 189 q 738 241 737 226 q 736 279 738 257 q 731 316 734 300 q 719 342 727 331 q 697 355 710 354 q 472 368 607 363 l 464 375 l 464 411 z "},"H":{"ha":965,"x_min":3,"x_max":964,"o":"m 964 20 l 956 0 l 749 0 l 733 29 q 741 464 741 400 q 736 475 741 470 q 724 481 732 481 l 248 481 q 235 476 240 481 q 229 464 229 471 q 229 360 229 434 q 228 248 228 287 q 236 36 228 105 l 109 -3 l 100 4 q 114 510 114 169 q 106 856 114 741 q 102 873 105 867 q 91 885 100 880 q 74 893 82 890 q 44 903 66 896 q 4 916 22 909 l 3 942 l 12 951 l 237 951 l 244 945 q 227 551 227 846 q 243 534 227 534 l 724 534 q 741 551 741 534 q 738 743 741 611 q 736 935 736 875 l 859 958 l 865 950 q 850 447 850 735 q 856 110 850 279 q 871 79 856 92 q 906 58 886 65 q 942 48 926 52 q 962 45 957 45 l 964 20 z "},"I":{"ha":429,"x_min":46,"x_max":421,"o":"m 418 -1 l 50 -1 l 50 35 q 90 43 75 39 q 120 52 106 46 q 142 60 134 57 q 156 71 149 62 q 165 84 163 79 q 170 102 168 88 q 172 123 172 115 q 172 152 172 131 q 174 186 173 172 l 174 690 q 170 850 174 797 q 168 862 169 857 q 165 871 168 867 q 161 878 163 876 q 154 883 159 880 q 143 888 148 886 q 127 892 138 889 q 106 897 116 895 q 79 902 97 899 q 46 909 62 906 l 46 940 l 56 949 l 403 949 l 411 940 l 411 911 l 318 890 q 288 854 290 884 q 281 759 282 818 q 282 612 280 699 q 283 498 283 525 q 286 235 283 404 q 286 195 286 224 q 286 149 285 167 q 290 109 286 132 q 304 74 294 87 q 330 56 314 60 q 421 32 415 32 l 418 -1 z "},"J":{"ha":359,"x_min":-62,"x_max":355,"o":"m 229 844 l 229 126 q 163 -144 229 -35 q -43 -325 97 -253 l -62 -300 q 11 -242 -18 -272 q 64 -164 40 -212 q 100 -42 89 -115 q 111 134 111 31 l 111 844 q 106 877 111 860 q 89 896 100 893 l -11 921 l -11 950 l -1 958 l 346 958 l 355 950 l 353 917 l 258 897 q 238 879 246 895 q 229 844 229 863 z "},"K":{"ha":821,"x_min":12,"x_max":822,"o":"m 252 443 l 239 441 q 248 35 239 181 l 135 -5 l 123 1 l 123 205 l 123 827 q 117 869 123 852 q 66 900 109 885 q 12 916 24 916 l 16 939 l 26 949 l 245 949 l 256 939 q 239 806 244 904 q 235 497 235 708 l 245 496 l 644 949 l 770 949 l 768 936 l 364 528 q 353 513 353 516 q 359 500 353 507 q 822 49 719 140 l 821 33 l 703 -9 q 449 247 617 82 q 252 443 281 412 z "},"L":{"ha":654,"x_min":22,"x_max":694,"o":"m 694 66 l 675 -7 q 102 3 572 3 l 102 22 q 132 199 132 64 l 132 863 q 125 892 132 879 q 103 908 118 905 q 71 915 91 910 q 37 922 51 919 q 22 925 23 925 l 24 949 l 33 958 l 363 958 l 371 950 l 371 921 q 281 901 366 921 q 256 867 258 898 q 248 546 248 714 q 257 78 248 340 q 264 66 258 72 q 275 60 270 60 q 440 65 340 60 q 607 75 540 70 q 681 81 674 79 l 694 66 z "},"M":{"ha":1337,"x_min":54,"x_max":1348,"o":"m 1055 958 l 1198 958 l 1198 942 q 1174 913 1182 933 q 1165 875 1166 892 q 1164 821 1164 858 q 1164 810 1164 814 q 1168 446 1164 597 q 1189 142 1173 296 q 1214 87 1192 110 q 1270 64 1236 64 q 1348 72 1272 64 l 1348 39 q 1158 -8 1220 -8 q 1097 3 1122 -8 q 1071 40 1071 15 l 1071 293 q 1057 761 1071 303 q 1054 775 1057 769 q 1046 782 1050 782 q 1031 771 1038 782 l 633 1 l 591 1 q 538 128 579 31 q 479 270 498 226 q 425 398 461 314 q 367 534 389 483 q 317 645 345 585 q 269 747 290 705 q 254 761 261 761 q 231 670 244 761 q 203 437 217 579 q 182 204 190 296 q 168 32 174 113 l 64 -4 l 54 0 q 193 821 146 472 q 195 838 195 826 q 184 872 195 857 q 155 892 174 887 l 61 918 l 64 949 l 74 958 l 318 958 q 414 712 354 854 q 518 472 474 569 q 640 211 563 375 q 656 192 650 192 q 665 196 660 192 q 672 204 670 200 l 1055 958 z "},"N":{"ha":1034,"x_min":25,"x_max":943,"o":"m 935 964 l 943 953 q 922 0 922 591 l 872 0 q 779 111 822 56 l 558 386 q 233 771 420 556 q 218 783 224 783 q 208 760 208 783 q 241 35 208 549 l 144 -7 l 132 5 q 150 665 150 363 q 149 755 150 695 q 149 844 149 814 q 149 853 149 847 q 149 861 149 859 q 147 867 149 863 q 143 874 146 872 q 134 880 140 876 q 120 886 128 884 q 99 893 111 888 q 70 901 86 897 q 31 911 53 905 l 25 949 l 36 958 l 261 958 q 464 691 395 782 q 645 461 532 601 q 833 240 758 321 q 848 229 844 229 q 857 240 857 229 q 823 942 857 451 l 935 964 z "},"O":{"ha":1047,"x_min":65,"x_max":974,"o":"m 65 441 q 97 673 65 578 q 205 850 129 768 q 363 944 267 916 q 568 972 459 972 q 728 946 652 972 q 857 867 804 920 q 946 708 918 805 q 974 505 974 612 q 972 435 974 462 q 966 368 971 408 q 949 290 962 328 q 917 211 937 251 q 740 41 866 106 q 453 -25 614 -25 q 303 2 370 -25 q 193 73 237 28 q 120 178 149 117 q 78 305 90 239 q 65 441 65 370 m 195 484 q 219 291 195 376 q 304 139 243 205 q 526 32 401 32 q 648 57 593 32 q 738 125 702 83 q 798 224 773 167 q 832 341 822 281 q 843 467 843 402 q 832 589 843 528 q 798 710 822 650 q 738 815 773 770 q 647 889 702 861 q 524 917 591 917 q 397 892 454 917 q 304 825 341 867 q 241 727 267 783 q 205 610 216 671 q 195 484 195 549 z "},"P":{"ha":720,"x_min":14,"x_max":701,"o":"m 328 889 l 250 889 q 237 873 237 889 q 229 473 229 690 q 234 461 229 465 q 244 457 239 457 q 479 523 391 457 q 568 703 568 589 q 549 792 568 755 q 495 850 530 830 q 419 880 460 871 q 328 889 378 889 m 239 31 l 123 -8 l 114 1 q 119 261 115 49 q 123 587 123 473 q 117 833 123 696 q 87 887 114 871 q 14 908 61 902 l 14 933 l 24 943 l 380 943 q 624 885 547 943 q 701 714 701 827 q 612 497 701 586 q 359 407 537 420 q 331 406 352 406 q 296 404 310 405 q 264 400 281 403 q 238 393 248 398 q 229 380 229 388 q 234 242 229 372 q 239 31 238 112 z "},"Q":{"ha":1017,"x_min":37,"x_max":993,"o":"m 983 -241 l 993 -269 q 778 -326 854 -326 q 712 -316 744 -326 q 653 -291 680 -306 q 598 -250 627 -277 q 550 -201 570 -224 q 505 -143 530 -179 q 465 -84 480 -108 q 427 -22 450 -60 q 275 2 347 -22 q 155 79 203 26 q 67 232 98 144 q 37 416 37 321 q 70 666 37 564 q 178 846 102 768 q 536 970 298 970 q 832 864 726 970 q 920 706 892 804 q 947 509 947 608 q 942 378 947 415 q 921 292 937 340 q 905 247 910 260 q 888 209 900 233 q 862 164 877 184 q 827 121 848 144 q 579 -9 743 30 l 574 -24 q 660 -170 635 -138 q 684 -197 670 -184 q 722 -227 698 -210 q 783 -253 746 -243 q 863 -262 819 -262 q 983 -241 901 -262 m 488 31 q 621 58 562 31 q 715 129 679 85 q 774 231 751 172 q 806 349 798 290 q 815 469 815 407 q 795 632 815 553 q 738 774 775 710 q 639 878 701 839 q 503 917 578 917 q 366 889 426 917 q 269 817 306 861 q 209 711 233 772 q 176 590 185 650 q 167 464 167 530 q 285 127 167 249 q 380 57 326 84 q 488 31 434 31 z "},"R":{"ha":736,"x_min":16,"x_max":749,"o":"m 236 514 q 249 493 236 493 q 360 507 308 493 q 456 547 413 520 q 524 621 498 574 q 549 726 549 667 q 535 794 549 765 q 498 842 521 824 q 445 870 476 859 q 383 885 414 881 q 317 889 352 889 l 261 889 q 244 852 246 889 q 236 514 236 586 m 386 460 l 383 449 l 749 37 l 749 25 l 611 -11 q 265 421 308 378 q 237 433 253 433 q 244 32 237 165 l 129 -8 l 114 4 q 126 610 126 231 q 124 707 126 613 q 122 848 122 802 q 97 884 122 869 q 49 905 72 899 q 16 911 26 911 l 17 935 l 25 943 l 403 943 q 609 893 533 943 q 685 749 685 843 q 662 625 685 678 q 597 538 639 572 q 503 486 555 505 q 386 460 451 467 z "},"S":{"ha":654,"x_min":-21,"x_max":587,"o":"m 583 842 l 496 764 l 478 768 q 309 924 438 924 q 198 876 243 924 q 154 760 154 828 q 171 687 154 721 q 221 626 189 653 q 287 580 253 600 q 367 541 321 561 q 533 432 479 492 q 587 290 587 372 q 553 165 587 224 q 464 66 518 106 q 342 2 409 26 q 208 -21 275 -21 q 68 14 131 -21 q -21 121 6 49 l 58 212 l 82 211 q 267 43 133 43 q 407 102 349 43 q 465 248 465 161 q 415 355 465 302 q 297 436 365 407 q 185 491 230 465 q 107 549 141 517 q 58 622 74 582 q 43 711 43 661 q 67 826 43 774 q 134 909 92 877 q 228 958 175 941 q 338 975 280 975 q 411 970 380 975 q 475 952 443 966 q 534 911 507 939 q 583 842 561 884 z "},"T":{"ha":748,"x_min":-5,"x_max":754,"o":"m 754 957 l 754 890 l 743 880 q 605 887 667 884 q 519 892 544 890 q 478 894 495 893 q 452 895 462 895 q 441 879 445 895 q 436 821 437 863 q 434 746 434 779 q 433 639 433 713 q 433 608 433 618 q 452 24 433 348 l 313 -14 l 300 -1 q 318 528 318 296 q 315 884 318 801 q 302 892 315 892 q 5 882 294 892 l -5 892 l -5 958 l 4 968 q 134 960 31 967 q 382 953 237 953 q 746 966 441 953 l 754 957 z "},"U":{"ha":966,"x_min":-22,"x_max":966,"o":"m 222 753 l 211 374 q 456 72 211 72 q 700 154 562 72 q 705 916 700 410 l 828 964 l 836 954 q 814 281 814 786 q 814 238 814 252 q 815 200 814 224 q 818 162 816 175 q 822 132 819 150 q 830 104 825 113 q 842 84 835 94 q 858 71 848 75 q 880 66 868 66 q 923 72 896 66 q 961 78 951 77 l 966 54 l 960 45 q 747 -7 797 -7 q 728 -4 736 -7 q 714 5 720 -1 q 706 17 709 12 q 702 34 703 22 q 701 52 701 46 q 701 71 701 57 q 701 89 701 85 l 690 97 q 367 -12 521 -12 q 268 0 311 -12 q 198 30 224 12 q 153 75 172 48 q 126 125 134 102 q 111 176 117 148 q 100 428 100 254 q 101 590 100 481 q 103 753 103 699 l 103 835 q 87 869 103 854 q 49 892 71 884 q 8 903 26 899 q -20 907 -10 907 l -22 935 l -11 945 l 224 945 l 233 936 q 227 848 231 922 q 222 753 222 774 z "},"V":{"ha":922,"x_min":-22,"x_max":958,"o":"m 831 945 l 950 968 l 958 942 q 765 650 878 844 q 485 14 598 341 l 390 -22 l 376 -12 l 178 657 q 163 704 173 672 q 146 753 153 735 q 131 798 140 772 q 111 846 121 824 q 70 889 96 878 q -21 909 43 901 l -22 947 l -12 956 l 231 970 q 460 192 312 572 q 471 182 463 186 q 554 346 479 184 q 559 357 557 353 q 564 368 561 361 q 570 380 567 375 l 734 761 q 831 945 762 827 z "},"W":{"ha":1312,"x_min":-57,"x_max":1397,"o":"m 1284 937 l 1397 957 l 1397 928 l 1238 667 q 1085 378 1185 579 q 921 22 985 177 l 838 -16 l 821 -4 q 669 745 758 349 q 660 761 666 761 q 647 745 654 761 l 608 657 q 519 457 550 527 q 437 256 489 388 q 355 25 385 124 l 267 -16 l 252 -8 q 143 521 199 282 q 46 852 88 744 q 11 890 36 878 q -54 909 -14 902 l -57 943 l -46 953 l 171 957 q 328 227 204 779 q 338 218 329 218 q 347 224 345 218 q 504 563 399 327 q 652 918 609 799 l 757 958 l 766 950 q 852 452 766 861 q 870 359 854 441 q 898 235 886 277 q 921 193 909 193 q 939 203 932 193 l 1050 439 l 1202 775 q 1284 937 1222 819 z "},"X":{"ha":827,"x_min":-16,"x_max":831,"o":"m 825 933 l 566 647 q 472 528 488 555 q 562 371 473 513 q 689 182 650 229 l 772 82 q 798 63 780 75 q 823 50 815 52 l 831 45 l 831 22 l 677 -16 l 659 -7 q 595 79 628 23 l 396 411 l 379 411 q 238 218 326 348 q 115 16 150 88 l -16 0 l -16 22 l 361 479 q 160 819 354 479 q 136 850 150 837 q 98 873 123 863 q 65 887 74 884 q 22 899 56 890 q 14 901 16 901 l 14 936 l 24 945 q 227 956 115 948 l 431 586 l 443 586 q 579 765 475 618 q 693 936 683 912 l 825 954 l 825 933 z "},"Y":{"ha":722,"x_min":-32,"x_max":790,"o":"m 294 415 l 87 825 q 40 883 65 869 q -32 904 16 897 l -32 943 l -22 953 l 179 953 l 375 501 q 392 490 380 490 q 428 537 397 490 q 489 639 459 584 q 568 775 503 663 q 667 939 634 887 l 785 962 l 790 937 q 511 563 585 668 q 418 425 463 495 l 431 25 l 306 -16 l 290 -3 q 294 415 294 136 z "},"Z":{"ha":821,"x_min":-5,"x_max":819,"o":"m 757 922 q 203 85 581 671 l 211 94 l 807 94 l 819 82 l 794 -17 q -4 0 615 0 l -5 29 l 583 871 l 574 885 q 135 872 253 885 l 126 879 l 126 954 l 139 965 q 757 949 413 949 l 757 922 z "},"[":{"ha":386,"x_min":167,"x_max":387,"o":"m 387 989 l 222 971 l 222 -115 l 387 -134 l 387 -167 q 167 -174 239 -167 l 167 1029 q 387 1022 227 1022 l 387 989 z "},"\\":{"ha":697,"x_min":54,"x_max":643,"o":"m 595 -267 l 54 978 l 61 993 l 104 1003 l 643 -237 l 639 -256 l 595 -267 z "},"]":{"ha":386,"x_min":-1,"x_max":220,"o":"m 164 971 l -1 989 l -1 1022 q 220 1029 160 1022 l 220 -174 q -1 -167 148 -167 l -1 -134 l 164 -115 l 164 971 z "},"^":{"ha":694,"x_min":143,"x_max":595,"o":"m 376 933 l 595 711 l 541 675 l 372 847 l 175 665 l 143 682 l 376 933 z "},"_":{"ha":1050,"x_min":0,"x_max":1050,"o":"m 1050 -158 l 0 -158 l 0 -103 l 1050 -103 l 1050 -158 z "},"`":{"ha":722,"x_min":153,"x_max":403,"o":"m 378 676 l 403 720 l 237 937 l 218 940 l 153 890 l 378 676 z "},"a":{"ha":749,"x_min":66,"x_max":772,"o":"m 546 599 l 619 642 l 627 635 q 618 332 618 469 q 617 291 618 318 q 615 242 616 263 q 615 194 615 221 q 619 146 616 166 q 628 109 623 127 q 645 81 634 91 q 672 72 656 72 q 762 97 695 72 l 772 64 q 753 53 768 62 q 733 40 739 43 q 713 28 727 37 q 691 16 699 20 q 671 6 684 12 q 650 -4 659 -1 q 631 -11 642 -7 q 613 -16 621 -14 q 597 -17 605 -17 q 543 4 562 -17 q 518 65 525 26 l 497 71 q 271 -17 365 -17 q 174 8 216 -17 q 111 74 133 33 q 77 161 88 115 q 66 257 66 207 q 78 373 66 317 q 115 479 90 429 q 179 566 141 529 q 273 625 216 604 q 397 647 329 647 q 473 634 433 647 q 546 599 513 622 m 515 138 l 515 457 q 515 494 515 481 q 509 524 514 507 q 493 553 503 542 q 399 599 449 599 q 267 546 321 599 q 216 456 238 518 q 192 298 194 394 q 231 132 189 195 q 368 75 267 75 q 515 138 435 75 z "},"b":{"ha":705,"x_min":-39,"x_max":650,"o":"m -39 918 l -31 925 l 204 950 l 212 940 q 193 600 193 741 q 193 554 193 600 l 205 547 q 329 623 269 595 q 454 650 389 650 q 598 585 547 650 q 650 428 650 521 q 624 245 650 323 q 480 61 587 135 q 254 -14 374 -14 q 210 -9 231 -14 q 167 7 189 -5 q 129 39 144 20 q 102 93 113 59 q 92 171 92 127 l 92 832 q 91 848 92 842 q 88 859 90 854 q 81 867 87 864 q 71 872 76 869 q 55 876 66 874 q 32 879 43 878 q 1 884 22 881 q -39 889 -20 886 l -39 918 m 199 482 q 193 318 193 387 q 196 230 193 266 q 206 158 198 194 q 229 100 214 121 q 269 66 244 79 q 330 53 294 53 q 424 76 383 53 q 488 137 465 98 q 523 220 511 175 q 534 315 534 265 q 493 504 534 443 q 389 564 454 564 q 199 482 292 564 z "},"c":{"ha":570,"x_min":12,"x_max":564,"o":"m 549 158 l 564 134 q 413 17 488 60 q 253 -26 338 -26 q 169 -15 206 -26 q 106 14 131 -4 q 63 60 81 32 q 36 114 45 87 q 20 176 26 140 q 14 239 15 212 q 12 301 12 266 q 111 559 12 458 q 364 660 210 660 q 475 622 431 660 q 525 524 519 584 l 450 450 l 427 458 q 386 567 418 528 q 309 606 354 606 q 210 565 252 606 q 148 467 168 525 q 127 345 127 408 q 132 269 127 305 q 150 195 136 233 q 184 129 163 157 q 241 83 205 101 q 323 65 277 65 q 536 161 425 65 l 549 158 z "},"d":{"ha":719,"x_min":64,"x_max":774,"o":"m 380 917 l 387 922 l 614 950 l 625 937 l 625 153 q 639 91 628 115 q 677 66 650 66 q 762 93 694 66 l 774 61 q 712 20 732 33 q 656 -10 692 7 q 595 -26 620 -26 q 536 4 557 -26 q 513 75 515 34 q 271 -25 368 -25 q 172 0 214 -25 q 107 67 130 25 q 74 155 85 109 q 64 250 64 201 q 76 366 64 310 q 115 472 89 422 q 180 560 142 522 q 273 620 218 597 q 393 642 328 642 q 509 621 444 642 l 518 627 q 518 672 518 642 q 517 723 517 703 q 516 767 517 743 q 513 809 515 791 q 509 836 511 826 q 490 864 503 853 q 455 880 476 876 q 420 885 435 884 q 382 886 405 886 l 380 917 m 513 132 l 518 431 q 516 477 518 456 q 505 521 513 498 q 483 559 497 544 q 445 585 469 574 q 387 595 420 595 q 318 581 350 595 q 266 543 287 567 q 228 488 244 518 q 202 421 212 457 q 189 351 193 385 q 184 282 184 317 q 193 207 184 243 q 219 138 201 171 q 271 86 237 106 q 349 66 304 66 q 436 86 387 66 q 513 132 486 105 z "},"e":{"ha":602,"x_min":47,"x_max":595,"o":"m 227 550 q 176 465 189 510 q 163 361 163 419 q 165 336 163 353 l 171 330 l 452 441 q 469 478 469 448 q 434 567 469 526 q 343 608 398 608 q 227 550 274 608 m 559 443 l 168 273 q 183 205 172 238 q 214 143 194 173 q 269 96 235 113 q 347 78 303 78 q 561 172 440 78 l 576 170 l 595 144 q 278 -17 422 -17 q 183 3 224 -17 q 117 54 142 22 q 76 130 92 85 q 54 219 60 175 q 47 314 47 263 q 118 539 47 458 q 241 631 169 599 q 392 664 313 664 q 534 609 480 664 q 589 472 589 554 q 584 458 589 464 q 575 450 579 452 q 559 443 570 448 z "},"f":{"ha":408,"x_min":-35,"x_max":501,"o":"m -20 603 l 126 603 l 135 611 q 160 781 135 724 q 248 890 191 852 q 372 929 305 929 q 501 854 465 929 l 421 779 l 404 785 q 400 806 401 798 q 392 828 398 813 q 378 851 386 843 q 356 866 371 859 q 323 873 342 873 q 261 800 281 873 q 240 611 240 726 l 245 603 l 418 603 l 425 593 l 415 562 l 406 554 l 245 554 l 237 546 l 237 392 q 252 17 237 186 l 142 -17 l 118 -1 q 136 393 136 264 l 136 543 l 127 554 l -28 554 l -35 564 l -29 595 l -20 603 z "},"g":{"ha":692,"x_min":62,"x_max":633,"o":"m 501 72 q 424 29 450 43 q 351 0 398 15 q 264 -16 304 -16 q 119 60 176 -16 q 62 256 62 136 q 153 541 62 436 q 380 646 243 646 q 543 599 481 646 l 614 639 l 633 631 q 621 114 621 391 q 590 -119 621 -31 q 489 -249 563 -193 q 264 -323 392 -323 q 72 -245 155 -323 l 140 -160 l 160 -160 q 221 -233 180 -200 q 298 -267 262 -267 q 393 -241 352 -267 q 459 -169 434 -215 q 498 -65 485 -123 q 514 62 512 -7 l 501 72 m 514 138 l 514 504 q 475 574 511 550 q 390 599 438 599 q 306 577 343 599 q 245 524 268 556 q 208 447 223 491 q 188 363 193 404 q 182 282 182 323 q 233 133 182 194 q 340 72 284 72 q 434 93 384 72 q 514 138 485 115 z "},"h":{"ha":751,"x_min":-32,"x_max":815,"o":"m 798 149 l 815 135 l 815 119 q 706 22 758 58 q 597 -14 654 -14 q 529 27 552 -14 q 505 123 505 67 q 508 256 505 164 q 511 370 511 348 q 509 430 511 404 q 499 482 507 456 q 479 524 492 508 q 444 551 466 541 q 392 561 422 561 q 295 538 341 561 q 195 478 248 516 q 193 249 195 401 q 192 22 192 97 l 92 -8 l 83 5 q 103 555 102 356 q 103 622 103 578 q 104 686 104 665 q 103 738 104 706 q 99 788 102 770 q 90 825 96 806 q 75 856 84 844 q 70 861 73 859 q 61 866 66 864 q 51 871 56 869 q 38 875 45 873 q 24 879 30 878 q 9 883 19 880 q -5 886 0 885 q -19 889 -9 887 q -32 892 -28 891 l -32 917 l -25 922 l 195 946 l 203 936 q 197 553 197 818 l 208 542 q 296 593 260 574 q 386 629 332 612 q 488 647 440 647 q 532 636 505 647 q 578 608 559 626 q 593 589 587 600 q 603 561 599 578 q 608 530 606 545 q 611 492 610 516 q 612 452 612 468 q 611 407 612 437 q 611 361 611 377 l 611 258 q 610 232 611 252 q 610 199 610 211 q 612 167 610 187 q 617 135 613 147 q 628 111 621 123 q 646 92 634 98 q 672 86 657 86 q 798 149 732 86 z "},"i":{"ha":358,"x_min":-64,"x_max":412,"o":"m 216 545 l 205 253 q 219 130 205 170 q 267 90 232 90 q 332 106 302 90 q 395 153 361 122 l 412 139 l 412 123 q 216 -11 310 -11 q 173 -6 191 -11 q 139 15 156 -1 q 114 62 123 30 q 106 144 106 95 l 114 452 q 65 570 114 570 q -46 525 24 570 l -64 550 q 131 654 66 654 q 196 624 175 654 q 216 545 216 594 m 236 868 q 210 812 234 833 q 153 790 186 790 q 96 813 119 790 q 72 871 72 837 q 100 927 72 905 q 161 949 129 949 q 216 925 195 949 q 236 868 236 901 z "},"j":{"ha":342,"x_min":-75,"x_max":240,"o":"m -36 521 l -54 546 q 142 650 78 650 q 182 642 165 650 q 208 620 199 634 q 220 591 216 606 q 227 557 224 576 q 236 214 236 497 q 220 -57 236 -10 q -53 -321 165 -216 l -75 -298 q 103 -106 73 -210 q 131 214 131 -5 q 131 326 131 279 q 129 411 130 372 q 125 473 127 449 q 119 516 123 498 q 111 544 115 534 q 100 559 107 553 q 86 566 93 564 q 69 567 80 567 q 56 565 64 567 q 40 559 47 562 q 21 550 33 556 q 2 541 9 545 q -18 530 -5 538 q -36 521 -32 523 m 160 949 q 216 927 192 949 q 240 873 240 906 q 216 811 240 838 q 155 785 191 785 q 100 809 121 785 q 78 868 78 833 q 102 925 78 901 q 160 949 126 949 z "},"k":{"ha":671,"x_min":-12,"x_max":734,"o":"m 231 370 l 416 541 q 528 641 505 621 q 574 673 550 660 l 637 633 l 637 618 q 342 408 486 529 q 317 380 317 387 q 328 358 317 376 q 484 181 405 260 q 600 102 563 102 q 708 155 656 102 l 734 127 q 710 96 720 109 q 680 61 700 83 q 642 25 659 39 q 602 1 625 12 q 558 -9 579 -9 q 506 4 528 -9 q 449 58 484 18 q 227 335 325 225 l 210 325 l 210 18 l 111 -9 l 103 0 q 110 204 105 73 q 117 444 114 336 q 119 650 119 552 q 107 825 119 777 q 73 868 98 856 q -12 886 47 880 l -12 916 l -5 921 l 216 953 l 212 943 l 212 370 l 231 370 z "},"l":{"ha":354,"x_min":-22,"x_max":421,"o":"m 390 155 l 406 155 l 421 139 q 210 -16 322 -16 q 148 -1 172 -16 q 110 59 125 14 q 96 180 96 103 l 106 705 q 98 844 106 808 q 91 860 96 853 q 78 871 86 867 q 61 878 69 875 q 41 882 54 881 q 20 884 28 884 q -2 886 12 885 q -22 886 -17 886 l -22 918 l -14 925 l 215 953 l 224 943 q 213 681 222 889 q 204 359 204 472 q 204 314 204 341 q 203 270 203 288 q 203 230 203 253 q 204 192 203 207 q 209 160 206 177 q 216 132 211 142 q 229 111 221 121 q 247 96 236 101 q 271 90 257 91 q 316 102 292 90 q 353 124 339 113 q 390 155 366 134 z "},"m":{"ha":1147,"x_min":-31,"x_max":1210,"o":"m 515 -5 q 522 142 515 3 q 529 374 529 281 q 505 511 529 467 q 415 555 480 555 q 346 541 386 555 q 286 515 307 526 q 253 494 266 503 q 245 193 245 312 q 249 20 245 91 l 155 -14 l 136 -3 q 141 183 137 54 q 146 379 146 311 q 137 524 146 490 q 90 572 125 572 q -14 532 57 572 l -31 558 q 160 654 85 652 q 245 551 245 654 l 257 543 q 300 567 267 548 q 350 594 333 586 q 395 615 366 602 q 448 632 423 627 q 496 637 472 637 q 568 618 534 637 q 621 566 601 600 l 643 562 q 783 625 734 610 q 865 639 828 639 q 975 602 938 639 q 988 583 983 593 q 997 558 994 573 q 1001 529 1000 543 q 1003 492 1003 515 q 1004 450 1004 468 q 1003 400 1004 433 q 1003 345 1003 367 l 1003 163 q 1074 72 1003 72 q 1181 127 1107 72 l 1200 127 l 1210 98 q 1141 39 1169 62 q 1070 -4 1114 17 q 987 -25 1026 -25 q 918 7 942 -25 q 893 82 893 39 q 897 198 893 83 q 900 374 900 312 q 873 510 900 464 q 782 555 846 555 q 627 509 707 555 q 624 317 624 381 q 632 25 624 168 l 529 -14 l 515 -5 z "},"n":{"ha":818,"x_min":-36,"x_max":868,"o":"m 249 25 l 151 -8 l 131 1 q 143 414 143 319 q 133 534 143 495 q 92 574 123 574 q 60 566 78 574 q 27 550 41 559 q -12 525 13 542 l -36 555 q 29 602 5 585 q 90 636 52 618 q 151 654 127 654 q 222 629 199 654 q 252 559 245 604 l 262 551 q 401 624 338 597 q 525 652 465 652 q 632 611 597 652 q 651 546 645 595 q 659 458 658 496 q 660 355 660 420 q 661 174 660 191 q 688 93 665 109 q 726 83 702 83 q 838 139 765 83 l 856 139 l 868 110 q 756 22 815 58 q 650 -14 696 -14 q 550 109 550 -14 l 557 346 q 529 514 557 458 q 432 570 502 570 q 253 485 359 570 q 244 161 244 269 q 249 25 244 122 z "},"o":{"ha":722,"x_min":45,"x_max":657,"o":"m 175 439 q 164 332 164 393 q 169 256 164 293 q 187 178 174 218 q 220 107 200 137 q 274 57 240 77 q 351 37 308 37 q 428 55 395 37 q 480 98 460 72 q 512 162 500 125 q 529 233 524 199 q 533 306 533 268 q 529 380 533 345 q 514 455 526 415 q 483 524 502 495 q 429 572 463 553 q 350 591 395 591 q 242 552 290 591 q 175 439 193 513 m 314 -20 q 193 5 245 -20 q 111 72 141 29 q 64 164 80 114 q 45 272 49 214 q 60 427 45 359 q 121 543 75 494 q 236 620 168 595 q 382 646 305 646 q 510 619 455 646 q 596 546 566 592 q 642 447 627 500 q 657 332 657 393 q 576 82 657 172 q 461 5 530 30 q 314 -20 393 -20 z "},"p":{"ha":701,"x_min":-79,"x_max":657,"o":"m 214 -286 l 102 -329 l 87 -314 q 96 131 96 -217 l 96 437 q 83 532 96 492 q 41 572 70 572 q -60 532 9 572 l -79 558 q 110 653 39 653 q 175 626 154 653 q 200 549 195 598 l 211 543 q 467 646 340 646 q 541 631 507 646 q 595 594 574 617 q 631 540 616 571 q 651 478 645 509 q 657 414 657 446 q 630 260 657 337 q 557 122 604 184 q 443 23 511 61 q 296 -16 374 -16 q 214 -4 258 -16 l 200 -16 q 214 -286 204 -201 m 203 92 q 325 40 259 40 q 412 58 374 40 q 473 104 450 76 q 513 172 497 133 q 534 250 528 211 q 541 332 541 290 q 501 493 541 426 q 397 559 462 559 q 301 540 347 559 q 204 479 256 520 q 202 417 204 476 q 200 350 200 359 q 200 300 200 327 q 200 249 200 273 q 201 201 201 224 q 202 158 201 177 q 202 123 202 138 q 203 100 203 109 l 203 92 z "},"q":{"ha":734,"x_min":72,"x_max":646,"o":"m 530 -338 l 509 -315 q 512 -224 511 -290 q 516 -66 514 -159 q 519 75 518 26 l 510 82 q 271 -9 388 -9 q 178 16 218 -9 q 116 81 138 41 q 83 167 94 122 q 72 258 72 212 q 84 374 72 318 q 122 481 96 430 q 186 571 149 532 q 281 632 224 609 q 406 654 338 654 q 543 615 466 654 l 555 618 l 616 700 l 646 694 q 627 157 627 469 q 643 -297 627 -112 l 530 -338 m 519 146 l 519 460 q 519 497 519 484 q 513 529 518 511 q 497 558 507 548 q 404 603 452 603 q 323 586 359 603 q 265 540 288 568 q 227 471 242 511 q 206 388 212 431 q 200 296 200 345 q 209 213 200 251 q 236 143 218 174 q 286 94 254 112 q 358 77 317 77 q 440 96 397 77 q 519 146 484 115 z "},"r":{"ha":458,"x_min":-61,"x_max":503,"o":"m 428 471 l 411 478 q 387 535 405 512 q 338 558 370 558 q 272 532 299 558 q 231 472 245 507 q 219 415 222 451 q 219 313 217 378 q 221 236 221 248 q 225 25 221 131 l 127 -4 l 107 8 q 123 338 123 202 q 123 356 123 344 q 123 396 123 382 q 123 433 123 409 q 120 471 122 457 q 116 503 119 484 q 109 532 114 522 q 98 553 104 542 q 83 568 92 564 q 64 572 75 572 q -45 529 32 572 l -61 553 q 2 602 -19 586 q 61 637 23 617 q 126 657 100 657 q 227 557 212 657 l 240 551 q 393 648 340 648 q 503 539 492 648 l 428 471 z "},"s":{"ha":521,"x_min":-1,"x_max":464,"o":"m 449 532 l 372 481 l 355 490 q 265 599 348 599 q 184 567 216 599 q 151 486 151 534 q 188 416 151 446 q 304 353 224 387 q 425 279 386 317 q 464 192 464 240 q 440 99 464 141 q 379 31 417 57 q 295 -9 341 5 q 203 -24 250 -24 q -1 92 60 -24 l 66 191 l 86 189 q 135 76 90 123 q 244 29 180 29 q 326 61 289 29 q 363 135 363 93 q 351 181 363 160 q 318 219 340 203 q 275 247 296 236 q 225 271 254 258 q 160 301 189 286 q 106 338 132 317 q 66 388 80 360 q 52 449 52 416 q 88 555 52 509 q 178 624 124 602 q 292 647 233 647 q 400 618 353 647 q 449 532 446 590 z "},"t":{"ha":440,"x_min":-28,"x_max":503,"o":"m 140 808 l 257 848 l 267 842 q 252 611 253 681 l 260 604 l 437 604 l 444 599 l 433 562 l 425 555 l 260 555 l 252 547 l 252 285 q 255 210 252 242 q 268 145 258 178 q 298 94 277 112 q 350 77 319 77 q 476 134 387 77 l 493 131 l 503 110 q 275 -12 372 -12 q 175 31 208 -12 q 148 99 153 58 q 143 282 143 140 l 143 546 l 135 555 l -21 555 l -28 562 l -18 596 l -9 604 l 135 604 l 143 612 q 140 808 143 772 z "},"u":{"ha":734,"x_min":-89,"x_max":822,"o":"m 807 146 l 822 119 q 749 58 779 82 q 675 12 719 35 q 599 -11 631 -11 q 503 89 512 -11 l 492 90 q 231 -14 321 -14 q 158 1 188 -14 q 113 42 127 16 q 91 95 98 68 q 85 155 85 123 q 87 271 85 179 q 90 382 90 363 q 85 504 90 473 q 66 550 81 534 q 28 562 56 562 q -71 521 1 562 l -89 549 q -26 596 -47 581 q 34 630 -5 611 q 100 650 73 650 q 174 614 155 650 q 193 476 191 582 q 192 406 193 455 q 192 339 192 363 q 201 174 192 218 q 284 74 218 88 q 317 71 300 71 q 382 84 346 71 q 439 109 418 97 q 498 144 460 121 q 499 298 498 189 q 500 457 500 407 q 498 604 500 575 l 606 653 l 624 637 q 607 252 607 436 q 607 210 607 224 q 609 173 608 195 q 615 138 611 150 q 627 114 620 127 q 646 96 634 101 q 675 90 659 90 q 796 149 717 90 l 807 146 z "},"v":{"ha":590,"x_min":-86,"x_max":590,"o":"m 515 639 q 526 642 519 642 q 569 601 548 642 q 590 503 590 559 q 570 401 590 450 q 514 294 550 352 q 293 24 435 168 q 252 -16 256 -12 l 218 -16 l 122 343 q 68 508 93 450 q 14 567 43 567 q -74 538 -23 567 l -86 571 q -30 609 -53 594 q 28 637 -6 623 q 87 652 62 652 q 129 638 111 652 q 160 592 146 624 q 184 527 174 561 q 209 437 195 493 q 211 427 210 430 q 214 417 212 423 q 216 407 215 412 q 231 346 219 396 q 251 266 243 296 q 271 195 259 235 q 293 135 283 155 q 311 114 303 114 q 319 119 314 114 q 333 133 325 123 q 345 144 342 142 q 493 433 493 321 q 484 482 493 454 q 467 524 474 510 q 441 572 460 538 q 440 579 440 574 q 446 590 440 585 l 515 639 z "},"w":{"ha":1014,"x_min":-89,"x_max":1015,"o":"m 867 578 q 865 586 865 581 q 868 596 865 595 l 947 644 q 956 646 949 646 q 997 595 979 646 q 1015 513 1015 545 q 995 412 1015 461 q 937 300 975 362 q 718 18 860 172 q 669 -11 689 -11 q 648 -1 659 -11 q 633 18 637 8 q 507 486 607 92 q 494 500 500 500 q 479 493 481 500 q 231 7 321 203 l 172 -11 l 163 -3 l 129 309 q 115 406 123 363 q 101 477 108 450 q 85 524 94 504 q 71 552 77 543 q 57 566 65 562 q 46 572 50 571 q 39 572 43 572 q -77 529 5 572 l -89 557 q 28 632 -7 615 q 97 652 68 652 q 144 640 123 652 q 176 606 164 627 q 194 564 188 584 q 205 518 201 544 q 221 412 215 469 q 234 287 228 355 q 245 180 241 219 l 261 178 q 492 612 414 454 l 564 648 l 581 644 q 715 134 648 314 q 726 119 719 125 q 741 113 733 113 q 761 126 751 113 q 865 269 838 224 q 920 433 920 359 q 867 578 920 488 z "},"x":{"ha":558,"x_min":-89,"x_max":619,"o":"m 494 642 l 538 602 q 542 596 542 597 q 538 589 542 591 q 298 359 428 512 q 346 263 322 308 q 396 177 370 219 q 450 112 423 136 q 498 87 477 87 q 597 140 536 87 l 608 140 l 619 114 q 587 79 597 90 q 553 46 576 68 q 514 13 530 24 q 479 -7 499 2 q 441 -17 458 -17 q 411 -11 425 -17 q 380 13 396 -4 q 351 46 363 31 q 320 97 339 62 q 288 156 300 132 q 250 231 275 180 q 243 242 245 238 q 238 253 241 246 q 232 265 235 260 l 222 265 q 166 177 184 207 q 118 93 147 147 q 71 -11 90 39 l 49 -17 l 9 18 l 9 29 q 207 310 85 151 q 124 469 146 434 q 20 566 66 566 q -69 530 -17 566 l -89 555 q 75 644 27 644 q 150 618 125 644 q 207 534 170 595 q 277 408 244 472 l 285 407 q 478 642 352 496 q 486 644 479 644 q 494 642 492 644 z "},"y":{"ha":720,"x_min":-78,"x_max":628,"o":"m 81 -253 l 78 -237 l 139 -160 l 157 -160 q 219 -236 181 -205 q 301 -267 258 -267 q 377 -251 344 -267 q 431 -213 411 -235 q 465 -158 450 -191 q 486 -101 479 -125 q 497 -47 492 -77 q 509 89 506 3 l 500 96 q 415 44 448 63 q 331 7 382 26 q 239 -11 280 -11 q 189 -3 211 -11 q 151 18 166 5 q 125 50 136 31 q 109 89 115 70 q 99 133 102 108 q 95 176 96 157 q 94 218 94 195 q 97 311 94 249 q 100 408 100 373 q 98 476 100 450 q 89 526 96 503 q 70 559 83 549 q 36 570 57 570 q -62 530 12 570 l -78 557 q 115 650 57 650 q 180 622 158 650 q 203 553 203 594 q 200 434 203 514 q 197 314 197 355 q 209 179 200 222 q 236 114 218 137 q 323 78 264 78 q 392 91 354 78 q 451 116 430 104 q 510 150 473 127 q 513 298 513 248 q 501 595 513 432 l 611 647 l 628 642 q 619 371 621 529 q 615 101 618 214 q 599 -68 612 -11 q 470 -260 563 -196 q 257 -323 376 -323 q 159 -303 209 -323 q 81 -253 109 -283 z "},"z":{"ha":507,"x_min":-66,"x_max":582,"o":"m 484 642 l 492 642 l 511 624 q 109 131 337 439 l 115 119 q 400 102 292 102 q 452 111 429 102 q 494 138 475 119 q 525 171 513 156 q 551 210 536 186 l 582 193 l 525 82 q 470 13 502 37 q 390 -11 439 -12 q 353 -8 383 -12 q 278 0 322 -5 q 211 7 233 5 l 49 22 q -37 -37 5 22 l -46 -37 l -66 -11 l 343 518 q 301 515 330 515 q 220 529 279 515 q 135 542 161 542 q 75 519 100 542 q 11 443 50 496 l -17 461 l 53 585 q 92 629 75 617 q 139 642 110 642 q 258 620 174 642 q 382 599 342 599 q 484 642 431 599 z "},"{":{"ha":444,"x_min":-4,"x_max":406,"o":"m 406 -214 l 406 -248 q 244 -239 280 -248 q 216 -227 229 -235 q 194 -212 203 -220 q 178 -191 185 -205 q 166 -167 171 -177 q 158 -137 161 -157 q 154 -106 155 -118 q 152 -71 153 -95 q 151 -34 151 -46 q 151 6 151 -22 q 151 47 151 35 q 150 158 151 117 q 141 255 149 200 q 117 328 132 310 q -4 359 87 359 l -4 396 q 68 401 43 396 q 114 424 93 406 q 130 445 123 432 q 141 476 137 457 q 147 513 144 496 q 150 559 149 530 q 151 606 151 587 q 150 661 151 625 q 150 714 150 696 q 151 813 150 773 q 159 886 152 852 q 171 940 166 920 q 195 976 176 960 q 226 998 214 991 q 273 1009 239 1004 q 330 1014 307 1013 q 406 1014 353 1014 l 406 981 q 285 970 328 981 q 240 918 255 962 q 223 839 224 875 q 221 739 221 803 q 221 733 221 735 q 221 729 221 732 q 221 724 221 726 q 221 720 221 722 q 194 488 221 573 q 103 380 167 404 l 103 379 q 142 359 125 372 q 172 330 160 346 q 193 294 184 313 q 207 253 202 274 q 216 208 212 231 q 220 161 219 184 q 221 113 220 137 q 221 66 222 89 q 221 41 221 50 q 224 -65 221 -22 q 240 -137 228 -109 q 262 -181 252 -165 q 299 -204 273 -197 q 344 -212 325 -211 q 406 -214 363 -214 z "},"|":{"ha":296,"x_min":119,"x_max":175,"o":"m 175 -221 l 119 -232 l 119 1014 l 175 1025 l 175 -221 z "},"}":{"ha":444,"x_min":32,"x_max":441,"o":"m 32 -243 l 32 -210 q 143 -201 111 -210 q 174 -185 161 -197 q 195 -153 187 -174 q 208 -114 203 -132 q 214 -65 212 -96 q 216 -18 216 -34 q 216 31 216 -2 q 216 46 216 41 q 222 206 216 164 q 335 383 240 349 l 335 385 q 265 442 294 399 q 227 553 235 485 q 218 720 219 608 q 208 888 217 831 q 200 917 205 904 q 189 939 195 930 q 175 956 182 949 q 159 968 168 964 q 140 977 150 973 q 119 981 130 980 q 96 984 108 983 q 72 985 84 985 q 45 985 59 985 q 32 985 37 985 l 32 1018 q 66 1018 43 1018 q 100 1017 90 1017 q 129 1017 109 1017 q 156 1015 148 1016 q 180 1011 165 1013 q 203 1006 195 1009 q 221 999 211 1003 q 238 988 231 994 q 252 974 245 982 q 270 945 263 960 q 281 920 277 930 q 287 883 285 909 q 288 844 288 857 q 288 787 288 831 q 288 718 288 743 q 288 644 288 672 q 290 583 288 616 q 293 531 291 549 q 299 491 295 513 q 309 458 303 469 q 323 435 314 448 q 343 418 332 422 q 369 408 353 413 q 401 401 384 403 q 441 400 418 400 l 441 364 q 367 357 408 366 q 333 339 347 352 q 310 303 319 327 q 296 259 301 279 q 289 200 291 239 q 287 139 287 161 q 286 71 286 117 q 286 52 286 58 q 285 -28 286 6 q 279 -92 284 -63 q 271 -142 274 -121 q 256 -179 268 -163 q 237 -206 244 -196 q 211 -224 231 -216 q 180 -235 191 -231 q 139 -240 168 -239 q 92 -242 110 -242 q 35 -243 74 -243 q 32 -243 33 -243 z "},"~":{"ha":766,"x_min":31,"x_max":736,"o":"m 390 404 l 493 340 q 596 304 549 304 q 658 328 634 304 q 707 397 682 351 l 736 382 q 673 286 712 324 q 581 248 633 248 q 435 297 511 248 l 297 385 q 186 424 235 424 q 119 400 146 424 q 61 317 93 376 l 31 334 q 105 443 65 404 q 203 482 146 482 q 269 468 231 482 q 327 442 306 454 q 390 404 348 430 z "},"":{"ha":411,"x_min":125,"x_max":283,"o":"m 149 670 q 137 658 149 670 q 125 614 125 646 q 149 558 125 581 q 205 534 172 534 q 260 558 237 534 q 283 614 283 582 q 260 669 283 646 q 205 693 237 693 q 149 670 172 693 m 183 422 l 146 -110 q 144 -136 145 -119 q 142 -166 142 -153 q 142 -191 141 -180 q 159 -261 142 -241 q 211 -281 176 -281 q 251 -261 239 -281 q 262 -216 262 -242 q 256 -96 262 -162 l 205 419 l 183 422 z "},"":{"ha":570,"x_min":12,"x_max":564,"o":"m 549 158 l 564 134 q 413 16 488 60 q 321 -19 368 -9 l 321 -221 l 265 -232 l 265 -26 q 253 -26 259 -26 q 169 -15 206 -26 q 106 14 131 -4 q 63 60 81 32 q 36 114 45 87 q 20 176 26 140 q 14 239 15 212 q 12 301 12 266 q 111 559 12 458 q 265 648 176 625 l 265 880 l 321 892 l 321 658 q 364 660 342 660 q 475 622 431 660 q 525 524 519 584 l 450 450 l 427 458 q 386 567 418 528 q 321 605 358 600 l 321 65 q 323 65 322 65 q 536 161 425 65 l 549 158 m 265 599 q 210 566 235 589 q 148 467 168 525 q 127 345 127 408 q 132 269 127 305 q 150 195 136 233 q 184 129 163 157 q 241 83 205 101 q 265 73 252 77 l 265 599 z "},"":{"ha":912,"x_min":36,"x_max":851,"o":"m 424 186 q 554 124 477 149 q 679 100 630 100 q 779 152 742 100 q 817 278 817 205 q 811 354 817 315 l 844 361 q 851 281 851 331 q 839 157 851 210 q 790 66 827 105 q 760 36 771 47 q 731 14 749 26 q 695 -4 713 1 q 656 -9 677 -9 q 411 71 511 -9 q 292 137 345 114 q 211 160 239 160 q 175 154 192 160 q 145 138 157 147 q 120 113 132 130 q 101 85 109 97 q 86 53 94 74 q 74 22 77 31 q 64 -8 71 12 l 36 16 q 89 161 42 81 q 156 227 106 191 q 220 277 206 263 q 274 389 250 306 q 287 439 281 414 q 139 435 231 437 l 150 497 q 298 490 207 496 q 309 559 304 525 q 416 848 332 745 q 644 951 500 951 q 744 924 703 951 q 785 843 785 897 q 778 802 785 820 q 762 777 772 785 q 743 764 753 769 q 727 759 734 760 l 721 758 q 683 770 694 758 q 671 819 671 783 q 645 879 671 853 q 583 904 619 904 q 513 881 543 904 q 469 822 484 858 q 440 734 453 787 q 421 633 428 682 q 401 524 414 583 q 394 492 397 507 l 642 500 l 636 433 q 380 440 477 438 q 374 421 377 430 q 316 313 357 363 q 239 244 275 263 l 243 236 q 337 223 292 236 q 403 198 382 211 l 424 186 z "},"":{"ha":694,"x_min":41,"x_max":653,"o":"m 107 737 l 174 671 q 347 728 250 728 q 521 671 443 728 l 587 737 l 653 672 l 585 604 q 629 529 616 569 q 643 435 643 489 q 629 343 643 383 q 585 264 616 304 l 653 196 l 590 134 l 524 200 q 444 155 485 169 q 347 142 403 142 q 251 155 292 142 q 171 200 210 169 l 104 134 l 41 196 l 110 264 q 65 343 79 304 q 52 435 52 383 q 65 529 52 489 q 110 604 79 569 l 41 672 l 107 737 m 351 646 q 197 584 261 646 q 134 436 134 523 q 196 286 134 348 q 347 224 258 224 q 498 286 436 224 q 561 435 561 347 q 498 583 561 520 q 351 646 436 646 z "},"":{"ha":722,"x_min":-32,"x_max":790,"o":"m 421 329 l 661 329 l 653 273 l 422 273 l 431 25 l 306 -16 l 290 -3 q 294 273 293 98 l 78 273 l 87 329 l 294 329 q 294 415 294 370 l 273 457 l 75 457 l 85 513 l 245 513 l 87 825 q 40 883 65 869 q -32 904 16 897 l -32 943 l -22 953 l 179 953 l 375 501 q 392 490 380 490 q 428 537 397 490 q 489 639 459 584 q 568 775 503 663 q 667 939 634 887 l 785 962 l 790 937 q 511 563 585 668 q 476 513 493 538 l 659 513 l 650 457 l 439 457 q 418 425 428 441 l 421 329 z "},"":{"ha":296,"x_min":119,"x_max":175,"o":"m 175 465 l 119 454 l 119 1014 l 175 1025 l 175 465 m 175 -221 l 119 -232 l 119 328 l 175 339 l 175 -221 z "},"":{"ha":715,"x_min":78,"x_max":627,"o":"m 534 231 l 539 236 q 564 322 564 269 q 514 424 564 374 q 441 474 491 448 q 345 517 391 499 q 251 562 298 536 q 186 614 205 587 q 153 518 153 571 q 183 440 153 476 q 262 378 214 404 q 361 329 311 351 q 461 281 412 307 q 534 231 511 255 m 78 32 l 175 69 l 186 62 q 233 -62 188 -11 q 350 -113 278 -113 q 454 -60 413 -113 q 496 66 496 -7 q 486 111 496 90 q 463 146 477 132 q 424 178 450 161 q 375 206 397 195 q 315 236 353 218 q 310 238 312 237 q 304 241 308 239 q 298 244 301 243 q 231 277 259 262 q 177 312 203 292 q 134 354 150 332 q 108 405 118 376 q 98 469 98 434 q 165 644 98 545 q 151 729 151 693 q 217 903 151 832 q 387 974 283 974 q 442 968 415 974 q 494 951 469 963 q 536 917 520 939 q 551 864 551 894 q 543 812 551 863 l 461 783 l 440 799 q 416 897 440 862 q 346 932 391 932 q 262 887 294 932 q 231 779 231 842 q 238 734 231 754 q 255 700 245 713 q 286 672 265 687 q 322 649 306 658 q 368 625 338 641 q 418 599 398 610 q 463 575 434 589 q 511 550 492 560 q 554 524 530 541 q 593 490 578 507 q 617 449 607 474 q 627 396 627 425 q 554 207 627 288 q 579 104 579 167 q 506 -74 579 1 q 329 -149 432 -149 q 243 -139 284 -149 q 166 -110 203 -130 q 106 -54 130 -90 q 78 32 82 -18 z "},"":{"ha":722,"x_min":138,"x_max":583,"o":"m 583 799 q 557 743 581 764 q 500 721 534 721 q 443 744 467 721 q 419 802 419 768 q 447 857 419 835 q 508 879 475 879 q 563 855 542 879 q 583 799 583 831 m 302 799 q 277 743 300 764 q 219 721 253 721 q 162 744 186 721 q 138 802 138 768 q 166 857 138 835 q 227 879 195 879 q 282 855 261 879 q 302 799 302 831 z "},"":{"ha":783,"x_min":16,"x_max":768,"o":"m 45 460 q 31 495 45 460 q 16 607 16 530 q 45 753 16 684 q 125 873 75 823 q 245 954 176 924 q 392 983 315 983 q 538 954 469 983 q 659 873 608 924 q 739 753 709 823 q 768 607 768 684 q 739 460 768 530 q 659 340 709 391 q 538 260 608 290 q 392 231 469 231 q 245 260 315 231 q 125 340 176 290 q 45 460 75 391 m 150 849 q 100 799 150 849 q 50 607 50 749 q 150 365 50 465 q 392 265 250 265 q 633 365 534 265 q 733 607 733 465 q 633 849 733 749 q 392 949 534 949 q 150 849 250 949 m 576 742 l 566 742 q 415 832 526 832 q 277 786 331 832 q 211 614 211 730 q 233 524 211 570 q 278 458 254 477 q 348 414 315 427 q 428 400 380 400 q 583 447 499 400 l 597 428 q 399 364 483 364 q 216 416 281 364 q 136 602 136 484 q 212 785 136 721 q 444 860 304 860 q 624 782 567 860 l 576 742 z "},"":{"ha":675,"x_min":117,"x_max":636,"o":"m 469 764 l 524 791 l 529 787 q 522 586 522 677 q 524 533 522 568 q 525 481 525 498 q 562 422 525 422 q 629 439 576 422 l 636 416 q 507 364 543 364 q 450 418 460 364 l 435 421 q 268 364 336 364 q 197 380 228 364 q 150 424 167 397 q 125 480 133 450 q 117 543 117 511 q 131 637 117 593 q 174 717 145 681 q 250 775 202 753 q 359 796 298 796 q 415 787 385 796 q 469 764 446 779 m 447 464 l 447 672 q 447 696 447 689 q 443 715 446 704 q 431 734 439 727 q 363 764 399 764 q 264 729 307 764 q 210 570 212 686 q 239 461 207 504 q 339 424 267 424 q 447 464 388 424 z "},"":{"ha":661,"x_min":69,"x_max":591,"o":"m 281 330 l 547 591 l 590 528 l 383 325 l 591 89 l 572 50 l 281 330 m 69 330 l 336 591 l 379 528 l 172 325 l 380 89 l 361 50 l 69 330 z "},"":{"ha":949,"x_min":35,"x_max":872,"o":"m 872 568 l 872 286 l 817 286 l 817 513 l 35 513 l 35 568 l 872 568 z "},"":{"ha":464,"x_min":64,"x_max":400,"o":"m 392 328 l 64 328 l 74 383 l 400 383 l 392 328 z "},"":{"ha":783,"x_min":16,"x_max":768,"o":"m 45 460 q 31 495 45 460 q 16 607 16 530 q 45 753 16 684 q 125 873 75 823 q 245 954 176 924 q 392 983 315 983 q 538 954 469 983 q 659 873 608 924 q 739 753 709 823 q 768 607 768 684 q 739 460 768 530 q 659 340 709 391 q 538 260 608 290 q 392 231 469 231 q 245 260 315 231 q 125 340 176 290 q 45 460 75 391 m 150 849 q 100 799 150 849 q 50 607 50 749 q 150 365 50 465 q 392 265 250 265 q 633 365 534 265 q 733 607 733 465 q 633 849 733 749 q 392 949 534 949 q 150 849 250 949 m 317 632 q 325 623 317 623 q 453 652 401 623 q 505 739 505 681 q 366 819 505 819 l 332 819 q 322 802 322 819 q 317 632 317 712 m 407 606 l 406 600 l 625 395 l 625 387 l 542 370 q 494 421 527 385 q 441 477 461 456 q 397 524 422 498 q 358 565 373 550 q 335 586 342 581 q 318 591 324 591 q 322 392 318 458 l 253 371 l 244 378 q 252 681 252 488 q 250 730 252 683 q 249 800 249 777 q 223 823 249 814 q 184 831 197 831 l 186 842 l 192 847 l 416 847 q 539 823 493 847 q 586 750 586 798 q 537 647 586 682 q 407 606 488 612 z "},"":{"ha":722,"x_min":193,"x_max":529,"o":"m 521 771 l 193 771 l 203 827 l 529 827 l 521 771 z "},"":{"ha":722,"x_min":226,"x_max":496,"o":"m 265 703 q 245 723 265 703 q 226 799 226 743 q 265 894 226 855 q 361 933 304 933 q 456 894 417 933 q 496 799 496 855 q 456 703 496 743 q 361 664 417 664 q 265 703 304 664 m 295 865 q 281 851 295 865 q 268 799 268 838 q 295 733 268 760 q 361 705 322 705 q 427 733 399 705 q 454 799 454 760 q 427 865 454 838 q 361 892 399 892 q 295 865 322 892 z "},"":{"ha":1050,"x_min":64,"x_max":986,"o":"m 978 -104 l 64 -104 l 74 -49 l 494 -49 l 494 328 l 64 328 l 74 383 l 494 383 l 494 806 l 550 814 l 550 383 l 985 383 l 978 328 l 550 328 l 550 -49 l 986 -49 l 978 -104 z "},"":{"ha":564,"x_min":40,"x_max":510,"o":"m 510 447 l 486 376 l 40 376 l 40 392 q 210 553 151 492 q 269 617 245 590 q 318 682 292 645 q 356 757 343 719 q 368 833 368 795 q 340 916 368 878 q 254 953 311 953 q 113 895 190 953 l 93 913 q 309 1014 197 1014 q 418 974 374 1014 q 463 873 463 934 q 441 784 463 831 q 371 675 420 736 q 293 583 322 615 q 197 484 264 551 q 178 464 184 471 q 176 461 176 463 q 189 454 176 454 l 504 454 l 510 447 z "},"":{"ha":564,"x_min":46,"x_max":484,"o":"m 273 720 l 273 713 q 484 570 484 696 q 444 460 484 509 q 341 386 404 412 q 212 359 279 359 q 53 410 125 359 l 46 419 l 89 485 l 100 485 q 239 396 162 396 q 346 439 304 396 q 387 543 387 482 q 336 646 387 597 q 155 686 293 686 l 155 710 q 351 863 351 750 q 320 927 351 903 q 240 951 288 951 q 115 904 197 951 l 102 924 q 286 1008 214 1008 q 392 977 349 1008 q 435 888 435 945 q 389 782 435 826 q 273 720 344 737 z "},"":{"ha":722,"x_min":278,"x_max":528,"o":"m 303 676 l 278 720 l 444 937 l 463 940 l 528 890 l 303 676 z "},"":{"ha":858,"x_min":134,"x_max":882,"o":"m 673 647 l 685 632 q 676 461 676 509 l 676 229 q 679 187 676 207 q 688 143 681 167 q 710 106 694 120 q 749 92 726 92 q 856 138 783 92 l 871 135 l 882 115 q 671 -1 756 -1 q 602 22 621 -1 q 575 94 582 45 l 564 102 q 474 52 508 70 q 391 15 440 34 q 310 -4 341 -4 q 261 5 278 -4 q 224 37 243 14 l 215 35 q 241 -249 215 -123 l 168 -277 l 151 -268 q 157 115 157 -13 l 157 378 q 134 606 157 465 l 249 642 l 261 632 l 261 258 q 263 209 261 231 q 273 162 265 188 q 293 119 280 136 q 331 91 307 102 q 390 79 356 79 q 481 103 429 79 q 568 167 532 127 q 570 238 569 190 q 572 318 571 286 q 572 364 572 351 q 567 603 572 444 l 673 647 z "},"":{"ha":631,"x_min":47,"x_max":612,"o":"m 416 18 l 503 -8 l 513 1 q 507 267 512 59 q 503 587 503 474 q 510 833 503 683 q 539 887 513 871 q 612 908 565 902 l 612 933 l 603 943 l 395 947 q 151 869 246 950 q 49 672 55 787 q 60 583 47 627 q 102 501 73 539 q 180 437 130 463 q 293 407 229 412 q 322 406 300 406 q 358 404 343 405 q 390 400 373 403 q 417 393 408 398 q 427 380 427 388 q 422 236 427 372 q 416 18 417 100 z "},"":{"ha":386,"x_min":107,"x_max":293,"o":"m 134 291 q 121 304 134 291 q 107 357 107 318 q 134 423 107 395 q 200 450 161 450 q 266 423 239 450 q 293 357 293 395 q 266 291 293 318 q 200 264 239 264 q 134 291 161 264 z "},"":{"ha":722,"x_min":236,"x_max":489,"o":"m 333 8 l 383 8 l 355 -57 q 408 -82 377 -65 q 455 -121 438 -100 q 485 -186 481 -152 q 464 -260 489 -220 q 244 -359 411 -330 l 236 -339 l 243 -325 q 342 -267 319 -296 q 339 -200 368 -231 q 261 -155 309 -170 l 333 8 z "},"":{"ha":564,"x_min":122,"x_max":349,"o":"m 342 1018 l 349 1007 q 342 765 342 906 q 345 395 342 463 l 258 371 l 245 375 q 254 753 254 646 q 255 794 254 770 q 256 832 256 819 q 256 864 256 846 q 252 891 255 882 q 244 910 250 901 q 230 924 239 920 q 207 928 220 928 l 122 928 l 122 951 l 342 1018 z "},"":{"ha":629,"x_min":85,"x_max":534,"o":"m 180 660 q 172 590 172 627 q 178 527 172 557 q 199 467 184 497 q 242 418 214 437 q 311 400 271 400 q 378 416 351 400 q 419 459 406 432 q 438 514 433 486 q 444 574 444 542 q 439 635 444 606 q 421 693 434 663 q 379 742 408 724 q 310 760 351 760 q 230 733 267 760 q 180 660 193 707 m 283 363 q 195 378 233 363 q 135 420 157 393 q 100 480 112 448 q 85 551 88 513 q 96 652 85 608 q 140 728 107 695 q 334 794 209 794 q 465 758 421 794 q 534 590 534 703 q 476 428 534 486 q 283 363 409 363 z "},"":{"ha":661,"x_min":69,"x_max":591,"o":"m 380 330 l 114 591 l 71 528 l 278 325 l 69 89 l 89 50 l 380 330 m 591 330 l 325 591 l 282 528 l 489 325 l 281 89 l 300 50 l 591 330 z "},"":{"ha":1097,"x_min":32,"x_max":1040,"o":"m 928 583 l 936 579 q 933 200 933 534 l 942 193 l 1036 193 l 1040 187 l 1023 155 l 942 155 l 933 150 q 937 21 933 49 l 857 -7 l 852 -3 q 857 149 857 23 l 850 155 l 567 155 l 567 193 l 852 554 l 928 583 m 857 200 l 857 485 q 852 492 857 492 q 847 489 850 492 q 754 380 818 463 q 674 270 715 330 q 632 199 633 211 l 636 193 l 851 193 l 857 200 m 249 977 l 256 965 q 248 743 248 854 q 252 401 248 497 l 167 378 l 155 382 q 163 732 163 541 q 163 770 163 747 q 164 805 164 793 q 163 834 164 817 q 160 859 163 850 q 152 877 157 868 q 137 889 146 886 q 115 893 128 893 l 32 893 l 32 916 l 249 977 m 853 965 l 857 950 l 250 -5 l 207 12 l 207 32 l 808 977 l 824 978 l 853 965 z "},"":{"ha":1097,"x_min":32,"x_max":1040,"o":"m 1040 65 l 1017 0 l 579 0 l 579 14 q 746 163 693 111 q 804 223 781 197 q 852 283 827 249 q 890 352 878 317 q 903 422 903 387 q 874 498 903 464 q 789 532 845 532 q 720 518 751 532 q 652 479 688 505 l 632 494 q 843 589 736 589 q 951 552 908 589 q 994 460 994 516 q 974 376 994 420 q 906 278 953 332 q 829 193 860 224 q 737 102 799 161 q 715 81 723 87 l 713 78 q 726 72 713 72 l 1035 72 l 1040 65 m 249 977 l 256 965 q 248 743 248 854 q 252 401 248 497 l 167 378 l 155 382 q 163 732 163 541 q 163 770 163 747 q 164 805 164 793 q 163 834 164 817 q 160 859 163 850 q 152 877 157 868 q 137 889 146 886 q 115 893 128 893 l 32 893 l 32 916 l 249 977 m 848 965 l 852 950 l 245 -5 l 201 12 l 201 32 l 803 977 l 819 978 l 848 965 z "},"":{"ha":1097,"x_min":26,"x_max":1040,"o":"m 249 704 l 249 697 q 453 566 453 682 q 415 466 453 511 q 316 396 376 420 q 189 372 256 372 q 32 418 102 372 l 26 427 l 68 488 l 78 488 q 214 406 136 406 q 319 446 279 406 q 359 542 359 486 q 311 636 359 593 q 132 673 270 673 l 134 696 q 276 748 228 715 q 323 836 323 781 q 292 897 323 875 q 215 918 260 918 q 93 875 175 918 l 79 893 q 137 930 114 916 q 195 957 159 943 q 261 971 231 971 q 365 942 323 971 q 407 860 407 913 q 362 762 407 802 q 249 704 318 721 m 928 583 l 936 579 q 933 200 933 534 l 942 193 l 1036 193 l 1040 187 l 1023 155 l 942 155 l 933 150 q 937 21 933 49 l 857 -7 l 852 -3 q 857 149 857 23 l 850 155 l 567 155 l 567 193 l 852 554 l 928 583 m 857 200 l 857 485 q 852 492 857 492 q 847 489 850 492 q 754 380 818 463 q 674 270 715 330 q 632 199 633 211 l 636 193 l 851 193 l 857 200 m 909 965 l 913 950 l 306 -5 l 262 12 l 262 32 l 864 977 l 880 978 l 909 965 z "},"":{"ha":503,"x_min":5,"x_max":440,"o":"m 333 670 q 344 658 333 670 q 355 614 355 646 q 333 558 355 581 q 278 534 310 534 q 221 558 245 534 q 197 614 197 581 q 221 670 197 646 q 278 693 245 693 q 333 670 310 693 m 244 385 l 309 429 q 350 387 334 414 q 367 330 367 360 q 330 254 367 299 q 259 177 304 221 q 183 102 213 132 q 129 23 153 72 q 104 -79 104 -25 q 147 -189 104 -137 q 240 -240 189 -240 q 318 -213 283 -240 q 353 -140 353 -185 q 309 -56 353 -91 l 401 0 q 440 -96 440 -35 q 416 -174 440 -137 q 353 -234 391 -210 q 271 -271 315 -258 q 184 -285 227 -285 q 55 -236 104 -285 q 5 -107 5 -187 q 47 17 5 -54 q 111 95 68 53 q 190 166 153 136 q 254 232 226 196 q 282 297 282 268 q 272 337 282 317 q 244 370 261 357 l 244 385 z "},"":{"ha":918,"x_min":-62,"x_max":935,"o":"m 440 998 l 465 1042 l 299 1259 l 281 1262 l 216 1213 l 440 998 m 647 106 l 572 367 q 565 375 570 371 q 557 379 560 379 l 244 379 q 231 368 236 379 l 68 24 l -58 -3 l -62 11 q 408 861 210 469 q 410 871 410 865 q 406 880 410 875 q 393 886 401 884 l 268 907 l 268 945 l 538 945 q 667 440 558 832 q 701 320 687 366 q 738 211 714 273 q 785 110 762 149 q 873 68 810 68 q 933 72 874 68 l 935 36 l 790 -5 q 728 -14 758 -14 q 699 -4 711 -14 q 676 24 686 5 q 661 60 667 44 q 647 106 655 77 m 433 794 l 272 456 q 271 443 271 453 q 274 437 271 440 q 281 433 277 433 l 542 433 q 551 443 551 433 q 549 456 549 454 l 452 794 q 441 800 449 800 q 436 798 439 800 q 433 794 433 795 z "},"":{"ha":918,"x_min":-62,"x_max":935,"o":"m 403 997 l 378 1040 l 544 1258 l 562 1261 l 627 1211 l 403 997 m 647 106 l 572 367 q 565 375 570 371 q 557 379 560 379 l 244 379 q 231 368 236 379 l 68 24 l -58 -3 l -62 11 q 408 861 210 469 q 410 871 410 865 q 406 880 410 875 q 393 886 401 884 l 268 907 l 268 945 l 538 945 q 667 440 558 832 q 701 320 687 366 q 738 211 714 273 q 785 110 762 149 q 873 68 810 68 q 933 72 874 68 l 935 36 l 790 -5 q 728 -14 758 -14 q 699 -4 711 -14 q 676 24 686 5 q 661 60 667 44 q 647 106 655 77 m 433 794 l 272 456 q 271 443 271 453 q 274 437 271 440 q 281 433 277 433 l 542 433 q 551 443 551 433 q 549 456 549 454 l 452 794 q 441 800 449 800 q 436 798 439 800 q 433 794 433 795 z "},"":{"ha":918,"x_min":-62,"x_max":935,"o":"m 422 1263 l 641 1042 l 587 1005 l 418 1177 l 221 996 l 189 1013 l 422 1263 m 647 106 l 572 367 q 565 375 570 371 q 557 379 560 379 l 244 379 q 231 368 236 379 l 68 24 l -58 -3 l -62 11 q 408 861 210 469 q 410 871 410 865 q 406 880 410 875 q 393 886 401 884 l 268 907 l 268 945 l 538 945 q 667 440 558 832 q 701 320 687 366 q 738 211 714 273 q 785 110 762 149 q 873 68 810 68 q 933 72 874 68 l 935 36 l 790 -5 q 728 -14 758 -14 q 699 -4 711 -14 q 676 24 686 5 q 661 60 667 44 q 647 106 655 77 m 433 794 l 272 456 q 271 443 271 453 q 274 437 271 440 q 281 433 277 433 l 542 433 q 551 443 551 433 q 549 456 549 454 l 452 794 q 441 800 449 800 q 436 798 439 800 q 433 794 433 795 z "},"":{"ha":918,"x_min":-62,"x_max":935,"o":"m 425 1156 l 490 1126 q 554 1114 528 1111 q 589 1129 577 1117 q 611 1168 601 1142 l 629 1161 q 604 1083 625 1124 q 553 1038 583 1042 q 464 1055 514 1032 l 376 1096 q 307 1109 340 1112 q 270 1092 283 1106 q 243 1042 256 1077 l 224 1049 q 235 1090 229 1070 q 252 1132 242 1111 q 278 1168 262 1154 q 310 1185 293 1182 q 425 1156 346 1190 m 647 106 l 572 367 q 565 375 570 371 q 557 379 560 379 l 244 379 q 231 368 236 379 l 68 24 l -58 -3 l -62 11 q 408 861 210 469 q 410 871 410 865 q 406 880 410 875 q 393 886 401 884 l 268 907 l 268 945 l 538 945 q 667 440 558 832 q 701 320 687 366 q 738 211 714 273 q 785 110 762 149 q 873 68 810 68 q 933 72 874 68 l 935 36 l 790 -5 q 728 -14 758 -14 q 699 -4 711 -14 q 676 24 686 5 q 661 60 667 44 q 647 106 655 77 m 433 794 l 272 456 q 271 443 271 453 q 274 437 271 440 q 281 433 277 433 l 542 433 q 551 443 551 433 q 549 456 549 454 l 452 794 q 441 800 449 800 q 436 798 439 800 q 433 794 433 795 z "},"":{"ha":918,"x_min":-62,"x_max":935,"o":"m 644 1134 q 618 1078 642 1099 q 561 1056 595 1056 q 504 1079 528 1056 q 480 1137 480 1103 q 508 1192 480 1170 q 569 1214 536 1214 q 624 1190 603 1214 q 644 1134 644 1166 m 363 1134 q 338 1078 361 1099 q 280 1056 314 1056 q 223 1079 247 1056 q 199 1137 199 1103 q 228 1192 199 1170 q 288 1214 256 1214 q 343 1190 322 1214 q 363 1134 363 1166 m 647 106 l 572 367 q 565 375 570 371 q 557 379 560 379 l 244 379 q 231 368 236 379 l 68 24 l -58 -3 l -62 11 q 408 861 210 469 q 410 871 410 865 q 406 880 410 875 q 393 886 401 884 l 268 907 l 268 945 l 538 945 q 667 440 558 832 q 701 320 687 366 q 738 211 714 273 q 785 110 762 149 q 873 68 810 68 q 933 72 874 68 l 935 36 l 790 -5 q 728 -14 758 -14 q 699 -4 711 -14 q 676 24 686 5 q 661 60 667 44 q 647 106 655 77 m 433 794 l 272 456 q 271 443 271 453 q 274 437 271 440 q 281 433 277 433 l 542 433 q 551 443 551 433 q 549 456 549 454 l 452 794 q 441 800 449 800 q 436 798 439 800 q 433 794 433 795 z "},"":{"ha":918,"x_min":-62,"x_max":935,"o":"m 340 957 q 321 977 340 957 q 301 1053 301 996 q 340 1148 301 1109 q 436 1187 380 1187 q 532 1148 492 1187 q 571 1053 571 1109 q 532 957 571 996 q 436 918 492 918 q 340 957 380 918 m 370 1118 q 357 1105 370 1118 q 343 1053 343 1091 q 370 986 343 1014 q 436 959 397 959 q 502 986 475 959 q 529 1053 529 1014 q 502 1118 529 1091 q 436 1145 475 1145 q 370 1118 397 1145 m 647 106 l 572 367 q 565 375 570 371 q 557 379 560 379 l 244 379 q 231 368 236 379 l 68 24 l -58 -3 l -62 11 q 408 861 210 469 q 410 871 410 865 q 406 880 410 875 q 393 886 401 884 l 268 907 l 268 945 l 538 945 q 667 440 558 832 q 701 320 687 366 q 738 211 714 273 q 785 110 762 149 q 873 68 810 68 q 933 72 874 68 l 935 36 l 790 -5 q 728 -14 758 -14 q 699 -4 711 -14 q 676 24 686 5 q 661 60 667 44 q 647 106 655 77 m 433 794 l 272 456 q 271 443 271 453 q 274 437 271 440 q 281 433 277 433 l 542 433 q 551 443 551 433 q 549 456 549 454 l 452 794 q 441 800 449 800 q 436 798 439 800 q 433 794 433 795 z "},"":{"ha":1043,"x_min":-62,"x_max":1035,"o":"m 441 789 q 437 799 441 799 q 433 794 435 799 l 272 456 q 271 443 271 453 q 274 437 271 440 q 281 433 277 433 l 441 433 l 441 789 m 441 379 l 244 379 q 231 368 236 379 l 68 24 l -58 -3 l -62 11 q 410 864 210 469 q 411 873 411 868 q 407 882 411 878 q 395 889 403 887 l 268 909 l 268 947 l 538 947 q 712 951 591 947 q 873 956 833 955 q 937 954 919 956 l 935 885 l 929 875 q 639 889 678 889 l 583 889 q 550 783 550 882 l 550 553 q 551 546 550 549 q 556 541 553 543 q 562 537 559 538 q 571 535 566 536 q 582 533 577 534 q 595 533 587 533 q 609 533 604 533 q 625 533 615 533 q 642 533 635 533 q 892 543 753 533 l 900 533 l 892 467 q 728 475 783 475 q 701 475 718 475 q 672 475 684 475 q 646 475 661 475 q 620 474 630 475 q 597 473 609 474 q 577 471 585 473 q 562 467 569 469 q 552 462 555 465 q 549 454 549 458 l 549 261 q 570 106 549 143 q 612 70 585 79 q 703 61 639 61 q 1028 81 800 61 l 1035 74 l 1017 0 l 478 0 q 441 92 441 20 l 441 379 z "},"":{"ha":851,"x_min":37,"x_max":850,"o":"m 448 -9 l 498 -9 l 471 -74 q 523 -99 492 -82 q 570 -138 553 -117 q 600 -203 596 -169 q 579 -277 604 -237 q 359 -376 526 -347 l 351 -356 l 358 -342 q 458 -283 435 -313 q 454 -217 484 -248 q 376 -172 425 -187 l 448 -9 m 771 733 l 751 734 q 503 914 683 914 q 370 889 429 914 q 273 822 311 863 q 209 723 235 780 q 172 605 183 665 q 161 478 161 544 q 198 299 161 390 q 273 168 234 208 q 389 79 336 106 q 522 53 441 53 q 782 146 645 53 l 806 106 q 473 -21 619 -21 q 171 82 274 -21 q 37 453 37 216 q 164 819 37 692 q 339 932 239 894 q 550 971 439 971 q 850 814 754 971 l 771 733 z "},"":{"ha":729,"x_min":8,"x_max":721,"o":"m 386 996 l 411 1039 l 245 1257 l 227 1259 l 161 1210 l 386 996 m 578 467 q 414 475 469 475 q 387 475 404 475 q 358 475 370 475 q 332 475 347 475 q 306 474 316 475 q 283 473 295 474 q 263 471 271 473 q 248 467 255 469 q 238 462 241 465 q 235 454 235 458 l 235 261 q 256 106 235 143 q 298 70 271 79 q 389 61 325 61 q 714 81 486 61 l 721 74 l 703 0 l 164 0 q 127 92 127 20 l 127 775 q 115 864 127 836 q 9 908 102 895 l 8 936 l 18 946 l 224 947 q 398 951 277 947 q 559 956 519 955 q 624 954 606 956 l 621 885 l 615 875 q 325 889 364 889 l 269 889 q 236 783 236 882 l 236 553 q 237 546 236 549 q 242 541 239 543 q 248 537 245 538 q 257 535 252 536 q 268 533 263 534 q 281 533 273 533 q 295 533 290 533 q 311 533 301 533 q 328 533 321 533 q 578 543 439 533 l 586 533 l 578 467 z "},"":{"ha":729,"x_min":8,"x_max":721,"o":"m 331 998 l 306 1042 l 472 1259 l 490 1262 l 555 1213 l 331 998 m 578 467 q 414 475 469 475 q 387 475 404 475 q 358 475 370 475 q 332 475 347 475 q 306 474 316 475 q 283 473 295 474 q 263 471 271 473 q 248 467 255 469 q 238 462 241 465 q 235 454 235 458 l 235 261 q 256 106 235 143 q 298 70 271 79 q 389 61 325 61 q 714 81 486 61 l 721 74 l 703 0 l 164 0 q 127 92 127 20 l 127 775 q 115 864 127 836 q 9 908 102 895 l 8 936 l 18 946 l 224 947 q 398 951 277 947 q 559 956 519 955 q 624 954 606 956 l 621 885 l 615 875 q 325 889 364 889 l 269 889 q 236 783 236 882 l 236 553 q 237 546 236 549 q 242 541 239 543 q 248 537 245 538 q 257 535 252 536 q 268 533 263 534 q 281 533 273 533 q 295 533 290 533 q 311 533 301 533 q 328 533 321 533 q 578 543 439 533 l 586 533 l 578 467 z "},"":{"ha":729,"x_min":8,"x_max":721,"o":"m 389 1263 l 608 1042 l 553 1005 l 385 1177 l 188 996 l 156 1013 l 389 1263 m 578 467 q 414 475 469 475 q 387 475 404 475 q 358 475 370 475 q 332 475 347 475 q 306 474 316 475 q 283 473 295 474 q 263 471 271 473 q 248 467 255 469 q 238 462 241 465 q 235 454 235 458 l 235 261 q 256 106 235 143 q 298 70 271 79 q 389 61 325 61 q 714 81 486 61 l 721 74 l 703 0 l 164 0 q 127 92 127 20 l 127 775 q 115 864 127 836 q 9 908 102 895 l 8 936 l 18 946 l 224 947 q 398 951 277 947 q 559 956 519 955 q 624 954 606 956 l 621 885 l 615 875 q 325 889 364 889 l 269 889 q 236 783 236 882 l 236 553 q 237 546 236 549 q 242 541 239 543 q 248 537 245 538 q 257 535 252 536 q 268 533 263 534 q 281 533 273 533 q 295 533 290 533 q 311 533 301 533 q 328 533 321 533 q 578 543 439 533 l 586 533 l 578 467 z "},"":{"ha":729,"x_min":8,"x_max":721,"o":"m 610 1134 q 584 1078 608 1099 q 526 1056 560 1056 q 469 1079 493 1056 q 446 1137 446 1103 q 474 1192 446 1170 q 534 1214 502 1214 q 589 1190 568 1214 q 610 1134 610 1166 m 329 1134 q 303 1078 327 1099 q 245 1056 279 1056 q 189 1079 212 1056 q 165 1137 165 1103 q 193 1192 165 1170 q 254 1214 221 1214 q 308 1190 288 1214 q 329 1134 329 1166 m 578 467 q 414 475 469 475 q 387 475 404 475 q 358 475 370 475 q 332 475 347 475 q 306 474 316 475 q 283 473 295 474 q 263 471 271 473 q 248 467 255 469 q 238 462 241 465 q 235 454 235 458 l 235 261 q 256 106 235 143 q 298 70 271 79 q 389 61 325 61 q 714 81 486 61 l 721 74 l 703 0 l 164 0 q 127 92 127 20 l 127 775 q 115 864 127 836 q 9 908 102 895 l 8 936 l 18 946 l 224 947 q 398 951 277 947 q 559 956 519 955 q 624 954 606 956 l 621 885 l 615 875 q 325 889 364 889 l 269 889 q 236 783 236 882 l 236 553 q 237 546 236 549 q 242 541 239 543 q 248 537 245 538 q 257 535 252 536 q 268 533 263 534 q 281 533 273 533 q 295 533 290 533 q 311 533 301 533 q 328 533 321 533 q 578 543 439 533 l 586 533 l 578 467 z "},"":{"ha":429,"x_min":46,"x_max":421,"o":"m 297 998 l 322 1042 l 156 1259 l 138 1262 l 73 1213 l 297 998 m 418 -1 l 50 -1 l 50 35 q 90 43 75 39 q 120 52 106 46 q 142 60 134 57 q 156 71 149 62 q 165 84 163 79 q 170 102 168 88 q 172 123 172 115 q 172 152 172 131 q 174 186 173 172 l 174 690 q 170 850 174 797 q 168 862 169 857 q 165 871 168 867 q 161 878 163 876 q 154 883 159 880 q 143 888 148 886 q 127 892 138 889 q 106 897 116 895 q 79 902 97 899 q 46 909 62 906 l 46 940 l 56 949 l 403 949 l 411 940 l 411 911 l 318 890 q 288 854 290 884 q 281 759 282 818 q 282 612 280 699 q 283 498 283 525 q 286 235 283 404 q 286 195 286 224 q 286 149 285 167 q 290 109 286 132 q 304 74 294 87 q 330 56 314 60 q 421 32 415 32 l 418 -1 z "},"":{"ha":429,"x_min":46,"x_max":421,"o":"m 143 998 l 118 1042 l 284 1259 l 302 1262 l 368 1213 l 143 998 m 418 -1 l 50 -1 l 50 35 q 90 43 75 39 q 120 52 106 46 q 142 60 134 57 q 156 71 149 62 q 165 84 163 79 q 170 102 168 88 q 172 123 172 115 q 172 152 172 131 q 174 186 173 172 l 174 690 q 170 850 174 797 q 168 862 169 857 q 165 871 168 867 q 161 878 163 876 q 154 883 159 880 q 143 888 148 886 q 127 892 138 889 q 106 897 116 895 q 79 902 97 899 q 46 909 62 906 l 46 940 l 56 949 l 403 949 l 411 940 l 411 911 l 318 890 q 288 854 290 884 q 281 759 282 818 q 282 612 280 699 q 283 498 283 525 q 286 235 283 404 q 286 195 286 224 q 286 149 285 167 q 290 109 286 132 q 304 74 294 87 q 330 56 314 60 q 421 32 415 32 l 418 -1 z "},"":{"ha":429,"x_min":3,"x_max":455,"o":"m 237 1263 l 455 1042 l 401 1005 l 233 1177 l 35 996 l 3 1013 l 237 1263 m 418 -1 l 50 -1 l 50 35 q 90 43 75 39 q 120 52 106 46 q 142 60 134 57 q 156 71 149 62 q 165 84 163 79 q 170 102 168 88 q 172 123 172 115 q 172 152 172 131 q 174 186 173 172 l 174 690 q 170 850 174 797 q 168 862 169 857 q 165 871 168 867 q 161 878 163 876 q 154 883 159 880 q 143 888 148 886 q 127 892 138 889 q 106 897 116 895 q 79 902 97 899 q 46 909 62 906 l 46 940 l 56 949 l 403 949 l 411 940 l 411 911 l 318 890 q 288 854 290 884 q 281 759 282 818 q 282 612 280 699 q 283 498 283 525 q 286 235 283 404 q 286 195 286 224 q 286 149 285 167 q 290 109 286 132 q 304 74 294 87 q 330 56 314 60 q 421 32 415 32 l 418 -1 z "},"":{"ha":429,"x_min":6,"x_max":451,"o":"m 451 1134 q 425 1078 449 1099 q 368 1056 401 1056 q 311 1079 334 1056 q 287 1137 287 1103 q 315 1192 287 1170 q 376 1214 343 1214 q 430 1190 410 1214 q 451 1134 451 1166 m 170 1134 q 144 1078 168 1099 q 87 1056 121 1056 q 30 1079 54 1056 q 6 1137 6 1103 q 34 1192 6 1170 q 95 1214 62 1214 q 150 1190 129 1214 q 170 1134 170 1166 m 418 -1 l 50 -1 l 50 35 q 90 43 75 39 q 120 52 106 46 q 142 60 134 57 q 156 71 149 62 q 165 84 163 79 q 170 102 168 88 q 172 123 172 115 q 172 152 172 131 q 174 186 173 172 l 174 690 q 170 850 174 797 q 168 862 169 857 q 165 871 168 867 q 161 878 163 876 q 154 883 159 880 q 143 888 148 886 q 127 892 138 889 q 106 897 116 895 q 79 902 97 899 q 46 909 62 906 l 46 940 l 56 949 l 403 949 l 411 940 l 411 911 l 318 890 q 288 854 290 884 q 281 759 282 818 q 282 612 280 699 q 283 498 283 525 q 286 235 283 404 q 286 195 286 224 q 286 149 285 167 q 290 109 286 132 q 304 74 294 87 q 330 56 314 60 q 421 32 415 32 l 418 -1 z "},"":{"ha":1010,"x_min":1,"x_max":956,"o":"m 78 3 l 78 17 q 102 49 98 32 q 109 110 107 66 l 109 472 l 14 472 l 24 528 l 109 528 l 109 796 q 106 861 109 819 q 98 879 105 871 q 78 892 91 887 q 54 901 64 898 q 25 909 43 905 q 1 916 8 913 l 1 942 l 11 953 l 446 953 q 609 942 536 953 q 735 913 682 932 q 827 865 788 895 q 890 803 866 836 q 930 725 915 769 q 950 635 945 680 q 956 534 956 590 q 926 303 956 397 q 818 126 896 210 q 399 3 705 3 l 78 3 m 225 472 l 225 236 q 250 74 229 96 q 359 56 269 56 q 551 82 468 56 q 686 153 635 109 q 769 258 736 196 q 813 385 801 321 q 825 524 825 449 q 801 684 825 600 q 724 821 777 768 q 585 881 677 866 q 336 896 492 896 q 244 890 255 896 q 238 888 243 890 q 233 886 234 887 q 230 879 232 884 q 227 865 227 874 q 226 839 227 855 q 225 799 225 823 l 225 528 l 432 528 l 424 472 l 225 472 z "},"":{"ha":1034,"x_min":25,"x_max":943,"o":"m 539 1169 l 604 1140 q 668 1128 642 1124 q 703 1143 691 1131 q 725 1182 715 1156 l 743 1175 q 718 1097 739 1137 q 667 1051 697 1056 q 578 1068 628 1046 l 490 1109 q 421 1122 454 1126 q 384 1105 397 1120 q 357 1055 370 1090 l 338 1063 q 349 1104 342 1084 q 366 1146 356 1124 q 392 1181 376 1167 q 424 1198 407 1196 q 539 1169 460 1204 m 935 964 l 943 953 q 922 0 922 591 l 872 0 q 779 111 822 56 l 558 386 q 233 771 420 556 q 218 783 224 783 q 208 760 208 783 q 241 35 208 549 l 144 -7 l 132 5 q 150 665 150 363 q 149 755 150 695 q 149 844 149 814 q 149 853 149 847 q 149 861 149 859 q 147 867 149 863 q 143 874 146 872 q 134 880 140 876 q 120 886 128 884 q 99 893 111 888 q 70 901 86 897 q 31 911 53 905 l 25 949 l 36 958 l 261 958 q 464 691 395 782 q 645 461 532 601 q 833 240 758 321 q 848 229 844 229 q 857 240 857 229 q 823 942 857 451 l 935 964 z "},"":{"ha":1047,"x_min":65,"x_max":974,"o":"m 568 1029 l 593 1072 l 427 1290 l 408 1293 l 343 1243 l 568 1029 m 65 441 q 97 673 65 578 q 205 850 129 768 q 363 944 267 916 q 568 972 459 972 q 728 946 652 972 q 857 867 804 920 q 946 708 918 805 q 974 505 974 612 q 972 435 974 462 q 966 368 971 408 q 949 290 962 328 q 917 211 937 251 q 740 41 866 106 q 453 -25 614 -25 q 303 2 370 -25 q 193 73 237 28 q 120 178 149 117 q 78 305 90 239 q 65 441 65 370 m 195 484 q 219 291 195 376 q 304 139 243 205 q 526 32 401 32 q 648 57 593 32 q 738 125 702 83 q 798 224 773 167 q 832 341 822 281 q 843 467 843 402 q 832 589 843 528 q 798 710 822 650 q 738 815 773 770 q 647 889 702 861 q 524 917 591 917 q 397 892 454 917 q 304 825 341 867 q 241 727 267 783 q 205 610 216 671 q 195 484 195 549 z "},"":{"ha":1047,"x_min":65,"x_max":974,"o":"m 514 1029 l 489 1072 l 655 1290 l 673 1293 l 739 1243 l 514 1029 m 65 441 q 97 673 65 578 q 205 850 129 768 q 363 944 267 916 q 568 972 459 972 q 728 946 652 972 q 857 867 804 920 q 946 708 918 805 q 974 505 974 612 q 972 435 974 462 q 966 368 971 408 q 949 290 962 328 q 917 211 937 251 q 740 41 866 106 q 453 -25 614 -25 q 303 2 370 -25 q 193 73 237 28 q 120 178 149 117 q 78 305 90 239 q 65 441 65 370 m 195 484 q 219 291 195 376 q 304 139 243 205 q 526 32 401 32 q 648 57 593 32 q 738 125 702 83 q 798 224 773 167 q 832 341 822 281 q 843 467 843 402 q 832 589 843 528 q 798 710 822 650 q 738 815 773 770 q 647 889 702 861 q 524 917 591 917 q 397 892 454 917 q 304 825 341 867 q 241 727 267 783 q 205 610 216 671 q 195 484 195 549 z "},"":{"ha":1047,"x_min":65,"x_max":974,"o":"m 545 1279 l 764 1057 l 709 1021 l 541 1193 l 344 1011 l 312 1028 l 545 1279 m 65 441 q 97 673 65 578 q 205 850 129 768 q 363 944 267 916 q 568 972 459 972 q 728 946 652 972 q 857 867 804 920 q 946 708 918 805 q 974 505 974 612 q 972 435 974 462 q 966 368 971 408 q 949 290 962 328 q 917 211 937 251 q 740 41 866 106 q 453 -25 614 -25 q 303 2 370 -25 q 193 73 237 28 q 120 178 149 117 q 78 305 90 239 q 65 441 65 370 m 195 484 q 219 291 195 376 q 304 139 243 205 q 526 32 401 32 q 648 57 593 32 q 738 125 702 83 q 798 224 773 167 q 832 341 822 281 q 843 467 843 402 q 832 589 843 528 q 798 710 822 650 q 738 815 773 770 q 647 889 702 861 q 524 917 591 917 q 397 892 454 917 q 304 825 341 867 q 241 727 267 783 q 205 610 216 671 q 195 484 195 549 z "},"":{"ha":1047,"x_min":65,"x_max":974,"o":"m 507 1152 l 572 1122 q 636 1110 610 1107 q 671 1125 659 1113 q 693 1164 683 1138 l 711 1157 q 686 1079 707 1120 q 635 1034 665 1038 q 546 1050 596 1028 l 458 1092 q 389 1105 422 1108 q 352 1087 365 1102 q 326 1038 338 1073 l 306 1045 q 317 1086 311 1066 q 334 1128 324 1107 q 360 1164 345 1149 q 392 1181 375 1178 q 507 1152 428 1186 m 65 441 q 97 673 65 578 q 205 850 129 768 q 363 944 267 916 q 568 972 459 972 q 728 946 652 972 q 857 867 804 920 q 946 708 918 805 q 974 505 974 612 q 972 435 974 462 q 966 368 971 408 q 949 290 962 328 q 917 211 937 251 q 740 41 866 106 q 453 -25 614 -25 q 303 2 370 -25 q 193 73 237 28 q 120 178 149 117 q 78 305 90 239 q 65 441 65 370 m 195 484 q 219 291 195 376 q 304 139 243 205 q 526 32 401 32 q 648 57 593 32 q 738 125 702 83 q 798 224 773 167 q 832 341 822 281 q 843 467 843 402 q 832 589 843 528 q 798 710 822 650 q 738 815 773 770 q 647 889 702 861 q 524 917 591 917 q 397 892 454 917 q 304 825 341 867 q 241 727 267 783 q 205 610 216 671 q 195 484 195 549 z "},"":{"ha":1047,"x_min":65,"x_max":974,"o":"m 741 1112 q 715 1055 739 1077 q 658 1034 692 1034 q 601 1057 625 1034 q 577 1114 577 1080 q 605 1170 577 1147 q 666 1192 633 1192 q 721 1168 700 1192 q 741 1112 741 1144 m 460 1112 q 435 1055 458 1077 q 377 1034 411 1034 q 320 1057 344 1034 q 296 1114 296 1080 q 325 1170 296 1147 q 385 1192 353 1192 q 440 1168 419 1192 q 460 1112 460 1144 m 65 441 q 97 673 65 578 q 205 850 129 768 q 363 944 267 916 q 568 972 459 972 q 728 946 652 972 q 857 867 804 920 q 946 708 918 805 q 974 505 974 612 q 972 435 974 462 q 966 368 971 408 q 949 290 962 328 q 917 211 937 251 q 740 41 866 106 q 453 -25 614 -25 q 303 2 370 -25 q 193 73 237 28 q 120 178 149 117 q 78 305 90 239 q 65 441 65 370 m 195 484 q 219 291 195 376 q 304 139 243 205 q 526 32 401 32 q 648 57 593 32 q 738 125 702 83 q 798 224 773 167 q 832 341 822 281 q 843 467 843 402 q 832 589 843 528 q 798 710 822 650 q 738 815 773 770 q 647 889 702 861 q 524 917 591 917 q 397 892 454 917 q 304 825 341 867 q 241 727 267 783 q 205 610 216 671 q 195 484 195 549 z "},"":{"ha":1050,"x_min":184,"x_max":865,"o":"m 524 393 l 831 700 l 865 656 l 562 354 l 860 56 l 828 9 l 524 314 l 218 9 l 186 56 l 484 354 l 184 653 l 218 697 l 524 393 z "},"":{"ha":1047,"x_min":65,"x_max":974,"o":"m 811 1093 l 818 1078 l 756 935 q 857 867 814 910 q 946 708 918 805 q 974 505 974 612 q 972 435 974 462 q 966 368 971 408 q 949 290 962 328 q 917 211 937 251 q 740 41 866 106 q 453 -25 614 -25 q 345 -12 395 -25 l 278 -167 l 233 -156 l 229 -136 l 292 7 q 193 73 233 33 q 120 178 149 117 q 78 305 90 239 q 65 441 65 370 q 97 673 65 578 q 205 850 129 768 q 363 944 267 916 q 568 972 459 972 q 703 954 638 972 l 765 1097 l 781 1100 l 811 1093 m 195 484 q 219 291 195 376 q 304 139 243 205 q 336 108 319 122 l 669 876 q 647 888 659 883 q 524 917 591 917 q 397 892 454 917 q 304 825 341 867 q 241 727 267 783 q 205 610 216 671 q 195 484 195 549 m 715 840 l 382 73 q 526 32 448 32 q 648 57 593 32 q 738 125 702 83 q 798 224 773 167 q 832 341 822 281 q 843 467 843 402 q 832 589 843 528 q 798 710 822 650 q 738 815 773 770 q 715 840 727 829 z "},"":{"ha":966,"x_min":-22,"x_max":966,"o":"m 543 997 l 568 1040 l 401 1258 l 383 1261 l 318 1211 l 543 997 m 222 753 l 211 374 q 456 72 211 72 q 700 154 562 72 q 705 916 700 410 l 828 964 l 836 954 q 814 281 814 786 q 814 238 814 252 q 815 200 814 224 q 818 162 816 175 q 822 132 819 150 q 830 104 825 113 q 842 84 835 94 q 858 71 848 75 q 880 66 868 66 q 923 72 896 66 q 961 78 951 77 l 966 54 l 960 45 q 747 -7 797 -7 q 728 -4 736 -7 q 714 5 720 -1 q 706 17 709 12 q 702 34 703 22 q 701 52 701 46 q 701 71 701 57 q 701 89 701 85 l 690 97 q 367 -12 521 -12 q 268 0 311 -12 q 198 30 224 12 q 153 75 172 48 q 126 125 134 102 q 111 176 117 148 q 100 428 100 254 q 101 590 100 481 q 103 753 103 699 l 103 835 q 87 869 103 854 q 49 892 71 884 q 8 903 26 899 q -20 907 -10 907 l -22 935 l -11 945 l 224 945 l 233 936 q 227 848 231 922 q 222 753 222 774 z "},"":{"ha":966,"x_min":-22,"x_max":966,"o":"m 441 996 l 416 1039 l 582 1257 l 600 1259 l 665 1210 l 441 996 m 222 753 l 211 374 q 456 72 211 72 q 700 154 562 72 q 705 916 700 410 l 828 964 l 836 954 q 814 281 814 786 q 814 238 814 252 q 815 200 814 224 q 818 162 816 175 q 822 132 819 150 q 830 104 825 113 q 842 84 835 94 q 858 71 848 75 q 880 66 868 66 q 923 72 896 66 q 961 78 951 77 l 966 54 l 960 45 q 747 -7 797 -7 q 728 -4 736 -7 q 714 5 720 -1 q 706 17 709 12 q 702 34 703 22 q 701 52 701 46 q 701 71 701 57 q 701 89 701 85 l 690 97 q 367 -12 521 -12 q 268 0 311 -12 q 198 30 224 12 q 153 75 172 48 q 126 125 134 102 q 111 176 117 148 q 100 428 100 254 q 101 590 100 481 q 103 753 103 699 l 103 835 q 87 869 103 854 q 49 892 71 884 q 8 903 26 899 q -20 907 -10 907 l -22 935 l -11 945 l 224 945 l 233 936 q 227 848 231 922 q 222 753 222 774 z "},"":{"ha":966,"x_min":-22,"x_max":966,"o":"m 492 1263 l 711 1042 l 656 1005 l 488 1177 l 291 996 l 259 1013 l 492 1263 m 222 753 l 211 374 q 456 72 211 72 q 700 154 562 72 q 705 916 700 410 l 828 964 l 836 954 q 814 281 814 786 q 814 238 814 252 q 815 200 814 224 q 818 162 816 175 q 822 132 819 150 q 830 104 825 113 q 842 84 835 94 q 858 71 848 75 q 880 66 868 66 q 923 72 896 66 q 961 78 951 77 l 966 54 l 960 45 q 747 -7 797 -7 q 728 -4 736 -7 q 714 5 720 -1 q 706 17 709 12 q 702 34 703 22 q 701 52 701 46 q 701 71 701 57 q 701 89 701 85 l 690 97 q 367 -12 521 -12 q 268 0 311 -12 q 198 30 224 12 q 153 75 172 48 q 126 125 134 102 q 111 176 117 148 q 100 428 100 254 q 101 590 100 481 q 103 753 103 699 l 103 835 q 87 869 103 854 q 49 892 71 884 q 8 903 26 899 q -20 907 -10 907 l -22 935 l -11 945 l 224 945 l 233 936 q 227 848 231 922 q 222 753 222 774 z "},"":{"ha":966,"x_min":-22,"x_max":966,"o":"m 717 1134 q 691 1078 715 1099 q 633 1056 667 1056 q 576 1079 600 1056 q 553 1137 553 1103 q 581 1192 553 1170 q 642 1214 609 1214 q 696 1190 675 1214 q 717 1134 717 1166 m 436 1134 q 410 1078 434 1099 q 353 1056 387 1056 q 296 1079 319 1056 q 272 1137 272 1103 q 300 1192 272 1170 q 361 1214 328 1214 q 415 1190 395 1214 q 436 1134 436 1166 m 222 753 l 211 374 q 456 72 211 72 q 700 154 562 72 q 705 916 700 410 l 828 964 l 836 954 q 814 281 814 786 q 814 238 814 252 q 815 200 814 224 q 818 162 816 175 q 822 132 819 150 q 830 104 825 113 q 842 84 835 94 q 858 71 848 75 q 880 66 868 66 q 923 72 896 66 q 961 78 951 77 l 966 54 l 960 45 q 747 -7 797 -7 q 728 -4 736 -7 q 714 5 720 -1 q 706 17 709 12 q 702 34 703 22 q 701 52 701 46 q 701 71 701 57 q 701 89 701 85 l 690 97 q 367 -12 521 -12 q 268 0 311 -12 q 198 30 224 12 q 153 75 172 48 q 126 125 134 102 q 111 176 117 148 q 100 428 100 254 q 101 590 100 481 q 103 753 103 699 l 103 835 q 87 869 103 854 q 49 892 71 884 q 8 903 26 899 q -20 907 -10 907 l -22 935 l -11 945 l 224 945 l 233 936 q 227 848 231 922 q 222 753 222 774 z "},"":{"ha":722,"x_min":-32,"x_max":790,"o":"m 360 996 l 335 1039 l 501 1257 l 519 1259 l 585 1210 l 360 996 m 294 415 l 87 825 q 40 883 65 869 q -32 904 16 897 l -32 943 l -22 953 l 179 953 l 375 501 q 392 490 380 490 q 428 537 397 490 q 489 639 459 584 q 568 775 503 663 q 667 939 634 887 l 785 962 l 790 937 q 511 563 585 668 q 418 425 463 495 l 431 25 l 306 -16 l 290 -3 q 294 415 294 136 z "},"":{"ha":720,"x_min":14,"x_max":701,"o":"m 328 743 l 248 743 q 235 728 235 743 q 227 328 227 545 q 231 315 227 319 q 241 311 236 311 q 478 377 389 311 q 568 557 568 443 q 549 647 568 609 q 495 705 530 684 q 419 734 460 725 q 328 743 378 743 m 243 935 q 235 798 239 916 l 380 798 q 624 740 547 798 q 701 568 701 682 q 612 351 701 440 q 359 261 537 275 q 331 260 352 260 q 296 258 310 259 q 264 255 281 257 q 238 247 248 252 q 229 235 229 242 q 234 171 229 229 q 239 31 238 113 l 123 -8 l 114 1 q 119 261 115 49 q 123 587 123 473 q 117 833 123 696 q 87 887 114 871 q 14 908 61 902 l 14 933 l 24 943 l 233 943 l 243 935 z "},"":{"ha":680,"x_min":26,"x_max":632,"o":"m 41 603 l 126 603 l 135 611 q 160 781 135 724 q 248 890 191 852 q 372 929 305 929 q 501 854 465 929 l 421 779 l 404 785 q 400 806 401 798 q 392 828 398 813 q 378 851 386 843 q 356 866 371 859 q 323 873 342 873 q 261 800 281 873 q 240 611 240 726 l 245 603 l 582 603 l 589 593 l 579 562 l 464 359 q 502 328 489 339 q 538 295 514 317 q 575 254 562 273 q 603 210 588 235 q 625 155 618 184 q 632 94 632 125 q 529 -132 631 -42 q 262 -222 428 -222 l 256 -189 q 417 -116 345 -172 q 513 8 489 -61 q 498 176 543 96 q 353 336 452 257 l 353 370 l 458 554 l 245 554 l 237 546 l 237 392 q 252 17 237 186 l 142 -17 l 118 -1 q 136 393 136 264 l 136 543 l 127 554 l 33 554 l 26 564 l 32 595 l 41 603 z "},"":{"ha":749,"x_min":66,"x_max":772,"o":"m 397 730 l 422 774 l 256 991 l 237 994 l 172 945 l 397 730 m 546 599 l 619 642 l 627 635 q 618 332 618 469 q 617 291 618 318 q 615 242 616 263 q 615 194 615 221 q 619 146 616 166 q 628 109 623 127 q 645 81 634 91 q 672 72 656 72 q 762 97 695 72 l 772 64 q 753 53 768 62 q 733 40 739 43 q 713 28 727 37 q 691 16 699 20 q 671 6 684 12 q 650 -4 659 -1 q 631 -11 642 -7 q 613 -16 621 -14 q 597 -17 605 -17 q 543 4 562 -17 q 518 65 525 26 l 497 71 q 271 -17 365 -17 q 174 8 216 -17 q 111 74 133 33 q 77 161 88 115 q 66 257 66 207 q 78 373 66 317 q 115 479 90 429 q 179 566 141 529 q 273 625 216 604 q 397 647 329 647 q 473 634 433 647 q 546 599 513 622 m 515 138 l 515 457 q 515 494 515 481 q 509 524 514 507 q 493 553 503 542 q 399 599 449 599 q 267 546 321 599 q 216 456 238 518 q 192 298 194 394 q 231 132 189 195 q 368 75 267 75 q 515 138 435 75 z "},"":{"ha":749,"x_min":66,"x_max":772,"o":"m 397 730 l 372 774 l 538 991 l 557 994 l 622 945 l 397 730 m 546 599 l 619 642 l 627 635 q 618 332 618 469 q 617 291 618 318 q 615 242 616 263 q 615 194 615 221 q 619 146 616 166 q 628 109 623 127 q 645 81 634 91 q 672 72 656 72 q 762 97 695 72 l 772 64 q 753 53 768 62 q 733 40 739 43 q 713 28 727 37 q 691 16 699 20 q 671 6 684 12 q 650 -4 659 -1 q 631 -11 642 -7 q 613 -16 621 -14 q 597 -17 605 -17 q 543 4 562 -17 q 518 65 525 26 l 497 71 q 271 -17 365 -17 q 174 8 216 -17 q 111 74 133 33 q 77 161 88 115 q 66 257 66 207 q 78 373 66 317 q 115 479 90 429 q 179 566 141 529 q 273 625 216 604 q 397 647 329 647 q 473 634 433 647 q 546 599 513 622 m 515 138 l 515 457 q 515 494 515 481 q 509 524 514 507 q 493 553 503 542 q 399 599 449 599 q 267 546 321 599 q 216 456 238 518 q 192 298 194 394 q 231 132 189 195 q 368 75 267 75 q 515 138 435 75 z "},"":{"ha":749,"x_min":66,"x_max":772,"o":"m 405 998 l 623 777 l 569 740 l 401 912 l 203 730 l 172 747 l 405 998 m 546 599 l 619 642 l 627 635 q 618 332 618 469 q 617 291 618 318 q 615 242 616 263 q 615 194 615 221 q 619 146 616 166 q 628 109 623 127 q 645 81 634 91 q 672 72 656 72 q 762 97 695 72 l 772 64 q 753 53 768 62 q 733 40 739 43 q 713 28 727 37 q 691 16 699 20 q 671 6 684 12 q 650 -4 659 -1 q 631 -11 642 -7 q 613 -16 621 -14 q 597 -17 605 -17 q 543 4 562 -17 q 518 65 525 26 l 497 71 q 271 -17 365 -17 q 174 8 216 -17 q 111 74 133 33 q 77 161 88 115 q 66 257 66 207 q 78 373 66 317 q 115 479 90 429 q 179 566 141 529 q 273 625 216 604 q 397 647 329 647 q 473 634 433 647 q 546 599 513 622 m 515 138 l 515 457 q 515 494 515 481 q 509 524 514 507 q 493 553 503 542 q 399 599 449 599 q 267 546 321 599 q 216 456 238 518 q 192 298 194 394 q 231 132 189 195 q 368 75 267 75 q 515 138 435 75 z "},"":{"ha":749,"x_min":66,"x_max":772,"o":"m 396 844 l 461 815 q 525 803 498 800 q 560 818 548 806 q 582 857 572 831 l 600 850 q 575 772 596 812 q 524 726 554 731 q 435 743 485 721 l 347 785 q 278 798 311 801 q 240 780 254 795 q 214 730 227 766 l 195 738 q 206 779 199 759 q 223 821 213 800 q 249 857 233 842 q 281 873 264 871 q 396 844 317 879 m 546 599 l 619 642 l 627 635 q 618 332 618 469 q 617 291 618 318 q 615 242 616 263 q 615 194 615 221 q 619 146 616 166 q 628 109 623 127 q 645 81 634 91 q 672 72 656 72 q 762 97 695 72 l 772 64 q 753 53 768 62 q 733 40 739 43 q 713 28 727 37 q 691 16 699 20 q 671 6 684 12 q 650 -4 659 -1 q 631 -11 642 -7 q 613 -16 621 -14 q 597 -17 605 -17 q 543 4 562 -17 q 518 65 525 26 l 497 71 q 271 -17 365 -17 q 174 8 216 -17 q 111 74 133 33 q 77 161 88 115 q 66 257 66 207 q 78 373 66 317 q 115 479 90 429 q 179 566 141 529 q 273 625 216 604 q 397 647 329 647 q 473 634 433 647 q 546 599 513 622 m 515 138 l 515 457 q 515 494 515 481 q 509 524 514 507 q 493 553 503 542 q 399 599 449 599 q 267 546 321 599 q 216 456 238 518 q 192 298 194 394 q 231 132 189 195 q 368 75 267 75 q 515 138 435 75 z "},"":{"ha":749,"x_min":66,"x_max":772,"o":"m 619 808 q 593 752 617 774 q 536 730 570 730 q 479 754 503 730 q 455 811 455 777 q 483 866 455 844 q 544 888 511 888 q 598 865 578 888 q 619 808 619 841 m 338 808 q 313 752 336 774 q 255 730 289 730 q 198 754 222 730 q 174 811 174 777 q 202 866 174 844 q 263 888 231 888 q 318 865 297 888 q 338 808 338 841 m 546 599 l 619 642 l 627 635 q 618 332 618 469 q 617 291 618 318 q 615 242 616 263 q 615 194 615 221 q 619 146 616 166 q 628 109 623 127 q 645 81 634 91 q 672 72 656 72 q 762 97 695 72 l 772 64 q 753 53 768 62 q 733 40 739 43 q 713 28 727 37 q 691 16 699 20 q 671 6 684 12 q 650 -4 659 -1 q 631 -11 642 -7 q 613 -16 621 -14 q 597 -17 605 -17 q 543 4 562 -17 q 518 65 525 26 l 497 71 q 271 -17 365 -17 q 174 8 216 -17 q 111 74 133 33 q 77 161 88 115 q 66 257 66 207 q 78 373 66 317 q 115 479 90 429 q 179 566 141 529 q 273 625 216 604 q 397 647 329 647 q 473 634 433 647 q 546 599 513 622 m 515 138 l 515 457 q 515 494 515 481 q 509 524 514 507 q 493 553 503 542 q 399 599 449 599 q 267 546 321 599 q 216 456 238 518 q 192 298 194 394 q 231 132 189 195 q 368 75 267 75 q 515 138 435 75 z "},"":{"ha":749,"x_min":66,"x_max":772,"o":"m 302 770 q 282 789 302 770 q 262 865 262 809 q 302 961 262 922 q 397 1000 341 1000 q 493 961 454 1000 q 532 865 532 922 q 493 770 532 809 q 397 730 454 730 q 302 770 341 730 m 332 931 q 318 918 332 931 q 304 865 304 904 q 332 799 304 827 q 397 772 359 772 q 463 799 436 772 q 490 865 490 827 q 463 931 490 904 q 397 958 436 958 q 332 931 359 958 m 546 599 l 619 642 l 627 635 q 618 332 618 469 q 617 291 618 318 q 615 242 616 263 q 615 194 615 221 q 619 146 616 166 q 628 109 623 127 q 645 81 634 91 q 672 72 656 72 q 762 97 695 72 l 772 64 q 753 53 768 62 q 733 40 739 43 q 713 28 727 37 q 691 16 699 20 q 671 6 684 12 q 650 -4 659 -1 q 631 -11 642 -7 q 613 -16 621 -14 q 597 -17 605 -17 q 543 4 562 -17 q 518 65 525 26 l 497 71 q 271 -17 365 -17 q 174 8 216 -17 q 111 74 133 33 q 77 161 88 115 q 66 257 66 207 q 78 373 66 317 q 115 479 90 429 q 179 566 141 529 q 273 625 216 604 q 397 647 329 647 q 473 634 433 647 q 546 599 513 622 m 515 138 l 515 457 q 515 494 515 481 q 509 524 514 507 q 493 553 503 542 q 399 599 449 599 q 267 546 321 599 q 216 456 238 518 q 192 298 194 394 q 231 132 189 195 q 368 75 267 75 q 515 138 435 75 z "},"":{"ha":1036,"x_min":66,"x_max":1028,"o":"m 993 443 l 602 273 q 616 205 605 238 q 648 143 627 173 q 702 96 668 113 q 781 78 736 78 q 994 172 873 78 l 1010 170 l 1028 144 q 711 -17 856 -17 q 525 92 584 -17 q 271 -17 376 -17 q 174 8 216 -17 q 111 74 133 33 q 77 161 88 115 q 66 257 66 207 q 78 373 66 317 q 115 479 90 429 q 179 566 141 529 q 273 625 216 604 q 397 647 329 647 q 501 625 447 647 q 576 566 555 604 q 691 638 626 613 q 825 664 755 664 q 968 609 913 664 q 1022 472 1022 554 q 1017 458 1022 464 q 1008 450 1013 452 q 993 443 1004 448 m 660 550 q 609 465 623 510 q 596 361 596 419 q 599 336 596 353 l 604 330 l 885 441 q 903 478 903 448 q 867 567 903 526 q 777 608 831 608 q 660 550 707 608 m 515 484 q 493 553 513 531 q 399 599 449 599 q 267 546 321 599 q 216 456 238 518 q 192 298 194 394 q 231 132 189 195 q 368 75 267 75 q 507 132 429 75 q 481 314 481 207 q 515 484 481 412 z "},"":{"ha":570,"x_min":12,"x_max":564,"o":"m 228 -14 l 278 -14 l 250 -79 q 302 -105 272 -87 q 350 -143 333 -122 q 380 -208 376 -174 q 359 -282 384 -242 q 139 -382 306 -352 l 131 -361 l 138 -347 q 237 -289 214 -318 q 234 -223 263 -253 q 156 -178 204 -193 l 228 -14 m 549 158 l 564 134 q 413 17 488 60 q 253 -26 338 -26 q 169 -15 206 -26 q 106 14 131 -4 q 63 60 81 32 q 36 114 45 87 q 20 176 26 140 q 14 239 15 212 q 12 301 12 266 q 111 559 12 458 q 364 660 210 660 q 475 622 431 660 q 525 524 519 584 l 450 450 l 427 458 q 386 567 418 528 q 309 606 354 606 q 210 565 252 606 q 148 467 168 525 q 127 345 127 408 q 132 269 127 305 q 150 195 136 233 q 184 129 163 157 q 241 83 205 101 q 323 65 277 65 q 536 161 425 65 l 549 158 z "},"":{"ha":602,"x_min":47,"x_max":595,"o":"m 391 747 l 416 790 l 250 1008 l 232 1010 l 167 961 l 391 747 m 227 550 q 176 465 189 510 q 163 361 163 419 q 165 336 163 353 l 171 330 l 452 441 q 469 478 469 448 q 434 567 469 526 q 343 608 398 608 q 227 550 274 608 m 559 443 l 168 273 q 183 205 172 238 q 214 143 194 173 q 269 96 235 113 q 347 78 303 78 q 561 172 440 78 l 576 170 l 595 144 q 278 -17 422 -17 q 183 3 224 -17 q 117 54 142 22 q 76 130 92 85 q 54 219 60 175 q 47 314 47 263 q 118 539 47 458 q 241 631 169 599 q 392 664 313 664 q 534 609 480 664 q 589 472 589 554 q 584 458 589 464 q 575 450 579 452 q 559 443 570 448 z "},"":{"ha":602,"x_min":47,"x_max":595,"o":"m 241 747 l 216 790 l 382 1008 l 400 1010 l 465 961 l 241 747 m 227 550 q 176 465 189 510 q 163 361 163 419 q 165 336 163 353 l 171 330 l 452 441 q 469 478 469 448 q 434 567 469 526 q 343 608 398 608 q 227 550 274 608 m 559 443 l 168 273 q 183 205 172 238 q 214 143 194 173 q 269 96 235 113 q 347 78 303 78 q 561 172 440 78 l 576 170 l 595 144 q 278 -17 422 -17 q 183 3 224 -17 q 117 54 142 22 q 76 130 92 85 q 54 219 60 175 q 47 314 47 263 q 118 539 47 458 q 241 631 169 599 q 392 664 313 664 q 534 609 480 664 q 589 472 589 554 q 584 458 589 464 q 575 450 579 452 q 559 443 570 448 z "},"":{"ha":602,"x_min":47,"x_max":595,"o":"m 332 1015 l 551 793 l 496 757 l 328 929 l 131 747 l 99 764 l 332 1015 m 227 550 q 176 465 189 510 q 163 361 163 419 q 165 336 163 353 l 171 330 l 452 441 q 469 478 469 448 q 434 567 469 526 q 343 608 398 608 q 227 550 274 608 m 559 443 l 168 273 q 183 205 172 238 q 214 143 194 173 q 269 96 235 113 q 347 78 303 78 q 561 172 440 78 l 576 170 l 595 144 q 278 -17 422 -17 q 183 3 224 -17 q 117 54 142 22 q 76 130 92 85 q 54 219 60 175 q 47 314 47 263 q 118 539 47 458 q 241 631 169 599 q 392 664 313 664 q 534 609 480 664 q 589 472 589 554 q 584 458 589 464 q 575 450 579 452 q 559 443 570 448 z "},"":{"ha":602,"x_min":47,"x_max":595,"o":"m 550 825 q 524 769 548 791 q 467 747 500 747 q 410 771 433 747 q 386 828 386 794 q 414 883 386 861 q 475 905 442 905 q 529 882 509 905 q 550 825 550 858 m 269 825 q 243 769 267 791 q 186 747 220 747 q 129 771 153 747 q 105 828 105 794 q 133 883 105 861 q 194 905 161 905 q 249 882 228 905 q 269 825 269 858 m 227 550 q 176 465 189 510 q 163 361 163 419 q 165 336 163 353 l 171 330 l 452 441 q 469 478 469 448 q 434 567 469 526 q 343 608 398 608 q 227 550 274 608 m 559 443 l 168 273 q 183 205 172 238 q 214 143 194 173 q 269 96 235 113 q 347 78 303 78 q 561 172 440 78 l 576 170 l 595 144 q 278 -17 422 -17 q 183 3 224 -17 q 117 54 142 22 q 76 130 92 85 q 54 219 60 175 q 47 314 47 263 q 118 539 47 458 q 241 631 169 599 q 392 664 313 664 q 534 609 480 664 q 589 472 589 554 q 584 458 589 464 q 575 450 579 452 q 559 443 570 448 z "},"":{"ha":358,"x_min":-69,"x_max":412,"o":"m 155 737 l 180 781 l 14 998 l -4 1001 l -69 951 l 155 737 m 216 545 l 205 253 q 219 130 205 170 q 267 90 232 90 q 332 106 302 90 q 395 153 361 122 l 412 139 l 412 123 q 216 -11 310 -11 q 173 -6 191 -11 q 139 15 156 -1 q 114 62 123 30 q 106 144 106 95 l 114 452 q 65 570 114 570 q -46 525 24 570 l -64 550 q 131 654 66 654 q 196 624 175 654 q 216 545 216 594 z "},"":{"ha":358,"x_min":-64,"x_max":412,"o":"m 156 737 l 131 781 l 297 998 l 315 1001 l 380 951 l 156 737 m 216 545 l 205 253 q 219 130 205 170 q 267 90 232 90 q 332 106 302 90 q 395 153 361 122 l 412 139 l 412 123 q 216 -11 310 -11 q 173 -6 191 -11 q 139 15 156 -1 q 114 62 123 30 q 106 144 106 95 l 114 452 q 65 570 114 570 q -46 525 24 570 l -64 550 q 131 654 66 654 q 196 624 175 654 q 216 545 216 594 z "},"":{"ha":358,"x_min":-71,"x_max":412,"o":"m 163 1005 l 381 783 l 327 747 l 159 919 l -39 737 l -71 754 l 163 1005 m 216 545 l 205 253 q 219 130 205 170 q 267 90 232 90 q 332 106 302 90 q 395 153 361 122 l 412 139 l 412 123 q 216 -11 310 -11 q 173 -6 191 -11 q 139 15 156 -1 q 114 62 123 30 q 106 144 106 95 l 114 452 q 65 570 114 570 q -46 525 24 570 l -64 550 q 131 654 66 654 q 196 624 175 654 q 216 545 216 594 z "},"":{"ha":358,"x_min":-67,"x_max":412,"o":"m 378 816 q 352 760 376 781 q 294 738 328 738 q 237 761 261 738 q 214 819 214 785 q 242 874 214 852 q 302 896 270 896 q 357 872 336 896 q 378 816 378 848 m 97 816 q 71 760 95 781 q 14 738 47 738 q -43 761 -20 738 q -67 819 -67 785 q -39 874 -67 852 q 22 896 -11 896 q 76 872 56 896 q 97 816 97 848 m 216 545 l 205 253 q 219 130 205 170 q 267 90 232 90 q 332 106 302 90 q 395 153 361 122 l 412 139 l 412 123 q 216 -11 310 -11 q 173 -6 191 -11 q 139 15 156 -1 q 114 62 123 30 q 106 144 106 95 l 114 452 q 65 570 114 570 q -46 525 24 570 l -64 550 q 131 654 66 654 q 196 624 175 654 q 216 545 216 594 z "},"":{"ha":679,"x_min":57,"x_max":640,"o":"m 498 201 q 497 428 516 298 q 456 589 485 513 q 343 599 391 606 q 274 574 304 593 q 224 528 243 555 q 193 469 205 501 q 177 400 181 437 q 173 330 173 364 q 179 264 174 296 q 191 215 183 241 q 216 156 199 189 q 255 100 233 124 q 311 62 277 76 q 383 54 345 48 q 461 103 433 62 q 498 201 489 145 m 373 873 l 528 956 l 546 901 l 418 833 q 467 779 443 808 q 596 494 571 651 q 524 85 640 220 q 375 -3 463 12 q 297 -10 330 -9 q 227 0 263 -10 q 164 35 191 11 q 99 129 125 68 q 64 243 72 189 q 60 349 57 296 q 82 449 62 401 q 132 537 102 498 q 211 603 162 576 q 321 640 260 631 q 433 640 369 647 l 437 647 q 354 800 399 739 l 184 710 l 167 764 l 317 844 q 220 920 275 887 l 239 950 q 373 873 309 926 z "},"":{"ha":818,"x_min":-36,"x_max":868,"o":"m 414 851 l 479 822 q 543 810 517 806 q 578 825 566 812 q 600 864 590 838 l 618 857 q 593 779 614 819 q 542 733 572 738 q 453 750 503 728 l 366 791 q 296 804 329 808 q 259 787 272 802 q 233 737 245 772 l 213 745 q 224 786 218 766 q 241 828 231 806 q 267 863 252 849 q 299 880 282 878 q 414 851 335 886 m 249 25 l 151 -8 l 131 1 q 143 414 143 319 q 133 534 143 495 q 92 574 123 574 q 60 566 78 574 q 27 550 41 559 q -12 525 13 542 l -36 555 q 29 602 5 585 q 90 636 52 618 q 151 654 127 654 q 222 629 199 654 q 252 559 245 604 l 262 551 q 401 624 338 597 q 525 652 465 652 q 632 611 597 652 q 651 546 645 595 q 659 458 658 496 q 660 355 660 420 q 661 174 660 191 q 688 93 665 109 q 726 83 702 83 q 838 139 765 83 l 856 139 l 868 110 q 756 22 815 58 q 650 -14 696 -14 q 550 109 550 -14 l 557 346 q 529 514 557 458 q 432 570 502 570 q 253 485 359 570 q 244 161 244 269 q 249 25 244 122 z "},"":{"ha":722,"x_min":45,"x_max":657,"o":"m 382 729 l 407 772 l 241 990 l 222 993 l 157 943 l 382 729 m 175 439 q 164 332 164 393 q 169 256 164 293 q 187 178 174 218 q 220 107 200 137 q 274 57 240 77 q 351 37 308 37 q 428 55 395 37 q 480 98 460 72 q 512 162 500 125 q 529 233 524 199 q 533 306 533 268 q 529 380 533 345 q 514 455 526 415 q 483 524 502 495 q 429 572 463 553 q 350 591 395 591 q 242 552 290 591 q 175 439 193 513 m 314 -20 q 193 5 245 -20 q 111 72 141 29 q 64 164 80 114 q 45 272 49 214 q 60 427 45 359 q 121 543 75 494 q 236 620 168 595 q 382 646 305 646 q 510 619 455 646 q 596 546 566 592 q 642 447 627 500 q 657 332 657 393 q 576 82 657 172 q 461 5 530 30 q 314 -20 393 -20 z "},"":{"ha":722,"x_min":45,"x_max":657,"o":"m 382 729 l 357 772 l 524 990 l 542 993 l 607 943 l 382 729 m 175 439 q 164 332 164 393 q 169 256 164 293 q 187 178 174 218 q 220 107 200 137 q 274 57 240 77 q 351 37 308 37 q 428 55 395 37 q 480 98 460 72 q 512 162 500 125 q 529 233 524 199 q 533 306 533 268 q 529 380 533 345 q 514 455 526 415 q 483 524 502 495 q 429 572 463 553 q 350 591 395 591 q 242 552 290 591 q 175 439 193 513 m 314 -20 q 193 5 245 -20 q 111 72 141 29 q 64 164 80 114 q 45 272 49 214 q 60 427 45 359 q 121 543 75 494 q 236 620 168 595 q 382 646 305 646 q 510 619 455 646 q 596 546 566 592 q 642 447 627 500 q 657 332 657 393 q 576 82 657 172 q 461 5 530 30 q 314 -20 393 -20 z "},"":{"ha":722,"x_min":45,"x_max":657,"o":"m 357 997 l 576 775 l 522 739 l 353 911 l 156 729 l 124 746 l 357 997 m 175 439 q 164 332 164 393 q 169 256 164 293 q 187 178 174 218 q 220 107 200 137 q 274 57 240 77 q 351 37 308 37 q 428 55 395 37 q 480 98 460 72 q 512 162 500 125 q 529 233 524 199 q 533 306 533 268 q 529 380 533 345 q 514 455 526 415 q 483 524 502 495 q 429 572 463 553 q 350 591 395 591 q 242 552 290 591 q 175 439 193 513 m 314 -20 q 193 5 245 -20 q 111 72 141 29 q 64 164 80 114 q 45 272 49 214 q 60 427 45 359 q 121 543 75 494 q 236 620 168 595 q 382 646 305 646 q 510 619 455 646 q 596 546 566 592 q 642 447 627 500 q 657 332 657 393 q 576 82 657 172 q 461 5 530 30 q 314 -20 393 -20 z "},"":{"ha":722,"x_min":45,"x_max":657,"o":"m 343 843 l 408 814 q 472 802 446 798 q 507 817 495 804 q 529 856 519 829 l 547 848 q 522 770 543 811 q 471 725 501 730 q 382 742 432 720 l 294 783 q 225 796 258 800 q 188 779 201 793 q 161 729 174 764 l 142 736 q 153 778 146 758 q 170 820 160 798 q 196 855 180 841 q 228 872 211 869 q 343 843 264 878 m 175 439 q 164 332 164 393 q 169 256 164 293 q 187 178 174 218 q 220 107 200 137 q 274 57 240 77 q 351 37 308 37 q 428 55 395 37 q 480 98 460 72 q 512 162 500 125 q 529 233 524 199 q 533 306 533 268 q 529 380 533 345 q 514 455 526 415 q 483 524 502 495 q 429 572 463 553 q 350 591 395 591 q 242 552 290 591 q 175 439 193 513 m 314 -20 q 193 5 245 -20 q 111 72 141 29 q 64 164 80 114 q 45 272 49 214 q 60 427 45 359 q 121 543 75 494 q 236 620 168 595 q 382 646 305 646 q 510 619 455 646 q 596 546 566 592 q 642 447 627 500 q 657 332 657 393 q 576 82 657 172 q 461 5 530 30 q 314 -20 393 -20 z "},"":{"ha":722,"x_min":45,"x_max":657,"o":"m 583 807 q 557 751 581 772 q 500 729 534 729 q 443 752 467 729 q 419 810 419 776 q 447 865 419 843 q 508 887 475 887 q 563 863 542 887 q 583 807 583 840 m 302 807 q 277 751 300 772 q 219 729 253 729 q 162 752 186 729 q 138 810 138 776 q 166 865 138 843 q 227 887 195 887 q 282 863 261 887 q 302 807 302 840 m 175 439 q 164 332 164 393 q 169 256 164 293 q 187 178 174 218 q 220 107 200 137 q 274 57 240 77 q 351 37 308 37 q 428 55 395 37 q 480 98 460 72 q 512 162 500 125 q 529 233 524 199 q 533 306 533 268 q 529 380 533 345 q 514 455 526 415 q 483 524 502 495 q 429 572 463 553 q 350 591 395 591 q 242 552 290 591 q 175 439 193 513 m 314 -20 q 193 5 245 -20 q 111 72 141 29 q 64 164 80 114 q 45 272 49 214 q 60 427 45 359 q 121 543 75 494 q 236 620 168 595 q 382 646 305 646 q 510 619 455 646 q 596 546 566 592 q 642 447 627 500 q 657 332 657 393 q 576 82 657 172 q 461 5 530 30 q 314 -20 393 -20 z "},"":{"ha":1050,"x_min":64,"x_max":986,"o":"m 606 -3 q 580 -59 604 -37 q 522 -81 556 -81 q 465 -57 488 -81 q 441 0 441 -34 q 470 56 441 34 q 530 78 498 78 q 585 54 564 78 q 606 -3 606 30 m 606 714 q 580 658 604 680 q 522 636 556 636 q 465 660 488 636 q 441 717 441 684 q 470 772 441 750 q 530 794 498 794 q 585 770 564 794 q 606 714 606 747 m 978 328 l 64 328 l 74 383 l 986 383 l 978 328 z "},"":{"ha":722,"x_min":45,"x_max":657,"o":"m 519 732 l 528 717 l 489 628 q 510 618 500 624 q 596 546 566 592 q 642 447 627 500 q 657 332 657 393 q 576 82 657 172 q 461 5 530 30 q 314 -20 393 -20 q 216 -5 260 -20 l 164 -123 l 119 -113 l 117 -93 l 165 20 q 111 72 132 41 q 64 164 80 114 q 45 272 49 214 q 60 427 45 359 q 121 543 75 494 q 236 620 168 595 q 382 646 305 646 q 434 642 409 646 l 475 736 l 489 739 l 519 732 m 175 439 q 164 332 164 393 q 169 256 164 293 q 187 178 174 218 q 210 123 197 148 l 408 582 q 350 591 382 591 q 242 552 290 591 q 175 439 193 513 m 456 553 l 250 74 q 274 57 260 64 q 351 37 308 37 q 428 55 395 37 q 480 98 460 72 q 512 162 500 125 q 529 233 524 199 q 533 306 533 268 q 529 380 533 345 q 514 455 526 415 q 483 524 502 495 q 456 553 472 540 z "},"":{"ha":734,"x_min":-89,"x_max":822,"o":"m 418 736 l 443 779 l 277 997 l 258 1000 l 193 950 l 418 736 m 807 146 l 822 119 q 749 58 779 82 q 675 12 719 35 q 599 -11 631 -11 q 503 89 512 -11 l 492 90 q 231 -14 321 -14 q 158 1 188 -14 q 113 42 127 16 q 91 95 98 68 q 85 155 85 123 q 87 271 85 179 q 90 382 90 363 q 85 504 90 473 q 66 550 81 534 q 28 562 56 562 q -71 521 1 562 l -89 549 q -26 596 -47 581 q 34 630 -5 611 q 100 650 73 650 q 174 614 155 650 q 193 476 191 582 q 192 406 193 455 q 192 339 192 363 q 201 174 192 218 q 284 74 218 88 q 317 71 300 71 q 382 84 346 71 q 439 109 418 97 q 498 144 460 121 q 499 298 498 189 q 500 457 500 407 q 498 604 500 575 l 606 653 l 624 637 q 607 252 607 436 q 607 210 607 224 q 609 173 608 195 q 615 138 611 150 q 627 114 620 127 q 646 96 634 101 q 675 90 659 90 q 796 149 717 90 l 807 146 z "},"":{"ha":734,"x_min":-89,"x_max":822,"o":"m 332 736 l 307 779 l 473 997 l 492 1000 l 557 950 l 332 736 m 807 146 l 822 119 q 749 58 779 82 q 675 12 719 35 q 599 -11 631 -11 q 503 89 512 -11 l 492 90 q 231 -14 321 -14 q 158 1 188 -14 q 113 42 127 16 q 91 95 98 68 q 85 155 85 123 q 87 271 85 179 q 90 382 90 363 q 85 504 90 473 q 66 550 81 534 q 28 562 56 562 q -71 521 1 562 l -89 549 q -26 596 -47 581 q 34 630 -5 611 q 100 650 73 650 q 174 614 155 650 q 193 476 191 582 q 192 406 193 455 q 192 339 192 363 q 201 174 192 218 q 284 74 218 88 q 317 71 300 71 q 382 84 346 71 q 439 109 418 97 q 498 144 460 121 q 499 298 498 189 q 500 457 500 407 q 498 604 500 575 l 606 653 l 624 637 q 607 252 607 436 q 607 210 607 224 q 609 173 608 195 q 615 138 611 150 q 627 114 620 127 q 646 96 634 101 q 675 90 659 90 q 796 149 717 90 l 807 146 z "},"":{"ha":734,"x_min":-89,"x_max":822,"o":"m 361 1004 l 580 782 l 526 745 l 357 918 l 160 736 l 128 753 l 361 1004 m 807 146 l 822 119 q 749 58 779 82 q 675 12 719 35 q 599 -11 631 -11 q 503 89 512 -11 l 492 90 q 231 -14 321 -14 q 158 1 188 -14 q 113 42 127 16 q 91 95 98 68 q 85 155 85 123 q 87 271 85 179 q 90 382 90 363 q 85 504 90 473 q 66 550 81 534 q 28 562 56 562 q -71 521 1 562 l -89 549 q -26 596 -47 581 q 34 630 -5 611 q 100 650 73 650 q 174 614 155 650 q 193 476 191 582 q 192 406 193 455 q 192 339 192 363 q 201 174 192 218 q 284 74 218 88 q 317 71 300 71 q 382 84 346 71 q 439 109 418 97 q 498 144 460 121 q 499 298 498 189 q 500 457 500 407 q 498 604 500 575 l 606 653 l 624 637 q 607 252 607 436 q 607 210 607 224 q 609 173 608 195 q 615 138 611 150 q 627 114 620 127 q 646 96 634 101 q 675 90 659 90 q 796 149 717 90 l 807 146 z "},"":{"ha":734,"x_min":-89,"x_max":822,"o":"m 571 814 q 545 758 569 780 q 488 736 522 736 q 431 760 454 736 q 407 817 407 783 q 435 872 407 850 q 496 895 463 895 q 550 871 530 895 q 571 814 571 847 m 290 814 q 264 758 288 780 q 207 736 241 736 q 150 760 174 736 q 126 817 126 783 q 154 872 126 850 q 215 895 182 895 q 270 871 249 895 q 290 814 290 847 m 807 146 l 822 119 q 749 58 779 82 q 675 12 719 35 q 599 -11 631 -11 q 503 89 512 -11 l 492 90 q 231 -14 321 -14 q 158 1 188 -14 q 113 42 127 16 q 91 95 98 68 q 85 155 85 123 q 87 271 85 179 q 90 382 90 363 q 85 504 90 473 q 66 550 81 534 q 28 562 56 562 q -71 521 1 562 l -89 549 q -26 596 -47 581 q 34 630 -5 611 q 100 650 73 650 q 174 614 155 650 q 193 476 191 582 q 192 406 193 455 q 192 339 192 363 q 201 174 192 218 q 284 74 218 88 q 317 71 300 71 q 382 84 346 71 q 439 109 418 97 q 498 144 460 121 q 499 298 498 189 q 500 457 500 407 q 498 604 500 575 l 606 653 l 624 637 q 607 252 607 436 q 607 210 607 224 q 609 173 608 195 q 615 138 611 150 q 627 114 620 127 q 646 96 634 101 q 675 90 659 90 q 796 149 717 90 l 807 146 z "},"":{"ha":720,"x_min":-78,"x_max":628,"o":"m 336 733 l 311 777 l 477 994 l 496 997 l 561 947 l 336 733 m 81 -253 l 78 -237 l 139 -160 l 157 -160 q 219 -236 181 -205 q 301 -267 258 -267 q 377 -251 344 -267 q 431 -213 411 -235 q 465 -158 450 -191 q 486 -101 479 -125 q 497 -47 492 -77 q 509 89 506 3 l 500 96 q 415 44 448 63 q 331 7 382 26 q 239 -11 280 -11 q 189 -3 211 -11 q 151 18 166 5 q 125 50 136 31 q 109 89 115 70 q 99 133 102 108 q 95 176 96 157 q 94 218 94 195 q 97 311 94 249 q 100 408 100 373 q 98 476 100 450 q 89 526 96 503 q 70 559 83 549 q 36 570 57 570 q -62 530 12 570 l -78 557 q 115 650 57 650 q 180 622 158 650 q 203 553 203 594 q 200 434 203 514 q 197 314 197 355 q 209 179 200 222 q 236 114 218 137 q 323 78 264 78 q 392 91 354 78 q 451 116 430 104 q 510 150 473 127 q 513 298 513 248 q 501 595 513 432 l 611 647 l 628 642 q 619 371 621 529 q 615 101 618 214 q 599 -68 612 -11 q 470 -260 563 -196 q 257 -323 376 -323 q 159 -303 209 -323 q 81 -253 109 -283 z "},"":{"ha":701,"x_min":-79,"x_max":657,"o":"m 214 -286 l 102 -329 l 87 -314 q 96 131 96 -217 l 96 437 q 83 532 96 492 q 41 572 70 572 q -60 532 9 572 l -79 558 q 110 653 39 653 q 201 528 198 653 q 203 432 203 485 l 214 427 q 467 529 342 529 q 541 515 507 529 q 595 477 574 500 q 631 424 616 454 q 651 361 645 393 q 657 297 657 330 q 630 144 657 220 q 557 6 604 67 q 443 -94 511 -56 q 296 -132 374 -132 q 218 -121 263 -132 l 204 -132 q 214 -286 208 -229 m 203 -25 q 325 -77 259 -77 q 412 -59 374 -77 q 473 -12 450 -41 q 513 55 497 16 q 534 134 528 94 q 541 215 541 173 q 501 376 541 309 q 397 443 462 443 q 301 423 347 443 q 204 363 256 404 q 203 286 204 359 q 201 203 201 212 q 201 155 201 180 q 202 108 201 130 q 202 66 202 86 q 202 29 202 45 q 202 1 202 13 q 203 -18 203 -12 l 203 -25 z "},"":{"ha":720,"x_min":-78,"x_max":628,"o":"m 562 811 q 536 755 560 777 q 479 733 513 733 q 422 756 446 733 q 398 814 398 780 q 426 869 398 847 q 487 891 454 891 q 542 867 521 891 q 562 811 562 844 m 281 811 q 256 755 279 777 q 198 733 232 733 q 141 756 165 733 q 117 814 117 780 q 145 869 117 847 q 206 891 174 891 q 261 867 240 891 q 281 811 281 844 m 81 -253 l 78 -237 l 139 -160 l 157 -160 q 219 -236 181 -205 q 301 -267 258 -267 q 377 -251 344 -267 q 431 -213 411 -235 q 465 -158 450 -191 q 486 -101 479 -125 q 497 -47 492 -77 q 509 89 506 3 l 500 96 q 415 44 448 63 q 331 7 382 26 q 239 -11 280 -11 q 189 -3 211 -11 q 151 18 166 5 q 125 50 136 31 q 109 89 115 70 q 99 133 102 108 q 95 176 96 157 q 94 218 94 195 q 97 311 94 249 q 100 408 100 373 q 98 476 100 450 q 89 526 96 503 q 70 559 83 549 q 36 570 57 570 q -62 530 12 570 l -78 557 q 115 650 57 650 q 180 622 158 650 q 203 553 203 594 q 200 434 203 514 q 197 314 197 355 q 209 179 200 222 q 236 114 218 137 q 323 78 264 78 q 392 91 354 78 q 451 116 430 104 q 510 150 473 127 q 513 298 513 248 q 501 595 513 432 l 611 647 l 628 642 q 619 371 621 529 q 615 101 618 214 q 599 -68 612 -11 q 470 -260 563 -196 q 257 -323 376 -323 q 159 -303 209 -323 q 81 -253 109 -283 z "},"":{"ha":358,"x_min":-64,"x_max":412,"o":"m 216 545 l 205 253 q 219 130 205 170 q 267 90 232 90 q 332 106 302 90 q 395 153 361 122 l 412 139 l 412 123 q 216 -11 310 -11 q 173 -6 191 -11 q 139 15 156 -1 q 114 62 123 30 q 106 144 106 95 l 114 452 q 65 570 114 570 q -46 525 24 570 l -64 550 q 131 654 66 654 q 196 624 175 654 q 216 545 216 594 z "},"":{"ha":1396,"x_min":65,"x_max":1388,"o":"m 195 484 q 219 291 195 376 q 304 139 243 205 q 526 32 401 32 q 648 57 593 32 q 738 125 702 83 q 794 216 770 164 l 794 718 q 738 815 770 773 q 647 889 702 861 q 524 917 591 917 q 397 892 454 917 q 304 825 341 867 q 241 727 267 783 q 205 610 216 671 q 195 484 195 549 m 1244 467 q 1080 475 1136 475 q 1053 475 1070 475 q 1025 475 1036 475 q 998 475 1014 475 q 972 474 983 475 q 949 473 962 474 q 929 471 937 473 q 915 467 922 469 q 905 462 908 465 q 901 454 901 458 l 901 261 q 922 106 901 143 q 964 70 937 79 q 1055 61 991 61 q 1381 81 1153 61 l 1388 74 l 1369 0 l 637 0 q 453 -25 551 -25 q 303 2 370 -25 q 193 73 237 28 q 120 178 149 117 q 78 305 90 239 q 65 441 65 370 q 97 673 65 578 q 205 850 129 768 q 363 944 267 916 q 568 972 459 972 q 728 947 652 972 q 728 946 728 946 l 890 947 q 1065 951 944 947 q 1226 956 1186 955 q 1291 954 1272 956 l 1287 885 l 1282 875 q 991 889 1031 889 l 936 889 q 903 783 903 882 l 903 553 q 904 546 903 549 q 908 541 905 543 q 915 537 911 538 q 924 535 918 536 q 935 533 930 534 q 948 533 939 533 q 962 533 956 533 q 978 533 968 533 q 994 533 987 533 q 1244 543 1106 533 l 1253 533 l 1244 467 z "},"":{"ha":1090,"x_min":45,"x_max":1082,"o":"m 175 439 q 164 332 164 393 q 169 256 164 293 q 187 178 174 218 q 220 107 200 137 q 274 57 240 77 q 351 37 308 37 q 428 55 395 37 q 480 98 460 72 q 512 162 500 125 q 529 233 524 199 q 533 306 533 268 q 529 380 533 345 q 514 455 526 415 q 483 524 502 495 q 429 572 463 553 q 350 591 395 591 q 242 552 290 591 q 175 439 193 513 m 1047 443 l 656 273 q 670 205 659 238 q 702 143 682 173 q 756 96 722 113 q 835 78 791 78 q 1048 172 928 78 l 1064 170 l 1082 144 q 765 -17 909 -17 q 670 3 711 -17 q 604 54 629 22 q 581 87 591 69 q 576 82 579 85 q 461 5 530 30 q 314 -20 393 -20 q 193 5 245 -20 q 111 72 141 29 q 64 164 80 114 q 45 272 49 214 q 60 427 45 359 q 121 543 75 494 q 236 620 168 595 q 382 646 305 646 q 545 598 482 646 q 603 536 579 572 q 606 539 604 538 q 728 631 656 599 q 879 664 800 664 q 1022 609 967 664 q 1076 472 1076 554 q 1072 458 1076 464 q 1062 450 1067 452 q 1047 443 1058 448 m 714 550 q 663 464 677 509 q 650 361 650 419 q 653 336 650 357 l 659 330 l 939 441 q 957 478 957 448 q 921 567 957 526 q 831 608 886 608 q 714 550 762 608 z "},"":{"ha":0,"x_min":-125,"x_max":125,"o":"m 100 676 l 125 720 l -41 937 l -60 940 l -125 890 l 100 676 z "},"":{"ha":0,"x_min":-125,"x_max":125,"o":"m -100 676 l -125 720 l 41 937 l 60 940 l 125 890 l -100 676 z "},"":{"ha":0,"x_min":-226,"x_max":226,"o":"m 7 933 l 226 711 l 172 675 l 3 847 l -194 665 l -226 682 l 7 933 z "},"":{"ha":0,"x_min":-204,"x_max":201,"o":"m -3 847 l 62 818 q 126 806 100 802 q 161 821 149 808 q 183 860 173 833 l 201 852 q 176 774 197 815 q 125 729 155 734 q 36 746 86 724 l -52 787 q -121 800 -88 804 q -158 783 -145 798 q -184 733 -172 768 l -204 741 q -193 782 -199 762 q -176 824 -186 802 q -150 859 -165 845 q -118 876 -135 873 q -3 847 -82 882 z "},"":{"ha":0,"x_min":-168,"x_max":168,"o":"m 160 771 l -168 771 l -158 827 l 168 827 l 160 771 z "},"":{"ha":0,"x_min":-222,"x_max":222,"o":"m 222 799 q 197 743 220 764 q 139 721 173 721 q 82 744 106 721 q 58 802 58 768 q 86 857 58 835 q 147 879 115 879 q 202 855 181 879 q 222 799 222 831 m -58 799 q -84 743 -60 764 q -142 721 -108 721 q -199 744 -175 721 q -222 802 -222 768 q -194 857 -222 835 q -134 879 -166 879 q -79 855 -100 879 q -58 799 -58 831 z "},"":{"ha":0,"x_min":-135,"x_max":135,"o":"m -96 703 q -115 723 -96 703 q -135 799 -135 743 q -96 894 -135 855 q 0 933 -56 933 q 96 894 56 933 q 135 799 135 855 q 96 703 135 743 q 0 664 56 664 q -96 703 -56 664 m -66 865 q -79 851 -66 865 q -93 799 -93 838 q -66 733 -93 760 q 0 705 -39 705 q 66 733 39 705 q 93 799 93 760 q 66 865 93 838 q 0 892 39 892 q -66 865 -39 892 z "},"":{"ha":0,"x_min":-125,"x_max":128,"o":"m -28 8 l 22 8 l -5 -57 q 47 -82 16 -65 q 94 -121 77 -100 q 124 -186 120 -152 q 103 -260 128 -220 q -117 -359 50 -330 l -125 -339 l -118 -325 q -18 -267 -41 -296 q -22 -200 7 -231 q -100 -155 -52 -170 l -28 8 z "},"":{"ha":387,"x_min":51,"x_max":306,"o":"m 305 199 q 187 1 296 9 q 91 72 131 -9 q 180 537 51 153 l 180 540 l 223 583 q 184 428 220 561 q 172 210 149 295 q 285 208 195 125 q 302 210 298 214 q 305 199 306 206 z "},"":{"ha":387,"x_min":51,"x_max":325,"o":"m 79 118 l 201 245 q 210 250 205 250 q 219 246 214 250 l 320 149 q 325 140 325 144 q 321 132 325 136 l 197 4 q 189 0 193 0 q 180 3 184 0 l 79 101 q 75 110 75 105 q 79 118 75 114 m 187 319 q 91 390 131 309 q 180 855 51 471 l 180 858 l 223 901 q 184 746 220 879 q 172 528 149 613 q 285 526 195 443 q 302 528 298 532 q 305 517 306 524 q 187 319 296 327 z "},"":{"ha":479,"x_min":50,"x_max":446,"o":"m 446 1050 q 419 961 433 1005 q 386 875 404 917 q 368 861 382 866 q 361 859 364 859 q 354 869 355 859 q 240 971 346 966 l 231 971 q 124 937 170 971 q 166 850 134 884 q 230 783 198 815 q 318 675 278 734 q 367 528 358 616 q 336 387 363 446 q 280 271 309 328 q 271 267 277 267 q 269 266 269 266 q 265 269 265 266 q 266 273 265 271 q 281 367 281 322 q 261 465 281 419 q 169 602 224 551 q 103 671 134 633 q 54 756 73 709 q 50 808 50 781 q 105 1011 50 900 q 304 1145 171 1145 q 322 1145 313 1145 q 390 1119 363 1142 q 435 1068 417 1097 q 438 1059 437 1064 q 446 1050 439 1055 m 148 118 l 271 245 q 279 250 275 250 q 288 246 283 250 l 389 149 q 394 140 394 144 q 390 132 394 136 l 267 4 q 258 0 262 0 q 249 3 254 0 l 149 101 q 144 110 144 105 q 148 118 144 114 z "},"":{"ha":599,"x_min":68,"x_max":531,"o":"m 452 452 q 388 432 416 443 q 328 395 359 421 q 380 353 346 365 q 440 328 415 342 q 470 288 466 314 q 471 282 471 285 q 431 201 471 255 q 359 103 395 152 q 270 25 323 54 q 176 3 237 7 q 117 1 143 1 q 80 2 96 1 q 68 8 68 3 q 86 26 68 14 q 171 71 119 47 q 272 115 223 95 q 324 137 321 136 q 343 151 341 144 l 343 154 q 317 173 343 167 q 244 208 271 184 q 210 267 210 237 q 212 281 210 274 q 246 357 222 318 q 368 500 292 431 q 507 591 444 569 q 522 594 517 594 q 531 587 531 594 q 530 583 531 585 q 511 539 527 566 q 476 487 496 513 q 452 452 456 460 z "},"":{"ha":345,"x_min":-64,"x_max":407,"o":"m 102 790 l 204 953 l 243 363 l 141 200 l 102 790 m 407 1173 l 346 1095 q 210 1046 295 1063 q 159 1040 184 1040 q 51 1067 102 1040 q 39 1070 45 1070 q 27 1067 33 1070 q 6 1054 16 1059 q -49 1005 -14 1042 q -64 993 -60 993 q -64 994 -64 993 q -41 1042 -64 1002 q 68 1142 -5 1105 q 75 1143 71 1143 q 92 1139 82 1143 q 208 1111 147 1111 q 263 1116 235 1111 q 401 1177 354 1135 q 405 1179 404 1179 q 407 1173 407 1179 z "},"":{"ha":345,"x_min":41,"x_max":248,"o":"m 102 790 l 204 953 l 243 363 l 141 200 l 102 790 m 218 1247 q 189 1219 210 1228 q 152 1189 168 1211 q 185 1169 164 1175 q 222 1154 206 1164 q 241 1122 241 1141 q 235 1097 241 1110 q 182 1033 220 1060 q 114 1004 149 1009 q 41 992 78 998 q 106 1021 73 1006 q 170 1052 139 1035 q 179 1063 179 1058 q 176 1067 179 1065 q 150 1080 164 1074 q 123 1093 135 1086 q 98 1131 98 1107 q 127 1196 98 1157 q 212 1291 184 1270 q 248 1310 224 1299 l 218 1247 z "},"":{"ha":683,"x_min":0,"x_max":680,"o":"m 319 12 q 191 0 256 0 q 163 1 177 0 q 7 12 83 3 q 0 20 0 12 q 6 31 0 27 q 235 137 114 91 q 477 233 357 184 q 583 307 538 257 q 586 319 586 311 q 585 331 586 324 q 573 359 581 348 q 522 353 549 353 q 501 354 511 353 q 445 377 463 357 q 429 416 429 394 q 442 462 429 437 q 486 555 465 507 q 541 640 507 603 q 566 652 551 652 q 580 650 572 652 q 616 629 604 641 q 680 471 680 563 l 680 462 q 628 270 677 363 q 495 103 578 176 q 319 12 412 30 m 587 991 q 557 963 578 972 q 520 932 536 954 q 553 913 532 918 q 591 897 574 907 q 609 865 609 885 q 604 841 609 854 q 550 777 588 804 q 482 747 517 753 q 409 736 446 742 q 474 764 441 750 q 538 795 507 779 q 547 806 547 802 q 545 810 547 808 q 518 824 532 817 q 492 837 503 830 q 466 875 466 850 q 496 939 466 901 q 581 1034 553 1013 q 616 1054 592 1043 l 587 991 z "},"":{"ha":345,"x_min":52,"x_max":259,"o":"m 102 790 l 204 953 l 243 363 l 141 200 l 102 790 z "},"":{"ha":855,"x_min":2,"x_max":854,"o":"m 109 33 q 6 170 18 82 q 2 226 2 197 q 21 353 2 288 q 98 537 48 449 q 183 673 148 625 q 189 677 186 677 q 193 676 191 677 q 195 672 195 675 q 194 667 195 670 q 142 567 174 624 q 92 450 111 509 q 78 359 78 404 q 79 332 78 345 q 138 233 85 275 q 267 191 185 197 q 312 190 290 190 q 421 200 369 190 q 716 315 583 229 q 588 347 646 322 q 513 428 530 372 q 510 456 510 441 q 558 596 510 510 q 664 748 620 706 q 712 790 683 767 q 779 814 742 812 q 792 812 783 814 q 799 806 799 811 q 798 800 799 803 q 766 724 780 763 q 731 652 751 685 q 710 654 721 654 q 669 647 691 654 q 618 611 633 634 q 610 589 610 600 q 621 560 610 575 q 722 509 639 532 q 782 497 751 501 q 831 473 813 492 q 854 417 854 449 q 821 329 854 379 q 691 189 777 260 q 502 68 604 118 q 295 3 399 18 q 243 -1 268 -1 q 109 33 170 -1 m 448 1009 q 418 981 439 990 q 381 951 397 972 q 414 931 393 937 q 452 916 435 926 q 470 884 470 903 q 465 859 470 872 q 411 795 449 822 q 343 766 378 771 q 270 754 307 760 q 335 783 302 768 q 399 814 368 797 q 408 825 408 820 q 406 829 408 827 q 379 842 393 836 q 353 855 364 848 q 327 893 327 869 q 357 958 327 919 q 441 1053 414 1031 q 477 1072 453 1061 l 448 1009 z "},"":{"ha":345,"x_min":102,"x_max":243,"o":"m 102 790 l 204 953 l 243 363 l 141 200 l 102 790 z "},"":{"ha":1113,"x_min":102,"x_max":1011,"o":"m 970 298 q 802 130 926 206 q 539 21 678 54 q 382 1 457 1 q 277 12 328 1 q 115 143 155 35 q 102 220 102 180 q 130 339 102 276 q 228 525 177 445 q 246 537 237 537 q 253 536 250 537 q 260 524 260 532 q 256 508 260 517 q 199 333 199 401 q 201 309 199 320 q 276 203 214 236 q 425 172 335 172 q 434 172 429 172 q 629 198 530 174 q 816 264 728 222 l 903 307 l 903 310 q 889 384 903 336 q 860 475 874 433 l 966 633 l 1000 531 q 1011 456 1011 495 q 970 298 1011 383 z "},"":{"ha":343,"x_min":1,"x_max":375,"o":"m 192 370 q 163 380 177 380 q 103 326 130 380 q 60 230 64 245 q 60 227 60 228 q 79 210 60 218 q 128 199 103 199 q 163 204 146 199 q 237 235 207 216 q 245 252 245 239 q 231 303 245 269 q 192 370 205 361 m 301 234 q 248 93 284 157 q 125 7 212 29 q 73 -1 96 -1 q 1 79 1 -1 q 2 81 1 80 q 43 308 3 187 q 160 535 102 481 q 228 571 197 571 q 257 562 243 571 q 312 443 297 534 q 317 372 317 409 q 301 234 317 309 m 292 723 q 158 698 224 711 q 25 673 92 686 l 108 839 q 375 888 253 865 l 292 723 z "},"":{"ha":1113,"x_min":102,"x_max":1011,"o":"m 970 298 q 802 130 926 206 q 539 21 678 54 q 382 1 457 1 q 277 12 328 1 q 115 143 155 35 q 102 220 102 180 q 130 339 102 276 q 228 525 177 445 q 246 537 237 537 q 253 536 250 537 q 260 524 260 532 q 256 508 260 517 q 199 333 199 401 q 201 309 199 320 q 276 203 214 236 q 425 172 335 172 q 434 172 429 172 q 629 198 530 174 q 816 264 728 222 l 903 307 l 903 310 q 889 384 903 336 q 860 475 874 433 l 966 633 l 1000 531 q 1011 456 1011 495 q 970 298 1011 383 m 642 650 q 509 625 575 637 q 376 600 442 612 l 458 766 q 726 815 604 791 l 642 650 z "},"":{"ha":1113,"x_min":102,"x_max":1011,"o":"m 970 298 q 802 130 926 206 q 539 21 678 54 q 382 1 457 1 q 277 12 328 1 q 115 143 155 35 q 102 220 102 180 q 130 339 102 276 q 228 525 177 445 q 246 537 237 537 q 253 536 250 537 q 260 524 260 532 q 256 508 260 517 q 199 333 199 401 q 201 309 199 320 q 276 203 214 236 q 425 172 335 172 q 434 172 429 172 q 629 198 530 174 q 816 264 728 222 l 903 307 l 903 310 q 889 384 903 336 q 860 475 874 433 l 966 633 l 1000 531 q 1011 456 1011 495 q 970 298 1011 383 m 756 806 q 709 723 736 763 q 654 648 682 684 q 645 642 650 642 q 633 655 639 642 q 569 727 604 727 l 565 727 q 491 682 527 722 q 427 589 456 642 q 385 519 398 537 l 385 580 l 386 582 q 439 677 404 616 q 518 796 475 739 q 608 886 561 853 q 648 899 628 899 q 707 871 677 899 q 756 806 734 845 z "},"":{"ha":949,"x_min":-1,"x_max":901,"o":"m 537 553 q 444 605 519 605 q 414 604 430 605 q 281 567 312 592 q 321 493 296 528 q 361 422 345 459 q 452 486 404 453 q 537 553 501 519 m 900 -257 q 676 -424 815 -359 q 397 -498 536 -489 q 357 -500 376 -500 q 146 -453 241 -500 q 7 -263 35 -399 q -1 -187 -1 -226 q 68 68 -1 -69 q 252 337 159 251 q 194 490 194 402 q 201 551 194 519 q 295 729 226 680 q 434 776 340 761 q 495 781 466 781 q 595 762 551 781 q 639 693 639 744 q 625 627 639 665 q 560 481 587 520 q 484 394 526 433 q 401 319 441 355 q 304 232 372 293 q 176 99 237 171 q 82 -45 115 26 q 67 -104 67 -77 q 90 -162 67 -136 q 259 -275 160 -241 q 465 -313 357 -309 q 502 -313 484 -313 q 682 -298 591 -313 q 881 -257 790 -280 q 898 -254 893 -254 q 901 -255 901 -254 q 900 -257 901 -256 z "},"":{"ha":949,"x_min":-1,"x_max":901,"o":"m 537 553 q 444 605 519 605 q 414 604 430 605 q 281 567 312 592 q 321 493 296 528 q 361 422 345 459 q 452 486 404 453 q 537 553 501 519 m 900 -257 q 676 -424 815 -359 q 397 -498 536 -489 q 357 -500 376 -500 q 146 -453 241 -500 q 7 -263 35 -399 q -1 -187 -1 -226 q 68 68 -1 -69 q 252 337 159 251 q 194 490 194 402 q 201 551 194 519 q 295 729 226 680 q 434 776 340 761 q 495 781 466 781 q 595 762 551 781 q 639 693 639 744 q 625 627 639 665 q 560 481 587 520 q 484 394 526 433 q 401 319 441 355 q 304 232 372 293 q 176 99 237 171 q 82 -45 115 26 q 67 -104 67 -77 q 90 -162 67 -136 q 259 -275 160 -241 q 465 -313 357 -309 q 502 -313 484 -313 q 682 -298 591 -313 q 881 -257 790 -280 q 898 -254 893 -254 q 901 -255 901 -254 q 900 -257 901 -256 z "},"":{"ha":949,"x_min":-1,"x_max":901,"o":"m 537 553 q 444 605 519 605 q 414 604 430 605 q 281 567 312 592 q 321 493 296 528 q 361 422 345 459 q 452 486 404 453 q 537 553 501 519 m 900 -257 q 676 -424 815 -359 q 397 -498 536 -489 q 357 -500 376 -500 q 146 -453 241 -500 q 7 -263 35 -399 q -1 -187 -1 -226 q 68 68 -1 -69 q 252 337 159 251 q 194 490 194 402 q 201 551 194 519 q 295 729 226 680 q 434 776 340 761 q 495 781 466 781 q 595 762 551 781 q 639 693 639 744 q 625 627 639 665 q 560 481 587 520 q 484 394 526 433 q 401 319 441 355 q 304 232 372 293 q 176 99 237 171 q 82 -45 115 26 q 67 -104 67 -77 q 90 -162 67 -136 q 259 -275 160 -241 q 465 -313 357 -309 q 502 -313 484 -313 q 682 -298 591 -313 q 881 -257 790 -280 q 898 -254 893 -254 q 901 -255 901 -254 q 900 -257 901 -256 m 537 1043 q 480 971 509 1006 q 423 901 452 936 l 326 992 q 382 1063 353 1028 q 439 1135 411 1099 l 537 1043 z "},"":{"ha":510,"x_min":0,"x_max":481,"o":"m 336 432 l 442 589 l 458 552 q 480 455 474 515 q 481 420 481 438 q 471 320 481 374 q 391 170 454 245 q 288 85 345 115 q 149 37 239 60 q 0 0 58 15 l 103 185 q 246 218 165 196 q 379 264 327 241 l 378 263 l 378 268 q 365 340 378 294 q 336 432 350 390 z "},"":{"ha":510,"x_min":0,"x_max":481,"o":"m 336 432 l 442 589 l 458 552 q 480 455 474 515 q 481 420 481 438 q 471 320 481 374 q 391 170 454 245 q 288 85 345 115 q 149 37 239 60 q 0 0 58 15 l 103 185 q 246 218 165 196 q 379 264 327 241 l 378 263 l 378 268 q 365 340 378 294 q 336 432 350 390 m 433 798 q 376 726 405 762 q 319 656 348 691 l 222 747 q 278 819 250 783 q 336 890 307 854 l 433 798 z "},"":{"ha":652,"x_min":1,"x_max":621,"o":"m 621 378 q 577 231 607 307 q 515 117 547 155 q 396 29 468 60 q 232 0 329 0 l 219 0 q 78 8 138 2 q 4 29 18 15 q 1 37 1 33 q 32 68 1 50 q 197 130 74 92 q 361 187 281 157 q 508 262 441 217 q 604 378 572 305 q 614 386 608 386 l 614 386 q 621 378 621 385 z "},"":{"ha":652,"x_min":1,"x_max":621,"o":"m 621 378 q 577 231 607 307 q 515 117 547 155 q 396 29 468 60 q 232 0 329 0 l 219 0 q 78 8 138 2 q 4 29 18 15 q 1 37 1 33 q 32 68 1 50 q 197 130 74 92 q 361 187 281 157 q 508 262 441 217 q 604 378 572 305 q 614 386 608 386 l 614 386 q 621 378 621 385 m 610 652 q 553 580 582 615 q 496 509 525 545 l 399 601 q 455 672 427 637 q 513 743 484 707 l 610 652 z "},"":{"ha":1297,"x_min":-1,"x_max":1235,"o":"m 592 402 q 547 285 566 332 q 486 175 529 238 q 293 22 409 65 q 182 1 233 1 q 94 20 134 1 q 0 193 12 60 q -1 215 -1 204 q 121 568 -1 345 q 134 581 128 581 q 138 581 136 581 q 142 572 142 578 q 138 552 142 564 q 96 467 121 516 q 58 368 71 417 q 51 314 51 340 q 56 274 51 294 q 121 207 66 231 q 208 199 166 199 q 345 224 280 199 q 511 323 445 262 l 511 336 q 503 421 511 381 q 479 515 493 466 l 552 699 q 586 617 574 652 q 627 587 595 587 q 637 587 632 587 q 896 643 768 614 q 1136 716 1024 671 q 1225 779 1202 742 q 1227 780 1226 780 q 1231 779 1229 780 q 1235 774 1235 776 q 1174 607 1206 688 q 1104 447 1141 525 q 1086 431 1097 431 q 1073 437 1080 431 q 1067 451 1067 441 q 1072 475 1067 460 q 1089 515 1078 496 q 1107 555 1099 535 q 854 472 994 505 q 592 402 715 440 z "},"":{"ha":1297,"x_min":-1,"x_max":1235,"o":"m 592 402 q 547 285 566 332 q 486 175 529 238 q 293 22 409 65 q 182 1 233 1 q 94 20 134 1 q 0 193 12 60 q -1 215 -1 204 q 121 568 -1 345 q 134 581 128 581 q 138 581 136 581 q 142 572 142 578 q 138 552 142 564 q 96 467 121 516 q 58 368 71 417 q 51 314 51 340 q 56 274 51 294 q 121 207 66 231 q 208 199 166 199 q 345 224 280 199 q 511 323 445 262 l 511 336 q 503 421 511 381 q 479 515 493 466 l 552 699 q 586 617 574 652 q 627 587 595 587 q 637 587 632 587 q 896 643 768 614 q 1136 716 1024 671 q 1225 779 1202 742 q 1227 780 1226 780 q 1231 779 1229 780 q 1235 774 1235 776 q 1174 607 1206 688 q 1104 447 1141 525 q 1086 431 1097 431 q 1073 437 1080 431 q 1067 451 1067 441 q 1072 475 1067 460 q 1089 515 1078 496 q 1107 555 1099 535 q 854 472 994 505 q 592 402 715 440 m 1083 1080 q 1036 998 1063 1038 q 981 922 1009 958 q 972 916 977 916 q 960 930 966 916 q 896 1002 931 1002 l 892 1002 q 818 957 854 997 q 754 864 783 916 q 712 794 725 812 l 711 854 l 713 857 q 766 952 730 891 q 845 1071 802 1013 q 935 1161 888 1128 q 975 1174 955 1174 q 1034 1146 1004 1174 q 1083 1080 1061 1120 z "},"":{"ha":1225,"x_min":-1,"x_max":1149,"o":"m 486 175 q 293 22 409 65 q 182 1 233 1 q 94 20 134 1 q 0 193 12 60 q -1 215 -1 204 q 121 568 -1 345 q 134 581 128 581 q 138 581 136 581 q 142 572 142 578 q 138 552 142 564 q 96 467 121 516 q 58 368 71 417 q 51 314 51 340 q 56 274 51 294 q 121 207 66 231 q 208 199 166 199 q 345 224 280 199 q 511 323 445 262 l 511 336 q 502 430 511 387 q 476 526 490 479 l 552 699 q 601 590 587 623 q 643 567 610 567 q 675 571 657 567 l 675 572 l 677 573 q 798 708 736 642 q 926 836 859 774 q 1023 878 958 866 q 1051 881 1038 881 q 1124 849 1097 881 q 1149 785 1149 818 q 1137 739 1149 762 q 1072 635 1107 682 q 930 509 1017 560 q 753 435 843 458 q 584 401 665 412 q 486 175 558 281 m 1002 692 q 956 726 989 715 q 930 730 942 730 q 892 720 909 730 q 805 655 843 693 q 729 579 767 617 q 871 610 802 593 q 1000 656 941 627 q 1010 671 1010 661 q 1002 692 1010 680 z "},"":{"ha":1225,"x_min":-1,"x_max":1149,"o":"m 486 175 q 293 22 409 65 q 182 1 233 1 q 94 20 134 1 q 0 193 12 60 q -1 215 -1 204 q 121 568 -1 345 q 134 581 128 581 q 138 581 136 581 q 142 572 142 578 q 138 552 142 564 q 96 467 121 516 q 58 368 71 417 q 51 314 51 340 q 56 274 51 294 q 121 207 66 231 q 208 199 166 199 q 345 224 280 199 q 511 323 445 262 l 511 336 q 502 430 511 387 q 476 526 490 479 l 552 699 q 601 590 587 623 q 643 567 610 567 q 675 571 657 567 l 675 572 l 677 573 q 798 708 736 642 q 926 836 859 774 q 1023 878 958 866 q 1051 881 1038 881 q 1124 849 1097 881 q 1149 785 1149 818 q 1137 739 1149 762 q 1072 635 1107 682 q 930 509 1017 560 q 753 435 843 458 q 584 401 665 412 q 486 175 558 281 m 1002 692 q 956 726 989 715 q 930 730 942 730 q 892 720 909 730 q 805 655 843 693 q 729 579 767 617 q 871 610 802 593 q 1000 656 941 627 q 1010 671 1010 661 q 1002 692 1010 680 m 958 1102 q 901 1030 929 1065 q 844 960 872 995 l 746 1051 q 803 1122 774 1087 q 860 1194 831 1158 l 958 1102 z "},"":{"ha":946,"x_min":1,"x_max":901,"o":"m 739 294 q 691 326 726 316 q 665 330 677 330 q 628 321 645 330 q 541 256 579 294 q 465 180 503 218 q 607 211 538 194 q 736 257 676 229 q 745 272 745 261 q 739 294 745 280 m 818 277 q 777 223 818 277 q 633 111 735 168 q 394 18 530 54 q 273 0 326 0 q 248 1 260 0 q 4 125 106 31 q 3 134 1 126 q 11 141 5 141 q 79 140 45 140 q 217 146 149 140 q 409 170 317 154 q 532 306 469 239 q 662 437 595 374 q 782 486 731 489 q 860 450 833 482 q 818 277 901 386 m 410 665 l 512 828 l 542 382 l 439 220 l 410 665 z "},"":{"ha":946,"x_min":1,"x_max":901,"o":"m 739 294 q 691 326 726 316 q 665 330 677 330 q 628 321 645 330 q 541 256 579 294 q 465 180 503 218 q 607 211 538 194 q 736 257 676 229 q 745 272 745 261 q 739 294 745 280 m 818 277 q 777 223 818 277 q 633 111 735 168 q 394 18 530 54 q 273 0 326 0 q 248 1 260 0 q 4 125 106 31 q 3 134 1 126 q 11 141 5 141 q 79 140 45 140 q 217 146 149 140 q 409 170 317 154 q 532 306 469 239 q 662 437 595 374 q 782 486 731 489 q 860 450 833 482 q 818 277 901 386 m 410 665 l 512 828 l 542 382 l 439 220 l 410 665 m 818 676 q 761 604 789 640 q 704 534 732 569 l 606 625 q 663 696 634 661 q 720 768 692 732 l 818 676 z "},"":{"ha":949,"x_min":-1,"x_max":901,"o":"m 286 362 q 244 409 268 378 q 186 544 197 467 q 182 604 182 574 q 191 688 182 648 q 246 803 208 756 q 335 848 283 848 l 336 848 q 404 840 372 847 q 471 825 436 832 l 412 644 q 267 673 338 667 q 293 592 275 623 q 344 534 311 562 q 406 508 370 508 q 479 528 438 508 q 627 631 564 570 l 565 471 q 496 392 550 433 q 401 315 442 351 q 304 228 372 289 q 176 95 237 167 q 82 -49 115 22 q 67 -108 67 -81 q 90 -166 67 -140 q 259 -279 160 -245 q 465 -317 357 -313 q 502 -317 484 -317 q 682 -302 591 -317 q 881 -261 790 -284 q 898 -258 893 -258 q 901 -259 901 -258 q 900 -261 901 -260 q 676 -428 815 -363 q 397 -503 536 -493 q 357 -504 376 -504 q 146 -457 241 -504 q 7 -267 35 -403 q -1 -191 -1 -231 q 71 74 -1 -71 q 286 362 164 266 z "},"":{"ha":949,"x_min":-1,"x_max":901,"o":"m 286 362 q 244 409 268 378 q 186 544 197 467 q 182 604 182 574 q 191 688 182 648 q 246 803 208 756 q 335 848 283 848 l 336 848 q 404 840 372 847 q 471 825 436 832 l 412 644 q 267 673 338 667 q 293 592 275 623 q 344 534 311 562 q 406 508 370 508 q 479 528 438 508 q 627 631 564 570 l 565 471 q 496 392 550 433 q 401 315 442 351 q 304 228 372 289 q 176 95 237 167 q 82 -49 115 22 q 67 -108 67 -81 q 90 -166 67 -140 q 259 -279 160 -245 q 465 -317 357 -313 q 502 -317 484 -317 q 682 -302 591 -317 q 881 -261 790 -284 q 898 -258 893 -258 q 901 -259 901 -258 q 900 -261 901 -260 q 676 -428 815 -363 q 397 -503 536 -493 q 357 -504 376 -504 q 146 -457 241 -504 q 7 -267 35 -403 q -1 -191 -1 -231 q 71 74 -1 -71 q 286 362 164 266 m 378 1067 q 321 995 350 1030 q 264 924 293 960 l 167 1016 q 223 1087 195 1052 q 281 1158 252 1122 l 378 1067 z "},"":{"ha":0,"x_min":0,"x_max":0,"o":""},"":{"ha":944,"x_min":32,"x_max":917,"o":"m 804 187 q 690 96 754 132 q 555 39 626 60 q 342 1 465 12 q 300 -1 320 -1 q 133 39 204 -1 q 45 142 69 76 q 32 219 32 180 q 60 338 32 276 q 158 524 107 444 q 176 536 167 536 q 183 536 180 536 q 191 524 191 532 q 186 508 191 517 q 125 323 125 395 q 161 237 125 269 q 365 172 235 172 q 393 173 378 172 l 393 173 q 619 216 467 178 q 834 311 770 254 l 817 361 q 793 401 803 401 q 789 399 791 401 q 731 369 766 380 q 703 365 717 365 q 663 374 683 365 q 643 412 644 384 q 642 417 642 415 q 652 460 642 442 q 696 548 675 503 q 746 632 718 593 q 791 661 767 661 q 822 649 806 661 q 890 568 863 619 q 917 455 917 515 q 903 368 917 413 q 804 187 869 259 m 781 920 q 724 848 753 884 q 667 778 696 813 l 570 869 q 626 941 597 905 q 684 1012 655 976 l 781 920 z "},"":{"ha":882,"x_min":9,"x_max":840,"o":"m 695 174 q 541 39 633 84 q 369 1 450 -6 q 240 74 289 9 q 217 270 192 138 q 224 348 225 312 q 221 370 224 357 q 207 382 218 384 q 9 263 82 362 q 42 364 25 314 q 79 463 59 414 q 163 524 117 498 q 273 561 210 551 q 298 540 298 564 q 284 432 296 492 q 277 318 272 372 q 341 209 285 232 q 469 199 397 186 q 612 250 541 213 q 721 323 683 288 q 718 391 721 351 q 701 450 715 431 q 628 445 667 442 q 572 469 590 448 q 570 553 543 501 q 614 646 593 598 q 668 732 635 694 q 708 741 684 750 q 744 720 731 732 q 803 449 840 622 q 695 174 766 276 z "},"":{"ha":789,"x_min":-2,"x_max":788,"o":"m 678 302 q 683 323 683 307 l 683 332 l 644 844 l 747 1015 l 787 478 q 788 463 788 471 q 765 355 788 408 q 705 245 739 296 q 553 103 654 167 q 345 14 452 39 q 239 1 290 1 q 143 14 190 1 q 12 138 50 39 q -2 216 -2 176 q 28 340 -2 275 q 131 529 79 449 q 396 802 293 782 q 429 805 414 805 q 524 730 503 805 q 531 674 531 704 q 487 503 531 600 q 258 305 425 365 l 317 487 q 374 504 356 495 q 429 529 393 512 q 352 635 411 635 q 317 627 336 635 q 179 519 229 591 q 91 376 131 449 q 79 331 79 353 q 144 230 79 280 q 265 189 193 191 q 283 189 274 189 q 414 203 347 189 q 561 249 490 220 q 678 302 632 278 z "},"":{"ha":619,"x_min":-1,"x_max":595,"o":"m 456 924 l 559 1088 l 593 546 q 594 527 594 534 l 595 511 l 595 509 q 566 334 595 420 q 486 175 536 248 q 293 22 409 65 q 182 1 233 1 q 94 20 134 1 q 0 193 12 60 q -1 215 -1 204 q 121 568 -1 345 q 134 581 128 581 q 138 581 136 581 q 142 572 142 578 q 138 552 142 564 q 96 467 121 516 q 58 368 71 417 q 51 314 51 340 q 56 274 51 294 q 121 207 66 231 q 206 199 165 199 q 333 220 273 199 q 496 310 429 253 l 456 924 z "},"":{"ha":703,"x_min":0,"x_max":669,"o":"m 659 644 q 579 460 635 522 q 425 349 524 399 q 271 297 357 315 q 119 243 186 279 q 67 206 92 229 q 50 138 42 183 l 106 -224 q 88 -500 125 -371 q 35 -218 68 -353 q 0 68 1 -83 q 16 216 0 144 q 58 347 31 288 q 152 425 92 400 q 289 472 212 450 l 390 500 q 443 617 408 541 q 515 694 478 694 q 605 700 541 702 q 659 644 669 697 z "},"":{"ha":644,"x_min":-1,"x_max":596,"o":"m 136 524 l 132 515 q 58 345 94 439 q 49 298 49 319 q 121 207 49 238 q 208 199 166 199 q 345 224 280 199 q 511 323 445 262 l 511 336 q 502 430 511 387 q 476 526 490 479 l 552 699 q 596 509 596 607 q 589 429 596 469 q 486 175 564 288 q 293 22 409 65 q 182 1 233 1 q 94 20 134 1 q 0 193 12 60 q -1 215 -1 204 q 121 568 -1 345 q 158 633 138 599 q 196 700 178 668 l 217 688 l 219 687 l 328 614 q 283 533 306 572 q 239 454 261 494 l 136 524 z "},"":{"ha":343,"x_min":1,"x_max":317,"o":"m 192 370 q 163 380 177 380 q 103 326 130 380 q 60 230 64 245 q 60 227 60 228 q 79 210 60 218 q 128 199 103 199 q 163 204 146 199 q 237 235 207 216 q 245 252 245 239 q 231 303 245 269 q 192 370 205 361 m 301 234 q 248 93 284 157 q 125 7 212 29 q 73 -1 96 -1 q 1 79 1 -1 q 2 81 1 80 q 43 308 3 187 q 160 535 102 481 q 228 571 197 571 q 257 562 243 571 q 312 443 297 534 q 317 372 317 409 q 301 234 317 309 z "},"":{"ha":683,"x_min":0,"x_max":680,"o":"m 319 12 q 191 0 256 0 q 163 1 177 0 q 7 12 83 3 q 0 20 0 12 q 6 31 0 27 q 235 137 114 91 q 477 233 357 184 q 583 307 538 257 q 586 319 586 311 q 585 331 586 324 q 573 359 581 348 q 522 353 549 353 q 501 354 511 353 q 445 377 463 357 q 429 416 429 394 q 442 462 429 437 q 486 555 465 507 q 541 640 507 603 q 566 652 551 652 q 580 650 572 652 q 616 629 604 641 q 680 471 680 563 l 680 462 q 628 270 677 363 q 495 103 578 176 q 319 12 412 30 z "},"":{"ha":855,"x_min":2,"x_max":854,"o":"m 109 33 q 6 170 18 82 q 2 226 2 197 q 21 353 2 288 q 98 537 48 449 q 183 673 148 625 q 189 677 186 677 q 193 676 191 677 q 195 672 195 675 q 194 667 195 670 q 142 567 174 624 q 92 450 111 509 q 78 359 78 404 q 79 332 78 345 q 138 233 85 275 q 267 191 185 197 q 312 190 290 190 q 421 200 369 190 q 716 315 583 229 q 588 347 646 322 q 513 428 530 372 q 510 456 510 441 q 558 596 510 510 q 664 748 620 706 q 712 790 683 767 q 779 814 742 812 q 792 812 783 814 q 799 806 799 811 q 798 800 799 803 q 766 724 780 763 q 731 652 751 685 q 710 654 721 654 q 669 647 691 654 q 618 611 633 634 q 610 589 610 600 q 621 560 610 575 q 722 509 639 532 q 782 497 751 501 q 831 473 813 492 q 854 417 854 449 q 821 329 854 379 q 691 189 777 260 q 502 68 604 118 q 295 3 399 18 q 243 -1 268 -1 q 109 33 170 -1 z "},"":{"ha":855,"x_min":2,"x_max":854,"o":"m 109 33 q 6 170 18 82 q 2 226 2 197 q 21 353 2 288 q 98 537 48 449 q 183 673 148 625 q 189 677 186 677 q 193 676 191 677 q 195 672 195 675 q 194 667 195 670 q 142 567 174 624 q 92 450 111 509 q 78 359 78 404 q 79 332 78 345 q 138 233 85 275 q 267 191 185 197 q 312 190 290 190 q 421 200 369 190 q 716 315 583 229 q 588 347 646 322 q 513 428 530 372 q 510 456 510 441 q 558 596 510 510 q 664 748 620 706 q 712 790 683 767 q 779 814 742 812 q 792 812 783 814 q 799 806 799 811 q 798 800 799 803 q 766 724 780 763 q 731 652 751 685 q 710 654 721 654 q 669 647 691 654 q 618 611 633 634 q 610 589 610 600 q 621 560 610 575 q 722 509 639 532 q 782 497 751 501 q 831 473 813 492 q 854 417 854 449 q 821 329 854 379 q 691 189 777 260 q 502 68 604 118 q 295 3 399 18 q 243 -1 268 -1 q 109 33 170 -1 z "},"":{"ha":0,"x_min":-183,"x_max":150,"o":"m -138 63 l -137 63 q -81 84 -115 72 q -8 112 -47 97 q 72 141 31 126 q 150 169 113 156 l 110 105 q -42 50 35 79 q -183 -9 -120 22 l -138 63 m -138 -28 l -137 -28 q -81 -6 -115 -19 q -8 21 -47 6 q 72 50 31 35 q 150 78 113 65 l 110 14 q -42 -41 35 -12 q -183 -100 -120 -69 l -138 -28 z "},"":{"ha":0,"x_min":-207,"x_max":204,"o":"m 65 389 q 105 398 85 395 q 141 398 124 401 q 171 388 157 395 q 192 366 184 380 q 202 337 200 353 q 202 306 204 321 q 193 276 199 290 q 178 250 186 261 q 170 239 174 244 q 161 232 165 233 q 157 235 158 231 q 160 252 157 239 q 151 322 172 304 q 73 329 129 340 q 22 311 50 324 q -32 279 -5 298 q -83 238 -58 260 q -125 194 -108 216 q -152 150 -143 171 q -157 113 -161 129 q -138 84 -154 91 q -103 80 -123 77 q -64 90 -84 82 q -33 104 -45 97 l -64 36 q -105 17 -85 22 q -142 16 -125 12 q -174 31 -160 19 q -196 62 -188 42 q -202 123 -207 91 q -180 182 -197 155 q -81 311 -146 258 q 65 389 -17 363 m 56 64 q 19 87 36 75 q -5 117 3 100 q -10 138 -10 127 q -8 154 -10 146 q 20 202 -3 174 q 66 238 43 229 q 86 243 77 243 q 105 237 96 243 q 124 197 121 227 q 125 186 125 191 q 109 111 125 157 q 121 100 116 106 q 126 85 125 94 l 126 84 q 121 64 126 76 q 105 33 117 52 q 94 43 100 40 q 81 52 88 47 q 31 -5 56 18 q -25 -43 5 -27 q -90 -71 -55 -59 q -168 -94 -124 -83 l -177 -96 q -163 -85 -177 -94 q -128 -63 -150 -77 q -79 -32 -106 -49 q -26 3 -52 -14 q 22 37 1 21 q 56 64 44 52 m 83 123 q 86 152 86 140 q 85 163 86 158 q 75 182 83 176 q 62 186 69 186 l 59 186 q 43 180 50 184 q 33 168 36 175 q 32 163 32 165 q 36 154 32 159 q 57 137 45 144 q 83 123 69 130 z "},"":{"ha":0,"x_min":-183,"x_max":150,"o":"m -138 63 l -137 63 q -81 84 -115 72 q -8 112 -47 97 q 72 141 31 126 q 150 169 113 156 l 110 105 q -42 50 35 79 q -183 -9 -120 22 l -138 63 m -138 -28 l -137 -28 q -81 -6 -115 -19 q -8 21 -47 6 q 72 50 31 35 q 150 78 113 65 l 110 14 q -42 -41 35 -12 q -183 -100 -120 -69 l -138 -28 z "},"":{"ha":0,"x_min":-183,"x_max":150,"o":"m -138 -32 l -137 -32 q -81 -11 -115 -23 q -8 17 -47 2 q 72 46 31 31 q 150 74 113 61 l 110 10 q -42 -45 35 -16 q -183 -104 -120 -73 l -138 -32 z "},"":{"ha":0,"x_min":-177,"x_max":126,"o":"m 56 64 q 19 87 36 75 q -5 117 3 100 q -10 138 -10 127 q -8 154 -10 146 q 20 202 -3 174 q 66 238 43 229 q 86 243 77 243 q 105 237 96 243 q 124 197 121 227 q 125 186 125 191 q 109 111 125 157 q 121 100 116 106 q 126 85 125 94 l 126 84 q 121 64 126 76 q 105 33 117 52 q 94 43 100 40 q 81 52 88 47 q 31 -5 56 18 q -25 -43 5 -27 q -90 -71 -55 -59 q -168 -94 -124 -83 l -177 -96 q -163 -85 -177 -94 q -128 -63 -150 -77 q -79 -32 -106 -49 q -26 3 -52 -14 q 22 37 1 21 q 56 64 44 52 m 83 123 q 86 152 86 140 q 85 163 86 158 q 75 182 83 176 q 62 186 69 186 l 59 186 q 43 180 50 184 q 33 168 36 175 q 32 163 32 165 q 36 154 32 159 q 57 137 45 144 q 83 123 69 130 z "},"":{"ha":0,"x_min":-183,"x_max":150,"o":"m -138 64 l -137 64 q -81 85 -115 73 q -8 112 -47 98 q 72 142 31 127 q 150 170 113 157 l 110 106 q -42 51 35 79 q -183 -9 -120 22 l -138 64 z "},"":{"ha":0,"x_min":-160,"x_max":125,"o":"m -98 -100 q -145 -80 -132 -98 q -159 -37 -158 -62 q -160 -26 -160 -32 q -155 13 -160 -7 q -144 56 -149 38 q -143 57 -144 56 q -143 58 -143 58 q -142 61 -143 60 q -142 62 -142 62 q -135 79 -140 68 q -121 90 -130 90 l -121 89 q -123 78 -121 86 q -127 54 -125 68 q -128 34 -128 44 l -128 26 q -120 1 -127 12 q -98 -12 -113 -9 q -90 -13 -95 -13 q -58 -7 -77 -13 q -38 7 -46 -3 q -24 30 -30 17 q -15 57 -19 43 q -11 81 -12 71 l 9 101 l 9 100 q 9 97 9 98 q 9 94 9 96 q 8 77 8 86 q 9 58 8 68 q 23 29 12 40 q 54 12 40 12 l 57 12 q 82 26 72 14 q 97 58 92 39 q 100 87 100 74 l 100 92 l 125 115 q 120 56 123 92 q 107 -13 117 20 q 77 -64 96 -45 q 45 -77 64 -77 q 22 -73 35 -77 q -2 -53 7 -64 q -17 -31 -12 -42 q -27 -56 -19 -43 q -47 -77 -35 -68 q -72 -93 -58 -87 q -98 -100 -86 -99 z "},"":{"ha":0,"x_min":-136,"x_max":166,"o":"m 86 15 l 87 18 q 1 36 75 28 q -39 38 -21 38 q -100 25 -82 38 q -119 8 -107 20 q -134 -5 -131 -3 l -136 -4 q -118 49 -136 6 q -66 133 -100 92 q 18 154 -49 154 l 43 154 q 153 128 132 149 q 166 94 166 115 q 147 31 166 68 q 40 -72 112 -39 q -24 -94 7 -87 q -91 -103 -55 -100 l -104 -102 q -18 -51 -100 -91 q 86 15 64 -11 z "},"":{"ha":0,"x_min":-232,"x_max":239,"o":"m 239 75 l 178 -3 q 43 -53 127 -36 q -8 -58 17 -58 q -117 -31 -65 -58 q -128 -28 -123 -28 q -140 -32 -135 -28 q -161 -45 -152 -39 q -216 -94 -182 -57 q -231 -106 -228 -106 q -232 -104 -232 -106 q -209 -57 -232 -97 q -100 43 -172 7 q -93 45 -96 45 q -75 40 -85 45 q 40 12 -20 12 q 96 18 67 12 q 234 78 186 36 q 237 80 236 80 q 239 75 239 80 z "},"":{"ha":0,"x_min":-127,"x_max":81,"o":"m 51 149 q 21 121 42 130 q -16 90 0 112 q 18 71 -3 76 q 55 55 39 65 q 73 23 73 43 q 68 -1 73 12 q 14 -66 52 -39 q -54 -95 -18 -90 q -127 -106 -90 -100 q -62 -78 -95 -92 q 2 -47 -28 -64 q 12 -36 12 -41 q 9 -32 12 -34 q -18 -19 -3 -25 q -44 -5 -33 -12 q -70 33 -70 8 q -40 97 -70 58 q 45 192 17 171 q 81 212 56 201 l 51 149 z "},"":{"ha":0,"x_min":-127,"x_max":81,"o":"m 51 149 q 21 121 42 130 q -16 90 0 112 q 18 71 -3 76 q 55 55 39 65 q 73 23 73 43 q 68 -1 73 12 q 14 -66 52 -39 q -54 -95 -18 -90 q -127 -106 -90 -100 q -62 -78 -95 -92 q 2 -47 -28 -64 q 12 -36 12 -41 q 9 -32 12 -34 q -18 -19 -3 -25 q -44 -5 -33 -12 q -70 33 -70 8 q -40 97 -70 58 q 45 192 17 171 q 81 212 56 201 l 51 149 z "},"":{"ha":0,"x_min":-55,"x_max":43,"o":"m 6 -94 q -1 -98 3 -98 l -1 -98 q -4 -95 -4 -98 q -3 -93 -4 -94 q 1 -43 1 -66 l 1 -32 q -6 21 0 -4 q -21 69 -12 46 q -40 114 -31 92 q -49 137 -45 125 q -55 161 -53 148 q -45 184 -50 172 q -34 208 -39 197 q -32 213 -34 212 q -27 216 -30 215 l -26 216 q -23 215 -24 216 q -21 212 -22 214 q -2 164 -13 189 q 19 114 9 140 q 36 61 28 87 q 43 8 43 35 l 43 6 q 35 -44 43 -20 q 6 -94 27 -71 z "},"":{"ha":0,"x_min":-66,"x_max":237,"o":"m 4 83 q 40 60 24 72 q 64 31 57 47 q 70 9 70 20 q 68 -7 70 1 q 40 -55 63 -27 q -6 -91 17 -81 q -26 -96 -17 -96 q -45 -90 -37 -96 q -64 -50 -61 -80 q -65 -39 -65 -44 q -50 37 -65 -9 q -61 47 -56 41 q -66 62 -66 53 l -66 63 q -62 83 -66 71 q -45 114 -57 96 q -34 104 -40 107 q -21 96 -28 100 q 29 152 4 130 q 84 190 54 174 q 149 218 115 206 q 227 241 184 231 l 237 243 q 223 233 237 241 q 188 210 210 224 q 139 179 166 196 q 85 144 112 161 q 37 111 59 126 q 4 83 16 95 m -23 24 q -26 -5 -26 7 q -26 -16 -26 -11 q -16 -35 -23 -29 q -3 -39 -9 -39 l 1 -39 q 17 -33 9 -37 q 26 -21 24 -28 q 28 -16 28 -18 q 24 -7 28 -12 q 2 10 14 3 q -23 24 -9 17 z "},"":{"ha":0,"x_min":-72,"x_max":117,"o":"m 62 28 m 4 -100 q -52 -77 -35 -96 q -69 -28 -67 -58 q -64 31 -72 -3 q -42 90 -52 68 q -17 134 -29 117 q 1 151 -5 151 q 5 149 4 151 q 4 145 5 146 q -27 84 -22 109 q -26 37 -34 57 q -2 7 -18 17 q 35 -7 16 -7 q 75 -3 55 -10 q 108 21 94 3 q 114 26 112 27 q 113 14 117 22 q 96 -24 101 -14 q 72 -61 86 -45 q 42 -89 55 -81 q 4 -100 24 -101 l 4 -100 z "},"":{"ha":322,"x_min":38,"x_max":284,"o":"m 41 366 l 145 493 q 153 497 149 497 q 162 493 157 497 l 278 395 q 284 386 284 391 q 281 378 284 382 l 177 251 q 169 246 173 246 q 160 250 165 246 l 44 348 q 38 358 38 353 q 41 366 38 361 z "},"":{"ha":262,"x_min":34,"x_max":220,"o":"m 216 391 q 220 313 220 351 q 206 184 220 245 q 150 20 184 92 q 130 0 140 0 q 127 1 129 0 q 136 149 136 77 q 119 339 136 248 q 34 620 90 497 q 68 716 50 666 q 106 814 86 766 q 171 627 142 724 q 214 418 200 530 q 216 391 216 397 z "},"":{"ha":397,"x_min":39,"x_max":363,"o":"m 363 795 l 323 639 q 307 620 317 620 q 304 621 305 620 q 210 640 261 633 q 178 642 193 642 q 113 632 144 642 q 189 471 143 556 q 258 304 235 386 q 260 260 260 282 q 243 155 260 204 q 204 19 220 85 q 191 0 200 5 q 193 52 193 26 q 163 212 193 135 q 82 382 122 313 q 45 499 55 428 q 39 571 39 535 q 44 640 39 606 q 87 760 54 708 q 178 818 119 811 q 223 821 201 821 q 273 817 249 821 q 361 800 318 810 l 362 798 q 363 795 363 797 z "},"":{"ha":575,"x_min":34,"x_max":541,"o":"m 541 810 q 519 665 534 733 q 460 558 503 597 q 410 529 443 542 q 384 524 397 524 q 349 534 366 524 q 326 557 340 540 q 302 536 316 549 q 290 519 290 526 q 292 515 290 517 q 368 262 357 399 q 369 229 369 245 q 304 9 369 111 q 296 3 302 5 q 290 0 291 0 l 290 1 q 293 66 293 34 q 254 257 293 174 q 149 454 202 365 q 87 545 119 500 q 34 644 56 589 q 65 730 49 687 q 102 817 82 774 q 136 749 119 784 q 182 693 153 713 q 240 675 208 675 q 273 680 256 675 q 347 723 325 692 q 359 751 353 730 q 371 781 366 772 q 374 785 373 785 q 378 781 376 785 q 380 773 380 777 l 380 772 q 379 757 379 764 q 413 714 379 722 q 438 711 426 711 q 489 728 467 711 q 528 791 519 753 q 535 807 528 795 q 540 814 538 814 q 541 810 541 814 z "},"":{"ha":498,"x_min":38,"x_max":464,"o":"m 464 208 q 419 130 441 170 q 374 53 398 90 q 223 1 323 6 q 204 1 214 1 q 68 43 117 1 q 41 92 48 60 q 39 111 39 102 q 50 150 39 132 q 97 231 73 191 q 139 323 121 272 q 99 373 125 360 q 56 401 73 386 q 38 447 38 416 q 76 548 38 477 q 160 686 111 615 q 277 800 210 757 q 309 814 290 808 q 274 748 289 783 q 244 678 260 713 q 186 643 218 660 q 143 592 155 625 q 141 581 141 587 q 157 559 141 568 q 243 451 243 505 q 235 417 243 434 q 140 249 200 346 q 181 193 146 212 q 256 169 216 175 q 304 165 281 165 q 364 173 335 165 q 454 210 414 186 l 456 210 q 464 208 458 210 z "},"":{"ha":471,"x_min":39,"x_max":423,"o":"m 356 247 q 313 360 345 286 q 248 459 281 435 q 219 470 233 470 q 188 456 203 470 q 115 334 159 428 q 93 256 93 287 q 114 214 93 227 q 201 191 150 191 q 267 199 231 191 q 357 243 357 219 q 356 247 357 245 m 311 60 q 192 3 273 20 q 151 -1 170 -1 q 62 33 98 -1 q 39 108 39 53 q 41 137 39 121 q 70 306 47 216 q 120 479 92 397 q 163 594 148 562 q 243 677 201 677 q 286 654 264 677 q 391 488 351 588 q 423 330 423 408 q 418 262 423 296 q 311 60 398 151 z "},"":{"ha":527,"x_min":40,"x_max":493,"o":"m 493 174 q 429 5 465 82 q 420 1 427 1 l 418 1 q 411 5 413 1 q 349 237 369 109 q 336 397 336 314 q 342 513 336 454 q 343 533 342 519 q 346 556 345 547 q 182 579 254 558 q 50 632 110 600 q 40 648 40 637 q 44 667 40 656 q 73 740 58 703 q 101 814 89 777 q 248 755 166 777 q 402 736 317 736 q 433 736 417 736 q 418 546 418 643 q 423 439 418 493 q 486 184 435 286 l 493 174 z "},"":{"ha":523,"x_min":34,"x_max":489,"o":"m 489 812 q 473 625 473 715 q 382 397 420 517 q 311 148 344 276 q 296 78 302 114 q 276 14 291 42 q 264 2 273 7 q 258 0 261 0 q 254 5 255 0 q 161 329 222 181 q 34 621 101 476 q 62 715 46 666 q 94 814 77 764 q 296 298 217 552 q 381 564 334 438 q 481 810 428 690 q 486 812 481 812 q 489 812 487 812 z "},"":{"ha":523,"x_min":34,"x_max":489,"o":"m 34 1 q 50 189 50 99 q 140 416 102 296 q 212 665 178 537 q 226 735 220 699 q 247 800 231 772 q 258 812 250 806 q 264 814 262 814 q 269 809 267 814 q 361 485 300 632 q 489 193 421 338 q 461 98 476 146 q 429 0 446 49 q 227 516 305 261 q 142 249 189 376 q 43 4 95 123 q 37 1 41 1 l 34 1 z "},"":{"ha":441,"x_min":38,"x_max":408,"o":"m 254 574 q 235 611 248 591 q 201 635 221 631 q 189 635 195 635 q 151 618 164 635 q 125 576 136 597 q 121 565 121 570 q 130 549 121 556 q 179 533 149 533 q 194 534 186 533 q 258 555 233 538 q 258 557 258 556 q 256 566 258 559 q 253 573 253 571 q 254 574 253 574 m 408 189 l 328 0 q 281 200 297 104 q 263 427 264 296 q 189 363 239 391 q 135 349 162 349 q 81 362 109 349 q 38 433 38 381 q 39 444 38 438 q 71 572 43 504 q 138 702 100 641 q 197 785 176 763 q 239 812 212 801 q 262 816 250 816 q 294 808 277 816 q 353 706 351 777 q 362 434 358 555 q 403 196 367 312 l 408 189 z "},"":{"ha":612,"x_min":34,"x_max":578,"o":"m 34 596 l 128 753 l 243 686 l 149 526 l 34 596 m 370 14 l 464 171 l 578 103 l 485 -57 l 370 14 m 87 -87 l 451 667 l 551 713 l 184 -41 l 87 -87 z "},"":{"ha":1113,"x_min":102,"x_max":1011,"o":"m 970 298 q 802 130 926 206 q 539 21 678 54 q 382 1 457 1 q 277 12 328 1 q 115 143 155 35 q 102 220 102 180 q 130 339 102 276 q 228 525 177 445 q 246 537 237 537 q 253 536 250 537 q 260 524 260 532 q 256 508 260 517 q 199 333 199 401 q 201 309 199 320 q 276 203 214 236 q 425 172 335 172 q 434 172 429 172 q 629 198 530 174 q 816 264 728 222 l 903 307 l 903 310 q 889 384 903 336 q 860 475 874 433 l 966 633 l 1000 531 q 1011 456 1011 495 q 970 298 1011 383 z "},"":{"ha":678,"x_min":-1,"x_max":637,"o":"m 165 1 q 337 39 245 -6 q 492 174 429 84 q 600 449 562 276 q 541 720 637 622 q 504 741 528 732 q 465 732 481 750 q 410 646 431 694 q 367 553 389 598 q 369 469 339 501 q 425 445 387 448 q 498 450 463 442 q 514 391 511 431 q 517 323 517 351 q 408 250 479 288 q 258 200 337 213 q 121 210 178 187 q 56 277 66 233 q 51 317 51 297 q 58 371 51 343 q 96 470 69 418 q 138 555 122 519 q 142 575 142 568 q 138 584 142 582 q 134 585 136 585 q 121 572 128 585 q -1 218 -1 340 q 0 197 -1 208 q 165 1 11 16 z "},"":{"ha":0,"x_min":-55,"x_max":43,"o":"m 6 -94 q -1 -98 3 -98 l -1 -98 q -4 -95 -4 -98 q -3 -93 -4 -94 q 1 -43 1 -66 l 1 -32 q -6 21 0 -4 q -21 69 -12 46 q -40 114 -31 92 q -49 137 -45 125 q -55 161 -53 148 q -45 184 -50 172 q -34 208 -39 197 q -32 213 -34 212 q -27 216 -30 215 l -26 216 q -23 215 -24 216 q -21 212 -22 214 q -2 164 -13 189 q 19 114 9 140 q 36 61 28 87 q 43 8 43 35 l 43 6 q 35 -44 43 -20 q 6 -94 27 -71 z "},"":{"ha":345,"x_min":27,"x_max":344,"o":"m 102 790 l 204 953 l 243 363 l 141 200 l 102 790 m 292 1176 q 271 1192 284 1192 q 253 1185 263 1192 q 222 1163 235 1176 q 195 1136 208 1149 q 245 1147 221 1141 q 291 1163 270 1153 q 294 1168 294 1164 q 292 1176 294 1171 m 165 1131 q 176 1133 176 1133 q 264 1227 226 1191 q 299 1242 276 1237 q 309 1242 304 1242 q 335 1232 325 1242 q 344 1209 344 1221 q 340 1193 344 1201 q 317 1156 329 1172 q 219 1089 286 1114 q 155 1072 177 1072 q 146 1073 150 1072 q 115 1086 125 1078 q 97 1093 106 1093 q 91 1092 94 1093 q 39 1051 78 1089 q 33 1046 37 1048 q 28 1044 30 1044 q 27 1046 27 1044 q 83 1131 37 1087 q 126 1153 106 1153 q 165 1131 146 1153 z "},"":{"ha":1113,"x_min":102,"x_max":1011,"o":"m 970 298 q 802 130 926 206 q 539 21 678 54 q 382 1 457 1 q 277 12 328 1 q 115 143 155 35 q 102 220 102 180 q 130 339 102 276 q 228 525 177 445 q 246 537 237 537 q 253 536 250 537 q 260 524 260 532 q 256 508 260 517 q 199 333 199 401 q 201 309 199 320 q 276 203 214 236 q 425 172 335 172 q 434 172 429 172 q 629 198 530 174 q 816 264 728 222 l 903 307 l 903 310 q 889 384 903 336 q 860 475 874 433 l 966 633 l 1000 531 q 1011 456 1011 495 q 970 298 1011 383 m 644 755 q 620 771 634 771 q 600 766 611 771 q 566 741 581 755 q 537 711 551 726 q 592 723 566 716 q 642 741 619 730 q 646 747 646 743 q 644 755 646 751 m 669 743 q 509 648 621 677 q 458 642 483 642 l 452 642 q 407 657 426 644 q 357 690 387 671 q 354 694 354 692 q 359 696 354 696 q 390 695 375 695 q 440 697 416 695 q 515 707 479 701 q 614 811 566 768 q 652 827 626 823 q 663 829 657 829 q 690 816 680 829 q 701 793 701 804 q 695 779 701 785 q 669 743 683 762 m 515 900 l 555 964 l 567 790 l 527 726 l 515 900 z "},"":{"ha":1113,"x_min":102,"x_max":1011,"o":"m 970 298 q 802 130 926 206 q 539 21 678 54 q 382 1 457 1 q 277 12 328 1 q 115 143 155 35 q 102 220 102 180 q 130 339 102 276 q 228 525 177 445 q 246 537 237 537 q 253 536 250 537 q 260 524 260 532 q 256 508 260 517 q 199 333 199 401 q 201 309 199 320 q 276 203 214 236 q 425 172 335 172 q 434 172 429 172 q 629 198 530 174 q 816 264 728 222 l 903 307 l 903 310 q 889 384 903 336 q 860 475 874 433 l 966 633 l 1000 531 q 1011 456 1011 495 q 970 298 1011 383 z "},"":{"ha":949,"x_min":-1,"x_max":901,"o":"m 537 553 q 444 605 519 605 q 414 604 430 605 q 281 567 312 592 q 321 493 296 528 q 361 422 345 459 q 452 486 404 453 q 537 553 501 519 m 900 -257 q 676 -424 815 -359 q 397 -498 536 -489 q 357 -500 376 -500 q 146 -453 241 -500 q 7 -263 35 -399 q -1 -187 -1 -226 q 68 68 -1 -69 q 252 337 159 251 q 194 490 194 402 q 201 551 194 519 q 295 729 226 680 q 434 776 340 761 q 495 781 466 781 q 595 762 551 781 q 639 693 639 744 q 625 627 639 665 q 560 481 587 520 q 484 394 526 433 q 401 319 441 355 q 304 232 372 293 q 176 99 237 171 q 82 -45 115 26 q 67 -104 67 -77 q 90 -162 67 -136 q 259 -275 160 -241 q 465 -313 357 -309 q 502 -313 484 -313 q 682 -298 591 -313 q 881 -257 790 -280 q 898 -254 893 -254 q 901 -255 901 -254 q 900 -257 901 -256 z "},"":{"ha":510,"x_min":0,"x_max":481,"o":"m 336 432 l 442 589 l 458 552 q 480 455 474 515 q 481 420 481 438 q 471 320 481 374 q 391 170 454 245 q 288 85 345 115 q 149 37 239 60 q 0 0 58 15 l 103 185 q 246 218 165 196 q 379 264 327 241 l 378 263 l 378 268 q 365 340 378 294 q 336 432 350 390 m 415 835 q 391 850 406 850 q 372 845 382 850 q 338 820 353 835 q 309 790 323 805 q 364 802 337 795 q 414 821 391 809 q 417 827 417 822 q 415 835 417 830 m 441 823 q 281 727 392 757 q 229 721 254 721 l 224 721 q 178 737 197 723 q 128 769 159 751 q 125 773 125 772 q 131 775 125 775 q 161 774 146 774 q 212 777 187 774 q 286 786 250 780 q 385 890 338 847 q 423 907 397 902 q 434 908 429 908 q 462 895 452 908 q 472 873 472 884 q 467 858 472 865 q 441 823 454 841 m 287 979 l 327 1043 l 338 869 l 298 806 l 287 979 z "},"":{"ha":510,"x_min":0,"x_max":528,"o":"m 336 432 l 442 589 l 458 552 q 480 455 474 515 q 481 420 481 438 q 471 320 481 374 q 391 170 454 245 q 288 85 345 115 q 149 37 239 60 q 0 0 58 15 l 103 185 q 246 218 165 196 q 379 264 327 241 l 378 263 l 378 268 q 365 340 378 294 q 336 432 350 390 m 528 885 q 480 803 507 842 q 426 727 454 763 q 416 721 421 721 q 405 734 410 721 q 340 806 376 806 l 336 806 q 263 761 298 802 q 198 669 227 721 q 157 599 170 616 l 156 659 l 157 661 q 211 757 175 696 q 290 876 246 818 q 380 966 332 932 q 419 979 399 979 q 479 951 448 979 q 528 885 506 924 z "},"":{"ha":652,"x_min":1,"x_max":649,"o":"m 621 378 q 577 231 607 307 q 515 117 547 155 q 396 29 468 60 q 232 0 329 0 l 219 0 q 78 8 138 2 q 4 29 18 15 q 1 37 1 33 q 32 68 1 50 q 197 130 74 92 q 361 187 281 157 q 508 262 441 217 q 604 378 572 305 q 614 386 608 386 l 614 386 q 621 378 621 385 m 592 688 q 568 704 583 704 q 549 699 559 704 q 515 673 530 688 q 486 644 500 659 q 541 656 514 649 q 591 674 568 663 q 594 680 594 675 q 592 688 594 684 m 618 676 q 458 581 569 610 q 406 574 431 574 l 401 574 q 355 590 374 576 q 305 623 336 604 q 302 627 302 625 q 308 629 302 629 q 338 628 323 628 q 389 630 364 628 q 463 640 427 633 q 562 744 515 701 q 600 760 574 755 q 611 762 606 762 q 639 749 629 762 q 649 726 649 737 q 644 711 649 718 q 618 676 631 694 m 464 833 l 504 897 l 515 723 l 475 659 l 464 833 z "},"":{"ha":652,"x_min":1,"x_max":705,"o":"m 621 378 q 577 231 607 307 q 515 117 547 155 q 396 29 468 60 q 232 0 329 0 l 219 0 q 78 8 138 2 q 4 29 18 15 q 1 37 1 33 q 32 68 1 50 q 197 130 74 92 q 361 187 281 157 q 508 262 441 217 q 604 378 572 305 q 614 386 608 386 l 614 386 q 621 378 621 385 m 705 739 q 657 656 684 696 q 603 581 631 616 q 593 574 598 574 q 582 588 587 574 q 517 660 553 660 l 513 660 q 440 615 475 655 q 375 522 404 574 q 334 452 347 470 l 333 513 l 334 515 q 388 610 352 549 q 467 729 423 671 q 557 819 509 786 q 596 832 576 832 q 656 804 625 832 q 705 739 683 778 z "},"":{"ha":944,"x_min":32,"x_max":917,"o":"m 804 187 q 690 96 754 132 q 555 39 626 60 q 342 1 465 12 q 300 -1 320 -1 q 133 39 204 -1 q 45 142 69 76 q 32 219 32 180 q 60 338 32 276 q 158 524 107 444 q 176 536 167 536 q 183 536 180 536 q 191 524 191 532 q 186 508 191 517 q 125 323 125 395 q 161 237 125 269 q 365 172 235 172 q 393 173 378 172 l 393 173 q 619 216 467 178 q 834 311 770 254 l 817 361 q 793 401 803 401 q 789 399 791 401 q 731 369 766 380 q 703 365 717 365 q 663 374 683 365 q 643 412 644 384 q 642 417 642 415 q 652 460 642 442 q 696 548 675 503 q 746 632 718 593 q 791 661 767 661 q 822 649 806 661 q 890 568 863 619 q 917 455 917 515 q 903 368 917 413 q 804 187 869 259 z "},"":{"ha":944,"x_min":32,"x_max":917,"o":"m 804 187 q 690 96 754 132 q 555 39 626 60 q 342 1 465 12 q 300 -1 320 -1 q 133 39 204 -1 q 45 142 69 76 q 32 219 32 180 q 60 338 32 276 q 158 524 107 444 q 176 536 167 536 q 183 536 180 536 q 191 524 191 532 q 186 508 191 517 q 125 323 125 395 q 161 237 125 269 q 365 172 235 172 q 393 173 378 172 l 393 173 q 619 216 467 178 q 834 311 770 254 l 817 361 q 793 401 803 401 q 789 399 791 401 q 731 369 766 380 q 703 365 717 365 q 663 374 683 365 q 643 412 644 384 q 642 417 642 415 q 652 460 642 442 q 696 548 675 503 q 746 632 718 593 q 791 661 767 661 q 822 649 806 661 q 890 568 863 619 q 917 455 917 515 q 903 368 917 413 q 804 187 869 259 m 876 1007 q 828 925 855 964 q 774 849 802 885 q 764 843 769 843 q 753 857 758 843 q 688 928 724 928 l 684 928 q 611 883 646 924 q 546 791 575 843 q 505 721 517 739 l 504 781 l 505 783 q 558 879 523 818 q 637 998 594 940 q 728 1088 680 1055 q 767 1101 747 1101 q 827 1073 796 1101 q 876 1007 854 1046 z "},"":{"ha":1312,"x_min":-2,"x_max":1246,"o":"m 678 302 q 683 323 683 307 l 683 332 l 654 726 l 740 869 l 782 1021 q 1006 1152 894 1086 q 1232 1284 1119 1218 q 1241 1286 1238 1286 q 1246 1280 1246 1286 q 1246 1274 1246 1278 l 1201 1112 q 980 983 1090 1047 q 760 854 869 918 l 787 478 q 788 463 788 471 q 765 355 788 408 q 705 245 739 296 q 553 103 654 167 q 345 14 452 39 q 239 1 290 1 q 143 14 190 1 q 12 138 50 39 q -2 216 -2 176 q 28 338 -2 275 q 125 519 79 446 q 144 532 134 532 q 151 531 147 532 q 158 519 158 528 q 154 503 158 513 q 87 362 113 429 q 81 330 81 346 q 144 230 81 279 q 265 189 193 191 q 283 189 274 189 q 414 203 347 189 q 561 249 490 220 q 678 302 632 278 z "},"":{"ha":1312,"x_min":-2,"x_max":1246,"o":"m 678 302 q 683 323 683 307 l 683 332 l 654 726 l 740 869 l 782 1021 q 1006 1152 894 1086 q 1232 1284 1119 1218 q 1241 1286 1238 1286 q 1246 1280 1246 1286 q 1246 1274 1246 1278 l 1201 1112 q 980 983 1090 1047 q 760 854 869 918 l 787 478 q 788 463 788 471 q 765 355 788 408 q 705 245 739 296 q 553 103 654 167 q 345 14 452 39 q 239 1 290 1 q 143 14 190 1 q 12 138 50 39 q -2 216 -2 176 q 28 338 -2 275 q 125 519 79 446 q 144 532 134 532 q 151 531 147 532 q 158 519 158 528 q 154 503 158 513 q 87 362 113 429 q 81 330 81 346 q 144 230 81 279 q 265 189 193 191 q 283 189 274 189 q 414 203 347 189 q 561 249 490 220 q 678 302 632 278 m 781 1189 l 1198 1428 l 1155 1356 l 739 1117 l 781 1189 z "},"":{"ha":644,"x_min":-1,"x_max":596,"o":"m 486 175 q 293 22 409 65 q 182 1 233 1 q 94 20 134 1 q 0 193 12 60 q -1 215 -1 204 q 121 568 -1 345 q 134 581 128 581 q 138 581 136 581 q 142 572 142 578 q 138 552 142 564 q 96 467 121 516 q 58 368 71 417 q 51 314 51 340 q 56 274 51 294 q 121 207 66 231 q 208 199 166 199 q 345 224 280 199 q 511 323 445 262 l 511 336 q 502 430 511 387 q 476 526 490 479 l 552 699 q 596 509 596 607 q 589 429 596 469 q 486 175 564 288 z "},"":{"ha":644,"x_min":-1,"x_max":596,"o":"m 486 175 q 293 22 409 65 q 182 1 233 1 q 94 20 134 1 q 0 193 12 60 q -1 215 -1 204 q 121 568 -1 345 q 134 581 128 581 q 138 581 136 581 q 142 572 142 578 q 138 552 142 564 q 96 467 121 516 q 58 368 71 417 q 51 314 51 340 q 56 274 51 294 q 121 207 66 231 q 208 199 166 199 q 345 224 280 199 q 511 323 445 262 l 511 336 q 502 430 511 387 q 476 526 490 479 l 552 699 q 596 509 596 607 q 589 429 596 469 q 486 175 564 288 m 403 853 q 379 869 393 869 q 359 863 370 869 q 326 838 340 853 q 296 808 311 823 q 352 821 325 814 q 401 839 378 827 q 405 845 405 840 q 403 853 405 848 m 429 841 q 269 745 380 775 q 217 739 242 739 l 212 739 q 166 755 185 741 q 116 787 146 769 q 113 791 113 790 q 119 793 113 793 q 149 793 134 793 q 199 795 175 793 q 274 804 238 798 q 373 909 326 865 q 411 925 385 920 q 422 926 416 926 q 450 913 439 926 q 460 891 460 902 q 454 876 460 883 q 429 841 442 859 m 275 998 l 315 1061 l 326 888 l 286 824 l 275 998 z "},"":{"ha":1029,"x_min":-2,"x_max":977,"o":"m 446 157 q 612 439 515 326 q 684 486 653 486 q 730 452 711 486 q 755 369 755 408 q 743 318 755 342 q 677 186 714 258 q 849 250 781 206 q 850 296 850 273 q 793 584 850 463 q 760 618 783 603 q 734 626 747 626 q 707 619 721 626 q 633 555 661 596 q 573 479 605 515 q 552 473 567 473 q 551 472 551 472 q 539 478 539 472 q 540 480 539 479 q 583 560 555 524 q 637 631 610 595 q 718 721 671 677 q 812 780 766 764 q 846 786 830 786 q 898 770 873 786 q 951 650 936 744 q 971 528 962 585 q 977 457 977 492 q 975 412 977 435 q 904 238 966 333 q 780 95 842 143 q 490 5 664 5 l 467 5 q 347 1 392 5 q 334 -1 341 -1 q 202 37 286 -1 l 11 123 q -2 134 -2 130 q 5 141 -2 138 l 446 157 m 646 244 l 644 249 q 596 304 624 304 q 586 302 591 304 q 528 239 551 290 q 526 227 526 233 q 533 209 526 218 q 550 196 543 196 q 552 197 551 196 q 646 244 610 214 z "},"":{"ha":343,"x_min":1,"x_max":317,"o":"m 192 370 q 163 380 177 380 q 103 326 130 380 q 60 230 64 245 q 60 227 60 228 q 79 210 60 218 q 128 199 103 199 q 163 204 146 199 q 237 235 207 216 q 245 252 245 239 q 231 303 245 269 q 192 370 205 361 m 301 234 q 248 93 284 157 q 125 7 212 29 q 73 -1 96 -1 q 1 79 1 -1 q 2 81 1 80 q 43 308 3 187 q 160 535 102 481 q 228 571 197 571 q 257 562 243 571 q 312 443 297 534 q 317 372 317 409 q 301 234 317 309 m 252 924 q 222 896 243 905 q 186 865 201 887 q 219 846 198 851 q 256 830 240 840 q 275 798 275 818 q 269 774 275 787 q 216 709 254 736 q 148 680 183 686 q 75 669 112 675 q 140 697 106 683 q 203 728 173 711 q 213 739 213 734 q 210 743 213 741 q 183 756 198 750 q 157 770 169 763 q 132 808 132 783 q 161 872 132 833 q 246 967 218 946 q 282 987 258 976 l 252 924 z "},"":{"ha":343,"x_min":1,"x_max":317,"o":"m 192 370 q 163 380 177 380 q 103 326 130 380 q 60 230 64 245 q 60 227 60 228 q 79 210 60 218 q 128 199 103 199 q 163 204 146 199 q 237 235 207 216 q 245 252 245 239 q 231 303 245 269 q 192 370 205 361 m 301 234 q 248 93 284 157 q 125 7 212 29 q 73 -1 96 -1 q 1 79 1 -1 q 2 81 1 80 q 43 308 3 187 q 160 535 102 481 q 228 571 197 571 q 257 562 243 571 q 312 443 297 534 q 317 372 317 409 q 301 234 317 309 z "},"":{"ha":855,"x_min":2,"x_max":854,"o":"m 109 33 q 6 170 18 82 q 2 226 2 197 q 21 353 2 288 q 98 537 48 449 q 183 673 148 625 q 189 677 186 677 q 193 676 191 677 q 195 672 195 675 q 194 667 195 670 q 142 567 174 624 q 92 450 111 509 q 78 359 78 404 q 79 332 78 345 q 138 233 85 275 q 267 191 185 197 q 312 190 290 190 q 421 200 369 190 q 716 315 583 229 q 588 347 646 322 q 513 428 530 372 q 510 456 510 441 q 558 596 510 510 q 664 748 620 706 q 712 790 683 767 q 779 814 742 812 q 792 812 783 814 q 799 806 799 811 q 798 800 799 803 q 766 724 780 763 q 731 652 751 685 q 710 654 721 654 q 669 647 691 654 q 618 611 633 634 q 610 589 610 600 q 621 560 610 575 q 722 509 639 532 q 782 497 751 501 q 831 473 813 492 q 854 417 854 449 q 821 329 854 379 q 691 189 777 260 q 502 68 604 118 q 295 3 399 18 q 243 -1 268 -1 q 109 33 170 -1 z "},"":{"ha":972,"x_min":0,"x_max":918,"o":"m 478 643 q 490 545 488 600 q 473 442 492 490 q 456 426 469 434 q 444 430 444 417 q 428 486 441 460 q 383 517 414 513 q 330 486 350 509 q 296 437 311 464 q 104 229 220 291 q 90 213 90 220 q 310 185 195 178 q 512 213 425 192 q 725 283 624 239 q 918 378 825 326 q 878 301 906 332 q 820 245 850 271 q 372 25 646 90 q 281 8 340 17 q 162 0 222 -1 q 57 21 103 2 q 6 88 12 39 q 8 184 0 132 q 27 262 17 237 q 83 349 47 313 q 161 409 119 385 q 269 509 226 446 q 352 640 312 572 q 411 691 372 674 q 478 643 450 709 z "},"":{"ha":972,"x_min":0,"x_max":918,"o":"m 478 643 q 490 545 488 600 q 473 442 492 490 q 456 426 469 434 q 444 430 444 417 q 428 486 441 460 q 383 517 414 513 q 330 486 350 509 q 296 437 311 464 q 104 229 220 291 q 90 213 90 220 q 310 185 195 178 q 512 213 425 192 q 725 283 624 239 q 918 378 825 326 q 878 301 906 332 q 820 245 850 271 q 372 25 646 90 q 281 8 340 17 q 162 0 222 -1 q 57 21 103 2 q 6 88 12 39 q 8 184 0 132 q 27 262 17 237 q 83 349 47 313 q 161 409 119 385 q 269 509 226 446 q 352 640 312 572 q 411 691 372 674 q 478 643 450 709 m 441 1064 q 412 1036 433 1045 q 375 1006 391 1027 q 408 986 387 991 q 446 970 429 981 q 464 939 464 958 q 458 914 464 927 q 405 850 443 877 q 337 821 372 826 q 264 809 301 815 q 329 838 296 823 q 393 869 362 852 q 402 880 402 875 q 399 884 402 882 q 373 897 387 890 q 347 910 358 903 q 321 948 321 924 q 351 1013 321 974 q 435 1107 408 1086 q 471 1127 447 1116 l 441 1064 z "},"":{"ha":353,"x_min":31,"x_max":322,"o":"m 87 137 l 322 165 l 259 27 l 31 0 l 87 137 z "},"":{"ha":322,"x_min":38,"x_max":284,"o":"m 41 366 l 145 493 q 153 497 149 497 q 162 493 157 497 l 278 395 q 284 386 284 391 q 281 378 284 382 l 177 251 q 169 246 173 246 q 160 250 165 246 l 44 348 q 38 358 38 353 q 41 366 38 361 z "},"":{"ha":262,"x_min":34,"x_max":220,"o":"m 216 391 q 220 313 220 351 q 206 184 220 245 q 150 20 184 92 q 130 0 140 0 q 127 1 129 0 q 136 149 136 77 q 119 339 136 248 q 34 620 90 497 q 68 716 50 666 q 106 814 86 766 q 171 627 142 724 q 214 418 200 530 q 216 391 216 397 z "},"":{"ha":545,"x_min":34,"x_max":519,"o":"m 292 517 q 368 264 357 401 q 304 11 378 127 q 295 3 302 7 q 290 3 289 0 q 253 259 304 151 q 149 455 202 367 q 88 546 119 502 q 34 646 56 591 q 65 732 49 688 q 102 818 82 776 q 292 661 172 676 q 496 787 412 645 q 503 803 496 791 q 509 807 509 815 l 509 807 q 465 586 519 691 q 292 517 411 480 z "},"":{"ha":575,"x_min":34,"x_max":541,"o":"m 541 810 q 519 665 534 733 q 460 558 503 597 q 410 529 443 542 q 384 524 397 524 q 349 534 366 524 q 326 557 340 540 q 302 536 316 549 q 290 519 290 526 q 292 515 290 517 q 368 262 357 399 q 369 229 369 245 q 304 9 369 111 q 296 3 302 5 q 290 0 291 0 l 290 1 q 293 66 293 34 q 254 257 293 174 q 149 454 202 365 q 87 545 119 500 q 34 644 56 589 q 65 730 49 687 q 102 817 82 774 q 136 749 119 784 q 182 693 153 713 q 240 675 208 675 q 273 680 256 675 q 347 723 325 692 q 359 751 353 730 q 371 781 366 772 q 374 785 373 785 q 378 781 376 785 q 380 773 380 777 l 380 772 q 379 757 379 764 q 413 714 379 722 q 438 711 426 711 q 489 728 467 711 q 528 791 519 753 q 535 807 528 795 q 540 814 538 814 q 541 810 541 814 z "},"":{"ha":575,"x_min":34,"x_max":541,"o":"m 541 770 q 481 557 528 635 q 361 494 442 494 q 321 497 342 494 q 302 499 310 499 q 290 494 290 499 q 291 490 290 492 q 368 250 357 380 q 369 218 369 233 q 304 9 369 105 q 295 2 301 5 q 290 0 291 0 q 289 1 289 0 q 292 62 292 33 q 253 244 292 164 q 148 431 202 347 q 87 518 119 475 q 34 612 56 560 q 65 694 49 653 q 102 777 82 736 q 151 684 135 711 q 245 642 168 656 l 245 649 q 311 771 245 709 q 417 839 380 836 l 427 839 q 481 801 481 839 q 480 792 481 797 q 452 755 475 755 q 432 760 444 755 q 378 774 401 774 q 336 755 351 774 q 313 713 313 728 q 315 705 313 708 q 385 654 342 654 q 439 671 410 654 q 528 752 519 716 q 535 768 528 756 q 540 774 538 774 q 541 772 541 774 l 541 770 z "},"":{"ha":617,"x_min":41,"x_max":575,"o":"m 557 434 q 575 326 575 380 q 572 277 575 301 q 527 140 559 198 q 450 58 494 83 q 409 45 429 45 q 366 61 387 45 q 326 75 347 75 q 286 64 307 75 q 195 19 240 40 q 128 2 160 2 q 111 3 119 2 q 47 94 71 9 q 41 137 41 113 q 50 207 41 168 q 95 349 66 276 q 158 488 124 422 q 214 591 192 554 q 200 601 204 597 q 189 612 197 605 q 205 694 197 662 q 228 776 214 727 q 411 619 312 703 q 557 434 511 535 m 522 248 q 403 428 484 356 q 238 572 322 499 q 179 468 216 541 q 125 324 143 396 q 114 248 114 283 q 120 201 114 223 q 187 159 132 159 q 212 160 199 159 q 318 207 296 170 q 361 225 330 225 q 444 207 392 225 q 458 204 450 204 q 488 215 472 204 q 522 248 511 231 z "},"":{"ha":661,"x_min":34,"x_max":627,"o":"m 524 469 q 361 364 421 404 q 256 281 301 324 q 166 179 211 239 q 51 16 122 119 q 35 0 40 0 l 34 1 q 121 214 34 96 q 269 397 208 332 q 168 505 172 436 q 168 517 168 511 q 205 643 168 581 q 309 762 247 711 q 406 815 371 812 l 415 815 q 475 795 456 815 q 494 748 494 772 l 494 745 q 474 701 492 718 q 450 690 463 690 q 427 697 439 690 q 352 719 384 719 q 293 690 315 719 q 262 625 262 648 q 264 612 262 618 q 351 543 288 566 q 398 535 374 535 q 484 560 439 535 q 555 603 522 581 q 627 638 587 624 q 587 546 615 585 q 524 469 559 507 z "},"":{"ha":523,"x_min":34,"x_max":489,"o":"m 489 812 q 473 625 473 715 q 382 397 420 517 q 311 148 344 276 q 296 78 302 114 q 276 14 291 42 q 264 2 273 7 q 258 0 261 0 q 254 5 255 0 q 161 329 222 181 q 34 621 101 476 q 62 715 46 666 q 94 814 77 764 q 296 298 217 552 q 381 564 334 438 q 481 810 428 690 q 486 812 481 812 q 489 812 487 812 z "},"":{"ha":523,"x_min":34,"x_max":489,"o":"m 34 1 q 50 189 50 99 q 140 416 102 296 q 212 665 178 537 q 226 735 220 699 q 247 800 231 772 q 258 812 250 806 q 264 814 262 814 q 269 809 267 814 q 361 485 300 632 q 489 193 421 338 q 461 98 476 146 q 429 0 446 49 q 227 516 305 261 q 142 249 189 376 q 43 4 95 123 q 37 1 41 1 l 34 1 z "},"":{"ha":441,"x_min":38,"x_max":408,"o":"m 254 574 q 235 611 248 591 q 201 635 221 631 q 189 635 195 635 q 151 618 164 635 q 125 576 136 597 q 121 565 121 570 q 130 549 121 556 q 179 533 149 533 q 194 534 186 533 q 258 555 233 538 q 258 557 258 556 q 256 566 258 559 q 253 573 253 571 q 254 574 253 574 m 408 189 l 328 0 q 281 200 297 104 q 263 427 264 296 q 189 363 239 391 q 135 349 162 349 q 81 362 109 349 q 38 433 38 381 q 39 444 38 438 q 71 572 43 504 q 138 702 100 641 q 197 785 176 763 q 239 812 212 801 q 262 816 250 816 q 294 808 277 816 q 353 706 351 777 q 362 434 358 555 q 403 196 367 312 l 408 189 z "},"":{"ha":0,"x_min":-187,"x_max":157,"o":"m 105 22 q 77 40 90 31 q 60 62 65 49 q 56 78 56 69 q 58 90 56 83 q 79 125 61 104 q 113 153 95 145 q 127 156 121 156 q 142 152 136 156 q 156 121 153 144 l 156 114 q 144 57 156 92 q 153 49 149 54 q 157 39 157 45 l 157 37 q 155 22 157 31 q 142 -1 151 13 q 134 7 138 4 q 124 13 130 9 q 86 -29 105 -12 q 45 -58 67 -45 q -3 -79 23 -70 q -62 -96 -30 -87 l -69 -97 q -59 -90 -69 -96 q -32 -72 -49 -83 q 4 -49 -16 -62 q 44 -23 24 -36 q 80 2 63 -10 q 105 22 97 14 m 125 67 q 127 90 127 81 q 124 105 127 100 q 110 114 118 114 l 108 114 q 92 105 98 113 q 87 96 87 100 q 90 90 87 93 q 106 77 97 82 q 125 67 115 72 m -14 22 q -41 40 -28 31 q -59 62 -54 49 q -62 78 -62 69 q -61 90 -62 83 q -41 125 -58 104 q -6 153 -24 145 q 9 156 3 156 q 23 152 17 156 q 37 121 35 144 q 38 113 38 117 q 26 57 38 92 q 35 49 31 54 q 39 39 39 45 l 39 37 q 36 22 39 31 q 24 -1 32 13 q 15 7 19 4 q 5 13 11 9 q -32 -29 -14 -12 q -74 -58 -51 -45 q -122 -79 -96 -70 q -180 -96 -148 -87 l -187 -97 q -178 -90 -187 -96 q -151 -72 -168 -83 q -114 -49 -134 -62 q -74 -23 -94 -36 q -38 2 -55 -10 q -14 22 -22 14 m 7 67 q 9 88 9 79 q 9 96 9 92 q 1 111 7 106 q -8 114 -3 114 l -11 114 q -23 109 -18 113 q -31 100 -28 105 q -31 97 -31 98 q -28 90 -31 93 q -12 77 -21 82 q 7 67 -3 72 z "},"":{"ha":751,"x_min":38,"x_max":713,"o":"m 38 284 l 38 366 l 713 366 l 713 284 l 38 284 z "},"":{"ha":1389,"x_min":0,"x_max":1389,"o":"m 0 284 l 0 366 l 1389 366 l 1389 284 l 0 284 z "},"":{"ha":378,"x_min":126,"x_max":297,"o":"m 216 689 q 156 733 186 689 q 126 836 126 778 q 174 990 126 910 q 269 1069 222 1069 l 269 1040 q 210 911 219 1011 q 297 802 210 831 l 297 774 l 216 689 z "},"":{"ha":378,"x_min":81,"x_max":252,"o":"m 161 1069 q 221 1025 191 1069 q 252 922 252 981 q 203 769 252 848 q 109 689 155 689 l 109 718 q 168 847 159 747 q 81 956 168 928 l 81 985 l 161 1069 z "},"":{"ha":378,"x_min":81,"x_max":252,"o":"m 161 191 q 221 146 191 191 q 252 43 252 102 q 203 -110 252 -31 q 109 -190 155 -190 l 109 -161 q 168 -32 159 -132 q 81 77 168 49 l 81 106 l 161 191 z "},"":{"ha":617,"x_min":126,"x_max":536,"o":"m 216 689 q 156 733 186 689 q 126 836 126 778 q 174 990 126 910 q 269 1069 222 1069 l 269 1040 q 210 911 219 1011 q 297 802 210 831 l 297 774 l 216 689 m 456 689 q 396 733 426 689 q 366 836 366 778 q 414 990 366 910 q 508 1069 462 1069 l 508 1040 q 449 911 458 1011 q 536 802 449 831 l 536 774 l 456 689 z "},"":{"ha":617,"x_min":81,"x_max":491,"o":"m 161 1069 q 221 1025 191 1069 q 252 922 252 981 q 203 769 252 848 q 109 689 155 689 l 109 718 q 168 847 159 747 q 81 956 168 928 l 81 985 l 161 1069 m 401 1069 q 461 1025 431 1069 q 491 922 491 981 q 443 769 491 848 q 349 689 395 689 l 349 718 q 408 847 398 747 q 320 956 408 928 l 320 985 l 401 1069 z "},"":{"ha":617,"x_min":81,"x_max":491,"o":"m 161 191 q 221 146 191 191 q 252 43 252 102 q 203 -110 252 -31 q 109 -190 155 -190 l 109 -161 q 168 -32 159 -132 q 81 77 168 49 l 81 106 l 161 191 m 401 191 q 461 146 431 191 q 491 43 491 102 q 443 -110 491 -31 q 349 -190 395 -190 l 349 -161 q 408 -32 398 -132 q 320 77 408 49 l 320 106 l 401 191 z "},"":{"ha":1389,"x_min":87,"x_max":1183,"o":"m 98 113 l 154 170 q 174 180 164 180 q 195 169 182 180 l 249 111 q 257 91 257 100 q 248 70 257 81 l 193 10 q 174 -3 180 -3 q 154 6 163 -3 l 94 75 q 87 92 87 83 q 98 113 87 102 m 562 113 l 617 170 q 637 180 627 180 q 658 169 646 180 l 712 111 q 720 91 720 100 q 711 70 720 81 l 656 10 q 637 -3 643 -3 q 617 6 626 -3 l 557 75 q 551 92 551 83 q 562 113 551 102 m 1025 113 l 1080 170 q 1100 180 1090 180 q 1121 169 1109 180 l 1175 111 q 1183 91 1183 100 q 1174 70 1183 81 l 1120 10 q 1100 -3 1106 -3 q 1080 6 1089 -3 l 1021 75 q 1014 92 1014 83 q 1025 113 1014 102 z "},"":{"ha":97,"x_min":-277,"x_max":374,"o":"m 370 965 l 374 950 l -233 -5 l -277 12 l -277 32 l 325 977 l 340 978 l 370 965 z "},"":{"ha":1050,"x_min":64,"x_max":986,"o":"m 978 328 l 64 328 l 74 383 l 986 383 l 978 328 z "},"":{"ha":674,"x_min":54,"x_max":620,"o":"m 239 345 q 301 473 239 414 l 312 467 q 306 431 306 449 q 361 370 306 385 q 405 323 405 357 q 398 302 405 311 l 404 300 q 447 394 447 339 q 418 469 447 439 q 339 498 388 498 q 275 479 307 498 q 231 459 243 459 q 208 467 216 459 l 214 478 q 222 476 218 476 q 250 492 237 476 q 261 509 254 498 q 274 528 269 522 q 353 581 312 581 q 420 532 400 581 l 422 534 q 409 599 409 566 q 479 724 409 654 q 519 762 494 739 l 557 797 q 590 837 583 821 q 566 864 566 843 q 593 889 566 889 q 620 863 620 889 q 596 809 620 844 q 547 733 561 760 q 484 454 484 616 q 386 273 484 296 l 386 271 q 484 90 484 248 q 547 -189 484 -72 q 596 -265 561 -216 q 620 -319 620 -300 q 593 -345 620 -345 q 566 -320 566 -345 q 590 -293 566 -299 q 557 -253 583 -277 l 519 -218 q 479 -180 494 -195 q 409 -55 409 -110 q 422 9 409 -22 l 420 12 q 353 -37 400 -37 q 274 16 312 -37 q 261 35 269 22 q 250 52 254 46 q 222 68 237 68 q 214 66 218 68 l 208 77 q 231 85 216 85 q 275 65 243 85 q 339 45 307 45 q 418 75 388 45 q 447 150 447 104 q 404 243 447 205 l 398 241 q 405 220 405 233 q 361 174 405 187 q 306 113 306 159 q 312 77 306 95 l 301 71 q 239 199 239 130 q 195 183 224 183 q 133 212 161 183 l 134 211 q 107 241 134 212 q 81 255 94 255 q 60 252 66 255 l 54 266 q 95 299 75 276 q 129 336 120 329 q 195 364 163 364 q 239 345 221 364 m 298 273 q 255 315 268 290 q 205 272 205 306 q 255 229 205 238 q 298 271 268 254 l 298 273 z "},"":{"ha":674,"x_min":54,"x_max":620,"o":"m 435 199 q 373 71 435 130 l 362 77 q 368 113 368 95 q 313 174 368 159 q 269 220 269 187 q 276 241 269 233 l 271 243 q 227 150 227 205 q 256 75 227 104 q 335 45 286 45 q 399 65 368 45 q 443 85 431 85 q 467 77 458 85 l 460 66 q 452 68 456 68 q 425 52 437 68 q 413 35 420 46 q 400 16 405 22 q 321 -37 362 -37 q 254 12 274 -37 l 252 9 q 265 -55 265 -22 q 195 -180 265 -110 q 155 -218 180 -195 l 117 -253 q 84 -293 92 -277 q 109 -320 109 -299 q 81 -345 109 -345 q 54 -319 54 -345 q 78 -265 54 -300 q 127 -189 113 -216 q 191 90 191 -72 q 288 271 191 248 l 288 273 q 191 454 191 296 q 127 733 191 616 q 78 809 113 760 q 54 863 54 844 q 81 889 54 889 q 109 864 109 889 q 84 837 109 843 q 117 797 92 821 l 155 762 q 195 724 180 739 q 265 599 265 654 q 252 534 265 566 l 254 532 q 321 581 274 581 q 400 528 362 581 q 413 509 405 522 q 425 492 420 498 q 452 476 437 476 q 460 478 456 476 l 467 467 q 443 459 458 459 q 399 479 431 459 q 335 498 368 498 q 256 469 286 498 q 227 394 227 439 q 271 300 227 339 l 276 302 q 269 323 269 311 q 313 370 269 357 q 368 431 368 385 q 362 467 368 449 l 373 473 q 435 345 435 414 q 479 361 450 361 q 541 332 513 361 l 567 304 q 593 289 580 289 q 614 292 608 289 l 620 278 q 580 245 600 268 q 545 208 554 215 q 479 180 511 180 q 435 199 453 180 m 376 271 q 419 229 406 254 q 469 272 469 238 q 419 315 469 306 q 376 273 406 290 l 376 271 z "}}}
